{
copyright = "Copyright (c) 2012 by The League of Moveable Type";
customParameters = (
{
name = glyphOrder;
value = (
    ".notdef",
    NULL,
    CR,
    space,
    Acircumflex,
    Adieresis,
    Agrave,
    Amacron,
    Aogonek,
    Aring,
    Atilde,
    AE,
    B,
    C,
    Cacute,
    Ccaron,
    Ccedilla,
    Ccircumflex,
    Cdotaccent,
    D,
    Eth,
    Dcaron,
    Dcroat,
    E,
    Eacute,
    Ebreve,
    Ecaron,
    Ecircumflex,
    Edieresis,
    Edotaccent,
    Egrave,
    Emacron,
    Eogonek,
    F,
    G,
    Gbreve,
    Gcircumflex,
    Gcommaaccent,
    Gdotaccent,
    H,
    Hbar,
    Hcircumflex,
    I,
    IJ,
    Iacute,
    Ibreve,
    Icircumflex,
    Idieresis,
    Idotaccent,
    Igrave,
    Imacron,
    Iogonek,
    Itilde,
    J,
    Jcircumflex,
    K,
    Kcommaaccent,
    L,
    Lacute,
    Lcaron,
    Lcommaaccent,
    Ldot,
    Lslash,
    M,
    N,
    Nacute,
    Ncaron,
    Ncommaaccent,
    Eng,
    Ntilde,
    O,
    Oacute,
    Obreve,
    Ocircumflex,
    Odieresis,
    Ograve,
    Ohungarumlaut,
    Omacron,
    Oslash,
    Otilde,
    OE,
    P,
    Thorn,
    Q,
    R,
    Racute,
    Rcaron,
    Rcommaaccent,
    S,
    Sacute,
    Scaron,
    Scedilla,
    Scircumflex,
    T,
    Tbar,
    Tcaron,
    uni021A,
    U,
    Uacute,
    Ubreve,
    Ucircumflex,
    Udieresis,
    Ugrave,
    Uhungarumlaut,
    Umacron,
    Uogonek,
    Uring,
    Utilde,
    V,
    W,
    Wcircumflex,
    X,
    Y,
    Yacute,
    Ycircumflex,
    Ydieresis,
    Z,
    Zacute,
    Zcaron,
    Zdotaccent,
    a,
    aacute,
    abreve,
    acircumflex,
    adieresis,
    agrave,
    amacron,
    aogonek,
    aring,
    atilde,
    ae,
    b,
    c,
    cacute,
    ccaron,
    ccedilla,
    ccircumflex,
    cdotaccent,
    d,
    eth,
    dcaron,
    dcroat,
    e,
    eacute,
    ebreve,
    ecaron,
    ecircumflex,
    edieresis,
    edotaccent,
    egrave,
    emacron,
    eogonek,
    f,
    g,
    gbreve,
    gcircumflex,

glyphs = (
{
glyphname = uni0093;
lastChange = "2012-08-30 15:12:10 +0000";
layers = (
{
layerId = "6463F33F-C059-4755-9C76-9F35D70521A0";
name = "Regular Condensed";
paths = (
{
closed = 1;
nodes = (
"7 494 LINE",
"88 494 LINE",
"88 605 LINE",
"67 605 LINE",
"88 735 LINE",
"40 735 LINE",
"7 605 LINE"
);
},
{
closed = 1;
nodes = (
"115 494 LINE",
"196 494 LINE",
"196 605 LINE",
"175 605 LINE",
"196 735 LINE",
"148 735 LINE",
"115 605 LINE"
);
}
);
width = 232;
}
);
leftKerningGroup = quotesingle;
unicode = 0093;
},
{
glyphname = uni0094;
layers = (
{
layerId = "6463F33F-C059-4755-9C76-9F35D70521A0";
name = "Regular Condensed";
paths = (
{
closed = 1;
nodes = (
"88 735 LINE",
"7 735 LINE",
"7 624 LINE",
"28 624 LINE",
"7 494 LINE",
"55 494 LINE",
"88 624 LINE"
);
},
{
closed = 1;
nodes = (
"196 735 LINE",
"115 735 LINE",
"115 624 LINE",
"136 624 LINE",
"115 494 LINE",
"163 494 LINE",
"196 624 LINE"
);
}
);
width = 228;
}
);
leftKerningGroup = quotesingle;
unicode = 0094;
},
{
glyphname = Acircumflex;
lastChange = "2012-08-26 17:21:30 +0000";
layers = (
{
layerId = "6463F33F-C059-4755-9C76-9F35D70521A0";
name = "Regular Condensed";
paths = (
{
closed = 1;
nodes = (
"73 890 LINE",
"31 800 LINE",
"96 800 LINE",
"113 839 LINE",
"130 800 LINE",
"195 800 LINE",
"154 890 LINE"
);
},
{
closed = 1;
nodes = (
"78 0 LINE",
"89 150 LINE",
"135 150 LINE",
"146 0 LINE",
"227 0 LINE",
"161 735 LINE",
"64 735 LINE",
"-3 0 LINE"
);
},
{
closed = 1;
nodes = (
"128 264 LINE",
"97 264 LINE",
"112 556 LINE"
);
}
);
width = 254;
}
);
leftKerningGroup = NULL;
unicode = 00C2;
},
{
glyphname = Adieresis;
lastChange = "2012-08-26 17:21:30 +0000";
layers = (
{
layerId = "6463F33F-C059-4755-9C76-9F35D70521A0";
name = "Regular Condensed";
paths = (
{
closed = 1;
nodes = (
"28 800 LINE",
"102 800 LINE",
"102 898 LINE",
"28 898 LINE"
);
},
{
closed = 1;
nodes = (
"125 800 LINE",
"198 800 LINE",
"198 898 LINE",
"125 898 LINE"
);
},
{
closed = 1;
nodes = (
"78 0 LINE",
"90 150 LINE",
"134 150 LINE",
"146 0 LINE",
"227 0 LINE",
"161 735 LINE",
"64 735 LINE",
"-3 0 LINE"
);
},
{
closed = 1;
nodes = (
"127 264 LINE",
"98 264 LINE",
"112 526 LINE"
);
}
);
width = 254;
}
);
leftKerningGroup = NULL;
unicode = 00C4;
},
{
glyphname = Agrave;
lastChange = "2012-08-26 17:21:30 +0000";
layers = (
{
layerId = "6463F33F-C059-4755-9C76-9F35D70521A0";
name = "Regular Condensed";
paths = (
{
closed = 1;
nodes = (
"33 890 LINE",
"81 800 LINE",
"145 800 LINE",
"113 890 LINE"
);
},
{
closed = 1;
nodes = (
"78 0 LINE",
"89 150 LINE",
"135 150 LINE",
"146 0 LINE",
"227 0 LINE",
"161 735 LINE",
"64 735 LINE",
"-3 0 LINE"
);
},
{
closed = 1;
nodes = (
"128 264 LINE",
"97 264 LINE",
"112 556 LINE"
);
}
);
width = 254;
}
);
leftKerningGroup = NULL;
unicode = 00C0;
},
{
glyphname = Amacron;
lastChange = "2012-08-26 17:21:30 +0000";
layers = (
{
layerId = "6463F33F-C059-4755-9C76-9F35D70521A0";
name = "Regular Condensed";
paths = (
{
closed = 1;
nodes = (
"46 830 LINE",
"180 830 LINE",
"180 909 LINE",
"46 909 LINE"
);
},
{
closed = 1;
nodes = (
"78 0 LINE",
"89 150 LINE",
"135 150 LINE",
"146 0 LINE",
"227 0 LINE",
"161 735 LINE",
"64 735 LINE",
"-3 0 LINE"
);
},
{
closed = 1;
nodes = (
"128 264 LINE",
"97 264 LINE",
"112 556 LINE"
);
}
);
width = 254;
}
);
unicode = 0100;
},
{
glyphname = Aogonek;
lastChange = "2012-08-26 17:21:30 +0000";
layers = (
{
layerId = "6463F33F-C059-4755-9C76-9F35D70521A0";
name = "Regular Condensed";
paths = (
{
closed = 1;
nodes = (
"227 0 LINE",
"161 735 LINE",
"64 735 LINE",
"-3 0 LINE",
"78 0 LINE",
"89 150 LINE",
"135 150 LINE",
"146 0 LINE",
"154 0 LINE",
"146 -11 OFFCURVE",
"140 -21 OFFCURVE",
"136 -28 CURVE",
"136 -29 OFFCURVE",
"135 -30 OFFCURVE",
"134 -31 CURVE",
"124 -50 OFFCURVE",
"113 -79 OFFCURVE",
"113 -103 CURVE SMOOTH",
"113 -148 OFFCURVE",
"138 -188 OFFCURVE",
"183 -188 CURVE SMOOTH",
"196 -188 OFFCURVE",
"207 -185 OFFCURVE",
"223 -176 CURVE",
"227 -101 LINE",
"212 -112 OFFCURVE",
"198 -121 OFFCURVE",
"193 -121 CURVE SMOOTH",
"183 -121 OFFCURVE",
"172 -112 OFFCURVE",
"172 -83 CURVE SMOOTH",
"172 -71 OFFCURVE",
"173 -60 OFFCURVE",
"176 -50 CURVE SMOOTH",
"182 -30 OFFCURVE",
"190 -13 OFFCURVE",
"198 0 CURVE"
);
},
{
closed = 1;
nodes = (
"128 264 LINE",
"97 264 LINE",
"112 556 LINE"
);
}
);
width = 254;
}
);
unicode = 0104;
},
{
glyphname = Aring;
lastChange = "2012-08-26 17:21:30 +0000";
layers = (
{
layerId = "6463F33F-C059-4755-9C76-9F35D70521A0";
name = "Regular Condensed";
paths = (
{
closed = 1;
nodes = (
"59 819 OFFCURVE",
"83 790 OFFCURVE",
"113 790 CURVE SMOOTH",
"142 790 OFFCURVE",
"166 819 OFFCURVE",
"166 860 CURVE SMOOTH",
"166 901 OFFCURVE",
"142 930 OFFCURVE",
"113 930 CURVE SMOOTH",
"83 930 OFFCURVE",
"59 901 OFFCURVE",
"59 860 CURVE SMOOTH"
);
},
{
closed = 1;
nodes = (
"98 879 OFFCURVE",
"106 891 OFFCURVE",
"113 891 CURVE SMOOTH",
"119 891 OFFCURVE",
"128 879 OFFCURVE",
"128 860 CURVE SMOOTH",
"128 841 OFFCURVE",
"119 828 OFFCURVE",
"113 828 CURVE SMOOTH",
"106 828 OFFCURVE",
"98 841 OFFCURVE",
"98 860 CURVE SMOOTH"
);
},
{
closed = 1;
nodes = (
"78 0 LINE",
"90 150 LINE",
"134 150 LINE",
"146 0 LINE",
"227 0 LINE",
"161 735 LINE",
"64 735 LINE",
"-3 0 LINE"
);
},
{
closed = 1;
nodes = (
"127 264 LINE",
"98 264 LINE",
"112 526 LINE"
);
}
);
width = 254;
}
);
leftKerningGroup = NULL;
unicode = 00C5;
},
{
glyphname = Atilde;
lastChange = "2012-08-26 17:21:30 +0000";
layers = (
{
layerId = "6463F33F-C059-4755-9C76-9F35D70521A0";
name = "Regular Condensed";
paths = (
{
closed = 1;
nodes = (
"78 0 LINE",
"89 150 LINE",
"135 150 LINE",
"146 0 LINE",
"227 0 LINE",
"161 735 LINE",
"64 735 LINE",
"-3 0 LINE"
);
},
{
closed = 1;
nodes = (
"128 264 LINE",
"97 264 LINE",
"112 556 LINE"
);
},
{
closed = 1;
nodes = (
"46 783 LINE",
"51 790 OFFCURVE",
"74 813 OFFCURVE",
"86 813 CURVE SMOOTH",
"106 813 OFFCURVE",
"117 794 OFFCURVE",
"140 794 CURVE SMOOTH",
"158 794 OFFCURVE",
"172 806 OFFCURVE",
"180 819 CURVE",
"180 902 LINE",
"174 892 OFFCURVE",
"153 873 OFFCURVE",
"140 873 CURVE SMOOTH",
"121 873 OFFCURVE",
"110 890 OFFCURVE",
"87 890 CURVE SMOOTH",
"72 890 OFFCURVE",
"55 882 OFFCURVE",
"46 869 CURVE"
);
}
);
width = 254;
}
);
leftKerningGroup = NULL;
unicode = 00C3;
},
{
glyphname = AE;
lastChange = "2012-08-26 17:21:30 +0000";
layers = (
{
anchors = (
{
name = top;
position = "{176, 735}";
}
);
layerId = "6463F33F-C059-4755-9C76-9F35D70521A0";
name = "Regular Condensed";
paths = (
{
closed = 1;
nodes = (
"153 0 LINE",
"319 0 LINE",
"319 111 LINE",
"236 111 LINE",
"236 313 LINE",
"296 313 LINE",
"296 431 LINE",
"236 431 LINE",
"236 624 LINE",
"319 624 LINE",
"319 735 LINE",
"119 735 LINE",
"-4 0 LINE",
"78 0 LINE",
"104 150 LINE",
"153 150 LINE"
);
},
{
closed = 1;
nodes = (
"153 538 LINE",
"153 485 OFFCURVE",
"153 309 OFFCURVE",
"153 264 CURVE",
"121 264 LINE"
);
}
);
width = 352;
}
);
unicode = 00C6;
},
{
glyphname = B;
lastChange = "2012-08-26 17:21:30 +0000";
layers = (
{
layerId = "6463F33F-C059-4755-9C76-9F35D70521A0";
name = "Regular Condensed";
paths = (
{
closed = 1;
nodes = (
"124 0 LINE SMOOTH",
"167 0 OFFCURVE",
"188 39 OFFCURVE",
"197 63 CURVE SMOOTH",
"206 87 OFFCURVE",
"213 153 OFFCURVE",
"213 208 CURVE SMOOTH",
"213 244 OFFCURVE",
"211 293 OFFCURVE",
"206 316 CURVE SMOOTH",
"197 357 OFFCURVE",
"182 372 OFFCURVE",
"165 388 CURVE",
"184 402 OFFCURVE",
"193 423 OFFCURVE",
"200 445 CURVE",
"206 469 OFFCURVE",
"208 505 OFFCURVE",
"208 540 CURVE SMOOTH",
"208 611 OFFCURVE",
"195 660 OFFCURVE",
"174 692 CURVE SMOOTH",
"154 721 OFFCURVE",
"130 735 OFFCURVE",
"88 735 CURVE SMOOTH",
"15 735 LINE",
"15 0 LINE"
);
},
{
closed = 1;
nodes = (
"98 628 LINE",
"104 628 OFFCURVE",
"112 628 OFFCURVE",
"118 622 CURVE",
"126 611 OFFCURVE",
"129 583 OFFCURVE",
"129 530 CURVE SMOOTH",
"129 477 OFFCURVE",
"126 449 OFFCURVE",
"118 438 CURVE",
"114 432 OFFCURVE",
"103 432 OFFCURVE",
"98 432 CURVE"
);
},
{
closed = 1;
nodes = (
"98 333 LINE",
"103 333 OFFCURVE",
"112 334 OFFCURVE",
"118 328 CURVE SMOOTH",
"128 318 OFFCURVE",
"129 282 OFFCURVE",
"129 220 CURVE SMOOTH",
"129 157 OFFCURVE",
"126 123 OFFCURVE",
"118 112 CURVE",
"113 106 OFFCURVE",
"102 107 OFFCURVE",
"98 107 CURVE"
);
}
);
width = 248;
}
);
unicode = 0042;
},
{
glyphname = C;
lastChange = "2012-08-26 17:21:30 +0000";
layers = (
{
anchors = (
{
name = bottom;
position = "{119, 0}";
},
{
name = top;
position = "{119, 735}";
}
);
layerId = "6463F33F-C059-4755-9C76-9F35D70521A0";
name = "Regular Condensed";
paths = (
{
closed = 1;
nodes = (
"125 252 LINE",
"125 141 LINE SMOOTH",
"125 127 OFFCURVE",
"124 97 OFFCURVE",
"108 97 CURVE SMOOTH",
"96 97 OFFCURVE",
"94 127 OFFCURVE",
"94 141 CURVE SMOOTH",
"94 598 LINE SMOOTH",
"94 614 OFFCURVE",
"95 638 OFFCURVE",
"108 638 CURVE SMOOTH",
"124 638 OFFCURVE",
"125 607 OFFCURVE",
"125 594 CURVE SMOOTH",
"125 483 LINE",
"206 483 LINE",
"206 594 LINE SMOOTH",
"206 646 OFFCURVE",
"187 743 OFFCURVE",
"107 743 CURVE SMOOTH",
"32 743 OFFCURVE",
"9 659 OFFCURVE",
"9 594 CURVE SMOOTH",
"9 141 LINE SMOOTH",
"9 76 OFFCURVE",
"29 -8 OFFCURVE",
"107 -8 CURVE SMOOTH",
"183 -8 OFFCURVE",
"206 64 OFFCURVE",
"206 141 CURVE SMOOTH",
"206 252 LINE"
);
}
);
width = 238;
}
);
unicode = 0043;
},
{
glyphname = Cacute;
lastChange = "2012-08-26 17:21:30 +0000";
layers = (
{
layerId = "6463F33F-C059-4755-9C76-9F35D70521A0";
name = "Regular Condensed";
paths = (
{
closed = 1;
nodes = (
"80 915 LINE",
"49 825 LINE",
"112 825 LINE",
"160 915 LINE"
);
},
{
closed = 1;
nodes = (
"125 252 LINE",
"125 141 LINE SMOOTH",
"125 127 OFFCURVE",
"124 97 OFFCURVE",
"108 97 CURVE SMOOTH",
"96 97 OFFCURVE",
"94 127 OFFCURVE",
"94 141 CURVE SMOOTH",
"94 598 LINE SMOOTH",
"94 614 OFFCURVE",
"95 638 OFFCURVE",
"108 638 CURVE SMOOTH",
"124 638 OFFCURVE",
"125 607 OFFCURVE",
"125 594 CURVE SMOOTH",
"125 483 LINE",
"206 483 LINE",
"206 594 LINE SMOOTH",
"206 646 OFFCURVE",
"187 743 OFFCURVE",
"107 743 CURVE SMOOTH",
"32 743 OFFCURVE",
"9 659 OFFCURVE",
"9 594 CURVE SMOOTH",
"9 141 LINE SMOOTH",
"9 76 OFFCURVE",
"29 -8 OFFCURVE",
"107 -8 CURVE SMOOTH",
"183 -8 OFFCURVE",
"206 64 OFFCURVE",
"206 141 CURVE SMOOTH",
"206 252 LINE"
);
}
);
width = 238;
}
);
unicode = 0106;
},
{
glyphname = Ccaron;
lastChange = "2012-08-26 17:21:30 +0000";
layers = (
{
layerId = "6463F33F-C059-4755-9C76-9F35D70521A0";
name = "Regular Condensed";
paths = (
{
closed = 1;
nodes = (
"125 252 LINE",
"125 141 LINE SMOOTH",
"125 127 OFFCURVE",
"124 97 OFFCURVE",
"108 97 CURVE SMOOTH",
"96 97 OFFCURVE",
"94 127 OFFCURVE",
"94 141 CURVE SMOOTH",
"94 598 LINE SMOOTH",
"94 614 OFFCURVE",
"95 638 OFFCURVE",
"108 638 CURVE SMOOTH",
"124 638 OFFCURVE",
"125 607 OFFCURVE",
"125 594 CURVE SMOOTH",
"125 483 LINE",
"206 483 LINE",
"206 594 LINE SMOOTH",
"206 646 OFFCURVE",
"187 743 OFFCURVE",
"107 743 CURVE SMOOTH",
"32 743 OFFCURVE",
"9 659 OFFCURVE",
"9 594 CURVE SMOOTH",
"9 141 LINE SMOOTH",
"9 76 OFFCURVE",
"29 -8 OFFCURVE",
"107 -8 CURVE SMOOTH",
"183 -8 OFFCURVE",
"206 64 OFFCURVE",
"206 141 CURVE SMOOTH",
"206 252 LINE"
);
},
{
closed = 1;
nodes = (
"147 825 LINE",
"188 915 LINE",
"123 915 LINE",
"106 876 LINE",
"89 915 LINE",
"24 915 LINE",
"66 825 LINE"
);
}
);
width = 238;
}
);
unicode = 010C;
},
{
glyphname = Ccedilla;
lastChange = "2012-08-26 17:21:30 +0000";
layers = (
{
layerId = "6463F33F-C059-4755-9C76-9F35D70521A0";
name = "Regular Condensed";
paths = (
{
closed = 1;
nodes = (
"138 -54 LINE",
"70 -54 LINE",
"70 -123 LINE",
"88 -123 LINE",
"76 -188 LINE",
"125 -188 LINE",
"138 -123 LINE"
);
},
{
closed = 1;
nodes = (
"125 252 LINE",
"125 141 LINE SMOOTH",
"125 127 OFFCURVE",
"124 97 OFFCURVE",
"108 97 CURVE SMOOTH",
"96 97 OFFCURVE",
"94 127 OFFCURVE",
"94 141 CURVE SMOOTH",
"94 598 LINE SMOOTH",
"94 614 OFFCURVE",
"95 638 OFFCURVE",
"108 638 CURVE SMOOTH",
"124 638 OFFCURVE",
"125 607 OFFCURVE",
"125 594 CURVE SMOOTH",
"125 483 LINE",
"206 483 LINE",
"206 594 LINE SMOOTH",
"206 646 OFFCURVE",
"187 743 OFFCURVE",
"107 743 CURVE SMOOTH",
"32 743 OFFCURVE",
"9 659 OFFCURVE",
"9 594 CURVE SMOOTH",
"9 141 LINE SMOOTH",
"9 76 OFFCURVE",
"29 -8 OFFCURVE",
"107 -8 CURVE SMOOTH",
"183 -8 OFFCURVE",
"206 64 OFFCURVE",
"206 141 CURVE SMOOTH",
"206 252 LINE"
);
}
);
width = 238;
}
);
unicode = 00C7;
},
{
glyphname = Ccircumflex;
lastChange = "2012-08-26 17:21:30 +0000";
layers = (
{
layerId = "6463F33F-C059-4755-9C76-9F35D70521A0";
name = "Regular Condensed";
paths = (
{
closed = 1;
nodes = (
"125 252 LINE",
"125 141 LINE SMOOTH",
"125 127 OFFCURVE",
"124 97 OFFCURVE",
"108 97 CURVE SMOOTH",
"96 97 OFFCURVE",
"94 127 OFFCURVE",
"94 141 CURVE SMOOTH",
"94 598 LINE SMOOTH",
"94 614 OFFCURVE",
"95 638 OFFCURVE",
"108 638 CURVE SMOOTH",
"124 638 OFFCURVE",
"125 607 OFFCURVE",
"125 594 CURVE SMOOTH",
"125 483 LINE",
"206 483 LINE",
"206 594 LINE SMOOTH",
"206 646 OFFCURVE",
"187 743 OFFCURVE",
"107 743 CURVE SMOOTH",
"32 743 OFFCURVE",
"9 659 OFFCURVE",
"9 594 CURVE SMOOTH",
"9 141 LINE SMOOTH",
"9 76 OFFCURVE",
"29 -8 OFFCURVE",
"107 -8 CURVE SMOOTH",
"183 -8 OFFCURVE",
"206 64 OFFCURVE",
"206 141 CURVE SMOOTH",
"206 252 LINE"
);
},
{
closed = 1;
nodes = (
"64 890 LINE",
"22 800 LINE",
"87 800 LINE",
"104 839 LINE",
"121 800 LINE",
"186 800 LINE",
"145 890 LINE"
);
}
);
width = 238;
}
);
unicode = 0108;
},
{
glyphname = Cdotaccent;
lastChange = "2012-08-26 17:21:30 +0000";
layers = (
{
layerId = "6463F33F-C059-4755-9C76-9F35D70521A0";
name = "Regular Condensed";
paths = (
{
closed = 1;
nodes = (
"65 822 LINE",
"144 822 LINE",
"144 923 LINE",
"65 923 LINE"
);
},
{
closed = 1;
nodes = (
"125 252 LINE",
"125 141 LINE SMOOTH",
"125 127 OFFCURVE",
"124 97 OFFCURVE",
"108 97 CURVE SMOOTH",
"96 97 OFFCURVE",
"94 127 OFFCURVE",
"94 141 CURVE SMOOTH",
"94 598 LINE SMOOTH",
"94 614 OFFCURVE",
"95 638 OFFCURVE",
"108 638 CURVE SMOOTH",
"124 638 OFFCURVE",
"125 607 OFFCURVE",
"125 594 CURVE SMOOTH",
"125 483 LINE",
"206 483 LINE",
"206 594 LINE SMOOTH",
"206 646 OFFCURVE",
"187 743 OFFCURVE",
"107 743 CURVE SMOOTH",
"32 743 OFFCURVE",
"9 659 OFFCURVE",
"9 594 CURVE SMOOTH",
"9 141 LINE SMOOTH",
"9 76 OFFCURVE",
"29 -8 OFFCURVE",
"107 -8 CURVE SMOOTH",
"183 -8 OFFCURVE",
"206 64 OFFCURVE",
"206 141 CURVE SMOOTH",
"206 252 LINE"
);
}
);
width = 238;
}
);
unicode = 010A;
},
{
glyphname = D;
lastChange = "2012-08-26 17:21:30 +0000";
layers = (
{
anchors = (
{
name = center;
position = "{127, 368}";
},
{
name = top;
position = "{127, 735}";
}
);
layerId = "6463F33F-C059-4755-9C76-9F35D70521A0";
name = "Regular Condensed";
paths = (
{
closed = 1;
nodes = (
"95 0 LINE SMOOTH",
"161 0 OFFCURVE",
"185 26 OFFCURVE",
"198 65 CURVE SMOOTH",
"213 109 OFFCURVE",
"213 223 OFFCURVE",
"213 367 CURVE SMOOTH",
"213 511 OFFCURVE",
"211 603 OFFCURVE",
"194 659 CURVE SMOOTH",
"176 715 OFFCURVE",
"150 735 OFFCURVE",
"84 735 CURVE SMOOTH",
"15 735 LINE",
"15 0 LINE"
);
},
{
closed = 1;
nodes = (
"98 627 LINE",
"110 626 OFFCURVE",
"125 629 OFFCURVE",
"128 603 CURVE SMOOTH",
"133 558 OFFCURVE",
"131 487 OFFCURVE",
"131 336 CURVE",
"131 164 OFFCURVE",
"131 164 OFFCURVE",
"131 164 CURVE",
"131 105 OFFCURVE",
"111 108 OFFCURVE",
"98 108 CURVE"
);
}
);
width = 253;
}
);
unicode = 0044;
},
{
glyphname = Eth;
lastChange = "2012-08-26 17:09:55 +0000";
layers = (
{
layerId = "6463F33F-C059-4755-9C76-9F35D70521A0";
name = "Regular Condensed";
paths = (
{
closed = 1;
nodes = (
"-3 320 LINE",
"15 320 LINE",
"15 0 LINE",
"75 0 LINE SMOOTH",
"209 0 OFFCURVE",
"213 66 OFFCURVE",
"213 367 CURVE SMOOTH",
"213 673 OFFCURVE",
"211 735 OFFCURVE",
"75 735 CURVE SMOOTH",
"15 735 LINE",
"15 431 LINE",
"-3 431 LINE"
);
},
{
closed = 1;
nodes = (
"98 627 LINE",
"98 108 LINE",
"98 320 LINE",
"113 320 LINE",
"113 431 LINE",
"98 431 LINE"
);
},
{
closed = 1;
nodes = (
"98 627 LINE",
"110 626 OFFCURVE",
"125 629 OFFCURVE",
"128 603 CURVE SMOOTH",
"133 558 OFFCURVE",
"131 487 OFFCURVE",
"131 336 CURVE",
"131 164 OFFCURVE",
"131 164 OFFCURVE",
"131 164 CURVE",
"131 105 OFFCURVE",
"111 108 OFFCURVE",
"98 108 CURVE"
);
}
);
width = 253;
}
);
unicode = 00D0;
},
{
glyphname = Dcaron;
lastChange = "2012-08-26 17:10:17 +0000";
layers = (
{
layerId = "6463F33F-C059-4755-9C76-9F35D70521A0";
name = "Regular Condensed";
paths = (
{
closed = 1;
nodes = (
"95 0 LINE SMOOTH",
"161 0 OFFCURVE",
"185 26 OFFCURVE",
"198 65 CURVE SMOOTH",
"213 109 OFFCURVE",
"213 223 OFFCURVE",
"213 367 CURVE SMOOTH",
"213 511 OFFCURVE",
"211 603 OFFCURVE",
"194 659 CURVE SMOOTH",
"176 715 OFFCURVE",
"150 735 OFFCURVE",
"84 735 CURVE SMOOTH",
"15 735 LINE",
"15 0 LINE"
);
},
{
closed = 1;
nodes = (
"98 627 LINE",
"98 108 LINE"
);
},
{
closed = 1;
nodes = (
"150 825 LINE",
"191 915 LINE",
"126 915 LINE",
"109 876 LINE",
"92 915 LINE",
"27 915 LINE",
"69 825 LINE"
);
},
{
closed = 1;
nodes = (
"98 627 LINE",
"110 626 OFFCURVE",
"125 629 OFFCURVE",
"128 603 CURVE SMOOTH",
"133 558 OFFCURVE",
"131 487 OFFCURVE",
"131 336 CURVE",
"131 164 OFFCURVE",
"131 164 OFFCURVE",
"131 164 CURVE",
"131 105 OFFCURVE",
"111 108 OFFCURVE",
"98 108 CURVE"
);
}
);
width = 253;
}
);
unicode = 010E;
},
{
glyphname = Dcroat;
lastChange = "2012-08-26 17:10:29 +0000";
layers = (
{
layerId = "6463F33F-C059-4755-9C76-9F35D70521A0";
name = "Regular Condensed";
paths = (
{
closed = 1;
nodes = (
"95 0 LINE SMOOTH",
"161 0 OFFCURVE",
"185 26 OFFCURVE",
"198 65 CURVE SMOOTH",
"213 109 OFFCURVE",
"213 223 OFFCURVE",
"213 367 CURVE SMOOTH",
"213 511 OFFCURVE",
"211 603 OFFCURVE",
"194 659 CURVE SMOOTH",
"176 715 OFFCURVE",
"150 735 OFFCURVE",
"84 735 CURVE SMOOTH",
"15 735 LINE",
"15 410 LINE",
"-20 410 LINE",
"-20 331 LINE",
"15 331 LINE",
"15 0 LINE"
);
},
{
closed = 1;
nodes = (
"98 627 LINE",
"98 108 LINE",
"98 331 LINE",
"114 331 LINE",
"114 410 LINE",
"98 410 LINE"
);
},
{
closed = 1;
nodes = (
"98 627 LINE",
"110 626 OFFCURVE",
"125 629 OFFCURVE",
"128 603 CURVE SMOOTH",
"133 558 OFFCURVE",
"131 487 OFFCURVE",
"131 336 CURVE",
"131 164 OFFCURVE",
"131 164 OFFCURVE",
"131 164 CURVE",
"131 105 OFFCURVE",
"111 108 OFFCURVE",
"98 108 CURVE"
);
}
);
width = 253;
}
);
unicode = 0110;
},
{
glyphname = E;
lastChange = "2012-08-26 17:21:30 +0000";
layers = (
{
anchors = (
{
name = bottom;
position = "{107, 0}";
},
{
name = ogonek;
position = "{193, 10}";
},
{
name = top;
position = "{107, 735}";
}
);
layerId = "6463F33F-C059-4755-9C76-9F35D70521A0";
name = "Regular Condensed";
paths = (
{
closed = 1;
nodes = (
"15 0 LINE",
"181 0 LINE",
"181 111 LINE",
"98 111 LINE",
"98 313 LINE",
"158 313 LINE",
"158 431 LINE",
"98 431 LINE",
"98 624 LINE",
"181 624 LINE",
"181 735 LINE",
"15 735 LINE"
);
}
);
width = 214;
}
);
rightKerningGroup = E;
unicode = 0045;
},
{
glyphname = Eacute;
lastChange = "2012-08-26 17:21:30 +0000";
layers = (
{
layerId = "6463F33F-C059-4755-9C76-9F35D70521A0";
name = "Regular Condensed";
paths = (
{
closed = 1;
nodes = (
"91 890 LINE",
"60 800 LINE",
"124 800 LINE",
"171 890 LINE"
);
},
{
closed = 1;
nodes = (
"15 0 LINE",
"181 0 LINE",
"181 111 LINE",
"98 111 LINE",
"98 313 LINE",
"158 313 LINE",
"158 431 LINE",
"98 431 LINE",
"98 624 LINE",
"181 624 LINE",
"181 735 LINE",
"15 735 LINE"
);
}
);
width = 214;
}
);
rightKerningGroup = E;
unicode = 00C9;
},
{
glyphname = Ebreve;
lastChange = "2012-08-26 17:21:30 +0000";
layers = (
{
layerId = "6463F33F-C059-4755-9C76-9F35D70521A0";
name = "Regular Condensed";
paths = (
{
closed = 1;
nodes = (
"128 928 LINE",
"113 905 LINE",
"107 899 OFFCURVE",
"99 894 OFFCURVE",
"93 894 CURVE SMOOTH",
"90 894 OFFCURVE",
"86 895 OFFCURVE",
"82 897 CURVE",
"77 899 OFFCURVE",
"70 911 OFFCURVE",
"60 929 CURVE",
"19 870 LINE",
"21 866 OFFCURVE",
"28 857 OFFCURVE",
"37 847 CURVE",
"49 835 OFFCURVE",
"66 824 OFFCURVE",
"93 824 CURVE SMOOTH",
"106 824 OFFCURVE",
"118 826 OFFCURVE",
"126 831 CURVE",
"125 831 LINE",
"146 842 OFFCURVE",
"159 856 OFFCURVE",
"167 870 CURVE"
);
},
{
closed = 1;
nodes = (
"15 0 LINE",
"181 0 LINE",
"181 111 LINE",
"98 111 LINE",
"98 313 LINE",
"158 313 LINE",
"158 431 LINE",
"98 431 LINE",
"98 624 LINE",
"181 624 LINE",
"181 735 LINE",
"15 735 LINE"
);
}
);
width = 214;
}
);
unicode = 0114;
},
{
glyphname = Ecaron;
lastChange = "2012-08-26 17:21:30 +0000";
layers = (
{
layerId = "6463F33F-C059-4755-9C76-9F35D70521A0";
name = "Regular Condensed";
paths = (
{
closed = 1;
nodes = (
"15 0 LINE",
"181 0 LINE",
"181 111 LINE",
"98 111 LINE",
"98 313 LINE",
"158 313 LINE",
"158 431 LINE",
"98 431 LINE",
"98 624 LINE",
"181 624 LINE",
"181 735 LINE",
"15 735 LINE"
);
},
{
closed = 1;
nodes = (
"138 825 LINE",
"179 915 LINE",
"114 915 LINE",
"97 876 LINE",
"80 915 LINE",
"15 915 LINE",
"57 825 LINE"
);
}
);
width = 214;
}
);
unicode = 011A;
},
{
glyphname = Ecircumflex;
lastChange = "2012-08-26 17:21:30 +0000";
layers = (
{
layerId = "6463F33F-C059-4755-9C76-9F35D70521A0";
name = "Regular Condensed";
paths = (
{
closed = 1;
nodes = (
"15 0 LINE",
"181 0 LINE",
"181 111 LINE",
"98 111 LINE",
"98 313 LINE",
"158 313 LINE",
"158 431 LINE",
"98 431 LINE",
"98 624 LINE",
"181 624 LINE",
"181 735 LINE",
"15 735 LINE"
);
},
{
closed = 1;
nodes = (
"60 890 LINE",
"18 800 LINE",
"83 800 LINE",
"100 839 LINE",
"117 800 LINE",
"182 800 LINE",
"141 890 LINE"
);
}
);
width = 214;
}
);
rightKerningGroup = E;
unicode = 00CA;
},
{
glyphname = Edieresis;
lastChange = "2012-08-26 17:21:30 +0000";
layers = (
{
layerId = "6463F33F-C059-4755-9C76-9F35D70521A0";
name = "Regular Condensed";
paths = (
{
closed = 1;
nodes = (
"15 0 LINE",
"181 0 LINE",
"181 111 LINE",
"98 111 LINE",
"98 313 LINE",
"158 313 LINE",
"158 431 LINE",
"98 431 LINE",
"98 624 LINE",
"181 624 LINE",
"181 735 LINE",
"15 735 LINE"
);
},
{
closed = 1;
nodes = (
"15 800 LINE",
"89 800 LINE",
"89 898 LINE",
"15 898 LINE"
);
},
{
closed = 1;
nodes = (
"112 800 LINE",
"185 800 LINE",
"185 898 LINE",
"112 898 LINE"
);
}
);
width = 214;
}
);
rightKerningGroup = E;
unicode = 00CB;
},
{
glyphname = Edotaccent;
lastChange = "2012-08-26 17:21:30 +0000";
layers = (
{
layerId = "6463F33F-C059-4755-9C76-9F35D70521A0";
name = "Regular Condensed";
paths = (
{
closed = 1;
nodes = (
"53 822 LINE",
"132 822 LINE",
"132 923 LINE",
"53 923 LINE"
);
},
{
closed = 1;
nodes = (
"15 0 LINE",
"181 0 LINE",
"181 111 LINE",
"98 111 LINE",
"98 313 LINE",
"158 313 LINE",
"158 431 LINE",
"98 431 LINE",
"98 624 LINE",
"181 624 LINE",
"181 735 LINE",
"15 735 LINE"
);
}
);
width = 214;
}
);
unicode = 0116;
},
{
glyphname = Egrave;
lastChange = "2012-08-26 17:21:30 +0000";
layers = (
{
layerId = "6463F33F-C059-4755-9C76-9F35D70521A0";
name = "Regular Condensed";
paths = (
{
closed = 1;
nodes = (
"24 890 LINE",
"72 800 LINE",
"136 800 LINE",
"104 890 LINE"
);
},
{
closed = 1;
nodes = (
"15 0 LINE",
"181 0 LINE",
"181 111 LINE",
"98 111 LINE",
"98 313 LINE",
"158 313 LINE",
"158 431 LINE",
"98 431 LINE",
"98 624 LINE",
"181 624 LINE",
"181 735 LINE",
"15 735 LINE"
);
}
);
width = 214;
}
);
rightKerningGroup = E;
unicode = 00C8;
},
{
glyphname = Emacron;
lastChange = "2012-08-26 17:21:30 +0000";
layers = (
{
layerId = "6463F33F-C059-4755-9C76-9F35D70521A0";
name = "Regular Condensed";
paths = (
{
closed = 1;
nodes = (
"26 830 LINE",
"160 830 LINE",
"160 909 LINE",
"26 909 LINE"
);
},
{
closed = 1;
nodes = (
"15 0 LINE",
"181 0 LINE",
"181 111 LINE",
"98 111 LINE",
"98 313 LINE",
"158 313 LINE",
"158 431 LINE",
"98 431 LINE",
"98 624 LINE",
"181 624 LINE",
"181 735 LINE",
"15 735 LINE"
);
}
);
width = 214;
}
);
unicode = 0112;
},
{
glyphname = Eogonek;
lastChange = "2012-08-26 17:21:30 +0000";
layers = (
{
layerId = "6463F33F-C059-4755-9C76-9F35D70521A0";
name = "Regular Condensed";
paths = (
{
closed = 1;
nodes = (
"181 0 LINE",
"181 111 LINE",
"98 111 LINE",
"98 313 LINE",
"158 313 LINE",
"158 431 LINE",
"98 431 LINE",
"98 624 LINE",
"181 624 LINE",
"181 735 LINE",
"15 735 LINE",
"15 0 LINE",
"110 0 LINE",
"101 -11 OFFCURVE",
"94 -22 OFFCURVE",
"90 -28 CURVE",
"90 -29 OFFCURVE",
"89 -30 OFFCURVE",
"88 -31 CURVE",
"78 -50 OFFCURVE",
"67 -80 OFFCURVE",
"67 -103 CURVE SMOOTH",
"67 -148 OFFCURVE",
"92 -188 OFFCURVE",
"137 -188 CURVE SMOOTH",
"151 -188 OFFCURVE",
"161 -185 OFFCURVE",
"177 -176 CURVE",
"182 -101 LINE",
"167 -112 OFFCURVE",
"153 -121 OFFCURVE",
"148 -121 CURVE SMOOTH",
"138 -121 OFFCURVE",
"127 -112 OFFCURVE",
"127 -83 CURVE SMOOTH",
"127 -71 OFFCURVE",
"128 -60 OFFCURVE",
"131 -50 CURVE SMOOTH",
"137 -28 OFFCURVE",
"144 -11 OFFCURVE",
"152 0 CURVE"
);
}
);
width = 214;
}
);
unicode = 0118;
},
{
glyphname = F;
lastChange = "2012-08-26 17:21:30 +0000";
layers = (
{
layerId = "6463F33F-C059-4755-9C76-9F35D70521A0";
name = "Regular Condensed";
paths = (
{
closed = 1;
nodes = (
"187 735 LINE",
"15 735 LINE",
"15 0 LINE",
"98 0 LINE",
"98 320 LINE",
"158 320 LINE",
"158 431 LINE",
"98 431 LINE",
"98 624 LINE",
"187 624 LINE"
);
}
);
width = 211;
}
);
unicode = 0046;
},
{
glyphname = G;
lastChange = "2012-08-26 17:21:30 +0000";
layers = (
{
anchors = (
{
name = bottom;
position = "{123, 0}";
},
{
name = top;
position = "{123, 735}";
}
);
layerId = "6463F33F-C059-4755-9C76-9F35D70521A0";
name = "Regular Condensed";
paths = (
{
closed = 1;
nodes = (
"207 471 LINE",
"207 594 LINE SMOOTH",
"207 653 OFFCURVE",
"188 743 OFFCURVE",
"108 743 CURVE SMOOTH",
"33 743 OFFCURVE",
"9 660 OFFCURVE",
"9 594 CURVE SMOOTH",
"9 141 LINE SMOOTH",
"9 89 OFFCURVE",
"26 -8 OFFCURVE",
"100 -8 CURVE SMOOTH",
"118 -8 OFFCURVE",
"146 9 OFFCURVE",
"155 27 CURVE",
"164 0 LINE",
"207 0 LINE",
"207 366 LINE",
"112 366 LINE",
"112 275 LINE",
"130 275 LINE",
"130 132 LINE SMOOTH",
"130 114 OFFCURVE",
"128 88 OFFCURVE",
"110 88 CURVE SMOOTH",
"98 88 OFFCURVE",
"93 109 OFFCURVE",
"93 132 CURVE SMOOTH",
"93 594 LINE SMOOTH",
"93 612 OFFCURVE",
"97 638 OFFCURVE",
"108 638 CURVE SMOOTH",
"122 638 OFFCURVE",
"124 609 OFFCURVE",
"124 594 CURVE SMOOTH",
"124 471 LINE"
);
}
);
width = 246;
}
);
unicode = 0047;
},
{
glyphname = Gbreve;
lastChange = "2012-08-26 17:21:30 +0000";
layers = (
{
layerId = "6463F33F-C059-4755-9C76-9F35D70521A0";
name = "Regular Condensed";
paths = (
{
closed = 1;
nodes = (
"207 471 LINE",
"207 594 LINE SMOOTH",
"207 653 OFFCURVE",
"188 743 OFFCURVE",
"108 743 CURVE SMOOTH",
"33 743 OFFCURVE",
"9 660 OFFCURVE",
"9 594 CURVE SMOOTH",
"9 141 LINE SMOOTH",
"9 89 OFFCURVE",
"26 -8 OFFCURVE",
"100 -8 CURVE SMOOTH",
"118 -8 OFFCURVE",
"146 9 OFFCURVE",
"155 27 CURVE",
"164 0 LINE",
"207 0 LINE",
"207 366 LINE",
"112 366 LINE",
"112 275 LINE",
"130 275 LINE",
"130 132 LINE SMOOTH",
"130 114 OFFCURVE",
"128 88 OFFCURVE",
"110 88 CURVE SMOOTH",
"98 88 OFFCURVE",
"93 109 OFFCURVE",
"93 132 CURVE SMOOTH",
"93 594 LINE SMOOTH",
"93 612 OFFCURVE",
"97 638 OFFCURVE",
"108 638 CURVE SMOOTH",
"122 638 OFFCURVE",
"124 609 OFFCURVE",
"124 594 CURVE SMOOTH",
"124 471 LINE"
);
},
{
closed = 1;
nodes = (
"144 927 LINE",
"144 927 OFFCURVE",
"125 896 OFFCURVE",
"109 896 CURVE SMOOTH",
"91 896 OFFCURVE",
"76 928 OFFCURVE",
"76 928 CURVE",
"35 871 LINE",
"48 845 OFFCURVE",
"78 823 OFFCURVE",
"109 823 CURVE SMOOTH",
"140 823 OFFCURVE",
"165 843 OFFCURVE",
"183 871 CURVE"
);
}
);
width = 246;
}
);
unicode = 011E;
},
{
glyphname = Gcircumflex;
lastChange = "2012-08-26 17:21:30 +0000";
layers = (
{
layerId = "6463F33F-C059-4755-9C76-9F35D70521A0";
name = "Regular Condensed";
paths = (
{
closed = 1;
nodes = (
"207 471 LINE",
"207 594 LINE SMOOTH",
"207 653 OFFCURVE",
"188 743 OFFCURVE",
"108 743 CURVE SMOOTH",
"33 743 OFFCURVE",
"9 660 OFFCURVE",
"9 594 CURVE SMOOTH",
"9 141 LINE SMOOTH",
"9 89 OFFCURVE",
"26 -8 OFFCURVE",
"100 -8 CURVE SMOOTH",
"118 -8 OFFCURVE",
"146 9 OFFCURVE",
"155 27 CURVE",
"164 0 LINE",
"207 0 LINE",
"207 366 LINE",
"112 366 LINE",
"112 275 LINE",
"130 275 LINE",
"130 132 LINE SMOOTH",
"130 114 OFFCURVE",
"128 88 OFFCURVE",
"110 88 CURVE SMOOTH",
"98 88 OFFCURVE",
"93 109 OFFCURVE",
"93 132 CURVE SMOOTH",
"93 594 LINE SMOOTH",
"93 612 OFFCURVE",
"97 638 OFFCURVE",
"108 638 CURVE SMOOTH",
"122 638 OFFCURVE",
"124 609 OFFCURVE",
"124 594 CURVE SMOOTH",
"124 471 LINE"
);
},
{
closed = 1;
nodes = (
"67 890 LINE",
"25 800 LINE",
"90 800 LINE",
"107 839 LINE",
"124 800 LINE",
"189 800 LINE",
"148 890 LINE"
);
}
);
width = 246;
}
);
unicode = 011C;
},
{
glyphname = Gcommaaccent;
lastChange = "2012-08-26 17:21:30 +0000";
layers = (
{
layerId = "6463F33F-C059-4755-9C76-9F35D70521A0";
name = "Regular Condensed";
paths = (
{
closed = 1;
nodes = (
"138 -54 LINE",
"70 -54 LINE",
"70 -123 LINE",
"92 -123 LINE",
"76 -188 LINE",
"125 -188 LINE",
"138 -123 LINE"
);
},
{
closed = 1;
nodes = (
"207 471 LINE",
"207 594 LINE SMOOTH",
"207 653 OFFCURVE",
"188 743 OFFCURVE",
"108 743 CURVE SMOOTH",
"33 743 OFFCURVE",
"9 660 OFFCURVE",
"9 594 CURVE SMOOTH",
"9 141 LINE SMOOTH",
"9 89 OFFCURVE",
"26 -8 OFFCURVE",
"100 -8 CURVE SMOOTH",
"118 -8 OFFCURVE",
"146 9 OFFCURVE",
"155 27 CURVE",
"164 0 LINE",
"207 0 LINE",
"207 366 LINE",
"112 366 LINE",
"112 275 LINE",
"130 275 LINE",
"130 132 LINE SMOOTH",
"130 114 OFFCURVE",
"128 88 OFFCURVE",
"110 88 CURVE SMOOTH",
"98 88 OFFCURVE",
"93 109 OFFCURVE",
"93 132 CURVE SMOOTH",
"93 594 LINE SMOOTH",
"93 612 OFFCURVE",
"97 638 OFFCURVE",
"108 638 CURVE SMOOTH",
"122 638 OFFCURVE",
"124 609 OFFCURVE",
"124 594 CURVE SMOOTH",
"124 471 LINE"
);
}
);
width = 246;
}
);
unicode = 0122;
},
{
glyphname = Gdotaccent;
lastChange = "2012-08-26 17:21:30 +0000";
layers = (
{
layerId = "6463F33F-C059-4755-9C76-9F35D70521A0";
name = "Regular Condensed";
paths = (
{
closed = 1;
nodes = (
"70 822 LINE",
"148 822 LINE",
"148 923 LINE",
"70 923 LINE"
);
},
{
closed = 1;
nodes = (
"207 471 LINE",
"207 594 LINE SMOOTH",
"207 653 OFFCURVE",
"188 743 OFFCURVE",
"108 743 CURVE SMOOTH",
"33 743 OFFCURVE",
"9 660 OFFCURVE",
"9 594 CURVE SMOOTH",
"9 141 LINE SMOOTH",
"9 89 OFFCURVE",
"26 -8 OFFCURVE",
"100 -8 CURVE SMOOTH",
"118 -8 OFFCURVE",
"146 9 OFFCURVE",
"155 27 CURVE",
"164 0 LINE",
"207 0 LINE",
"207 366 LINE",
"112 366 LINE",
"112 275 LINE",
"130 275 LINE",
"130 132 LINE SMOOTH",
"130 114 OFFCURVE",
"128 88 OFFCURVE",
"110 88 CURVE SMOOTH",
"98 88 OFFCURVE",
"93 109 OFFCURVE",
"93 132 CURVE SMOOTH",
"93 594 LINE SMOOTH",
"93 612 OFFCURVE",
"97 638 OFFCURVE",
"108 638 CURVE SMOOTH",
"122 638 OFFCURVE",
"124 609 OFFCURVE",
"124 594 CURVE SMOOTH",
"124 471 LINE"
);
}
);
width = 246;
}
);
unicode = 0120;
},
{
glyphname = H;
lastChange = "2012-08-26 17:21:30 +0000";
layers = (
{
anchors = (
{
name = center;
position = "{129, 368}";
},
{
name = top;
position = "{129, 735}";
}
);
layerId = "6463F33F-C059-4755-9C76-9F35D70521A0";
name = "Regular Condensed";
paths = (
{
closed = 1;
nodes = (
"130 0 LINE",
"213 0 LINE",
"213 735 LINE",
"130 735 LINE",
"130 431 LINE",
"98 431 LINE",
"98 735 LINE",
"15 735 LINE",
"15 0 LINE",
"98 0 LINE",
"98 320 LINE",
"130 320 LINE"
);
}
);
width = 258;
}
);
unicode = 0048;
},
{
glyphname = Hbar;
lastChange = "2012-08-26 17:21:30 +0000";
layers = (
{
layerId = "6463F33F-C059-4755-9C76-9F35D70521A0";
name = "Regular Condensed";
paths = (
{
closed = 1;
nodes = (
"237 627 LINE",
"213 627 LINE",
"213 735 LINE",
"130 735 LINE",
"130 627 LINE",
"98 627 LINE",
"98 735 LINE",
"15 735 LINE",
"15 627 LINE",
"-8 627 LINE",
"-8 548 LINE",
"15 548 LINE",
"15 0 LINE",
"98 0 LINE",
"98 320 LINE",
"130 320 LINE",
"130 0 LINE",
"213 0 LINE",
"213 548 LINE",
"237 548 LINE"
);
},
{
closed = 1;
nodes = (
"130 431 LINE",
"98 431 LINE",
"98 548 LINE",
"130 548 LINE"
);
}
);
width = 258;
}
);
unicode = 0126;
},
{
glyphname = Hcircumflex;
lastChange = "2012-08-26 17:21:30 +0000";
layers = (
{
layerId = "6463F33F-C059-4755-9C76-9F35D70521A0";
name = "Regular Condensed";
paths = (
{
closed = 1;
nodes = (
"130 0 LINE",
"213 0 LINE",
"213 735 LINE",
"130 735 LINE",
"130 431 LINE",
"98 431 LINE",
"98 735 LINE",
"15 735 LINE",
"15 0 LINE",
"98 0 LINE",
"98 320 LINE",
"130 320 LINE"
);
},
{
closed = 1;
nodes = (
"75 890 LINE",
"33 800 LINE",
"98 800 LINE",
"115 839 LINE",
"132 800 LINE",
"197 800 LINE",
"156 890 LINE"
);
}
);
width = 258;
}
);
unicode = 0124;
},
{
glyphname = I;
lastChange = "2012-08-26 17:21:30 +0000";
layers = (
{
anchors = (
{
name = ogonek;
position = "{129, 10}";
},
{
name = top;
position = "{72, 735}";
}
);
layerId = "6463F33F-C059-4755-9C76-9F35D70521A0";
name = "Regular Condensed";
paths = (
{
closed = 1;
nodes = (
"15 0 LINE",
"98 0 LINE",
"98 735 LINE",
"15 735 LINE"
);
}
);
width = 143;
}
);
leftKerningGroup = I;
rightKerningGroup = I;
unicode = 0049;
},
{
glyphname = IJ;
lastChange = "2012-08-26 17:21:30 +0000";
layers = (
{
layerId = "6463F33F-C059-4755-9C76-9F35D70521A0";
name = "Regular Condensed";
paths = (
{
closed = 1;
nodes = (
"15 0 LINE",
"98 0 LINE",
"98 735 LINE",
"15 735 LINE"
);
},
{
closed = 1;
nodes = (
"116 -6 LINE",
"210 -15 OFFCURVE",
"236 51 OFFCURVE",
"236 136 CURVE SMOOTH",
"236 735 LINE",
"153 735 LINE",
"153 153 LINE SMOOTH",
"153 133 OFFCURVE",
"149 95 OFFCURVE",
"116 102 CURVE"
);
}
);
width = 267;
}
);
unicode = 0132;
},
{
glyphname = Iacute;
lastChange = "2012-08-26 17:21:30 +0000";
layers = (
{
layerId = "6463F33F-C059-4755-9C76-9F35D70521A0";
name = "Regular Condensed";
paths = (
{
closed = 1;
nodes = (
"47 890 LINE",
"16 800 LINE",
"80 800 LINE",
"127 890 LINE"
);
},
{
closed = 1;
nodes = (
"15 0 LINE",
"98 0 LINE",
"98 735 LINE",
"15 735 LINE"
);
}
);
width = 148;
}
);
leftKerningGroup = I;
rightKerningGroup = I;
unicode = 00CD;
},
{
glyphname = Ibreve;
lastChange = "2012-08-26 17:21:30 +0000";
layers = (
{
layerId = "6463F33F-C059-4755-9C76-9F35D70521A0";
name = "Regular Condensed";
paths = (
{
closed = 1;
nodes = (
"15 0 LINE",
"98 0 LINE",
"98 735 LINE",
"15 735 LINE"
);
},
{
closed = 1;
nodes = (
"92 928 LINE",
"92 928 OFFCURVE",
"73 897 OFFCURVE",
"57 897 CURVE SMOOTH",
"39 897 OFFCURVE",
"24 929 OFFCURVE",
"24 929 CURVE",
"-17 872 LINE",
"-4 846 OFFCURVE",
"26 824 OFFCURVE",
"57 824 CURVE SMOOTH",
"88 824 OFFCURVE",
"113 844 OFFCURVE",
"131 872 CURVE"
);
}
);
width = 143;
}
);
unicode = 012C;
},
{
glyphname = Icircumflex;
lastChange = "2012-08-26 17:21:30 +0000";
layers = (
{
layerId = "6463F33F-C059-4755-9C76-9F35D70521A0";
name = "Regular Condensed";
paths = (
{
closed = 1;
nodes = (
"13 0 LINE",
"95 0 LINE",
"95 735 LINE",
"13 735 LINE"
);
},
{
closed = 1;
nodes = (
"13 890 LINE",
"-29 800 LINE",
"36 800 LINE",
"53 839 LINE",
"70 800 LINE",
"135 800 LINE",
"94 890 LINE"
);
}
);
width = 139;
}
);
leftKerningGroup = Icircumflex;
rightKerningGroup = Icircumflex;
unicode = 00CE;
},
{
glyphname = Idieresis;
lastChange = "2012-08-26 17:21:30 +0000";
layers = (
{
layerId = "6463F33F-C059-4755-9C76-9F35D70521A0";
name = "Regular Condensed";
paths = (
{
closed = 1;
nodes = (
"13 0 LINE",
"96 0 LINE",
"96 735 LINE",
"13 735 LINE"
);
},
{
closed = 1;
nodes = (
"-29 800 LINE",
"45 800 LINE",
"45 898 LINE",
"-29 898 LINE"
);
},
{
closed = 1;
nodes = (
"68 800 LINE",
"141 800 LINE",
"141 898 LINE",
"68 898 LINE"
);
}
);
width = 139;
}
);
leftKerningGroup = Icircumflex;
rightKerningGroup = Icircumflex;
unicode = 00CF;
},
{
glyphname = Idotaccent;
lastChange = "2012-08-26 17:21:30 +0000";
layers = (
{
layerId = "6463F33F-C059-4755-9C76-9F35D70521A0";
name = "Regular Condensed";
paths = (
{
closed = 1;
nodes = (
"18 822 LINE",
"97 822 LINE",
"97 923 LINE",
"18 923 LINE"
);
},
{
closed = 1;
nodes = (
"15 0 LINE",
"98 0 LINE",
"98 735 LINE",
"15 735 LINE"
);
}
);
width = 143;
}
);
unicode = 0130;
},
{
glyphname = Igrave;
lastChange = "2012-08-26 17:21:30 +0000";
layers = (
{
layerId = "6463F33F-C059-4755-9C76-9F35D70521A0";
name = "Regular Condensed";
paths = (
{
closed = 1;
nodes = (
"-10 890 LINE",
"38 800 LINE",
"101 800 LINE",
"70 890 LINE"
);
},
{
closed = 1;
nodes = (
"20 0 LINE",
"103 0 LINE",
"103 735 LINE",
"20 735 LINE"
);
}
);
width = 148;
}
);
leftKerningGroup = I;
rightKerningGroup = I;
unicode = 00CC;
},
{
glyphname = Imacron;
lastChange = "2012-08-26 17:21:30 +0000";
layers = (
{
layerId = "6463F33F-C059-4755-9C76-9F35D70521A0";
name = "Regular Condensed";
paths = (
{
closed = 1;
nodes = (
"-10 830 LINE",
"124 830 LINE",
"124 909 LINE",
"-10 909 LINE"
);
},
{
closed = 1;
nodes = (
"15 0 LINE",
"98 0 LINE",
"98 735 LINE",
"15 735 LINE"
);
}
);
width = 143;
}
);
unicode = 012A;
},
{
glyphname = Iogonek;
lastChange = "2012-08-26 17:21:30 +0000";
layers = (
{
layerId = "6463F33F-C059-4755-9C76-9F35D70521A0";
name = "Regular Condensed";
paths = (
{
closed = 1;
nodes = (
"98 0 LINE",
"98 735 LINE",
"15 735 LINE",
"15 0 LINE",
"25 0 LINE",
"17 -11 OFFCURVE",
"11 -21 OFFCURVE",
"7 -28 CURVE",
"7 -29 OFFCURVE",
"6 -30 OFFCURVE",
"5 -31 CURVE",
"-5 -50 OFFCURVE",
"-16 -79 OFFCURVE",
"-16 -103 CURVE SMOOTH",
"-16 -148 OFFCURVE",
"9 -188 OFFCURVE",
"54 -188 CURVE SMOOTH",
"67 -188 OFFCURVE",
"78 -185 OFFCURVE",
"94 -176 CURVE",
"98 -101 LINE",
"83 -112 OFFCURVE",
"69 -121 OFFCURVE",
"64 -121 CURVE SMOOTH",
"54 -121 OFFCURVE",
"43 -112 OFFCURVE",
"43 -83 CURVE SMOOTH",
"43 -71 OFFCURVE",
"44 -60 OFFCURVE",
"47 -50 CURVE SMOOTH",
"53 -30 OFFCURVE",
"61 -13 OFFCURVE",
"69 0 CURVE"
);
}
);
width = 143;
}
);
unicode = 012E;
},
{
glyphname = Itilde;
lastChange = "2012-08-26 17:21:30 +0000";
layers = (
{
layerId = "6463F33F-C059-4755-9C76-9F35D70521A0";
name = "Regular Condensed";
paths = (
{
closed = 1;
nodes = (
"15 0 LINE",
"98 0 LINE",
"98 735 LINE",
"15 735 LINE"
);
},
{
closed = 1;
nodes = (
"-10 810 LINE",
"-5 817 OFFCURVE",
"18 840 OFFCURVE",
"30 840 CURVE SMOOTH",
"50 840 OFFCURVE",
"61 821 OFFCURVE",
"84 821 CURVE SMOOTH",
"102 821 OFFCURVE",
"116 833 OFFCURVE",
"124 846 CURVE",
"124 929 LINE",
"118 919 OFFCURVE",
"97 900 OFFCURVE",
"84 900 CURVE SMOOTH",
"65 900 OFFCURVE",
"54 917 OFFCURVE",
"31 917 CURVE SMOOTH",
"16 917 OFFCURVE",
"-1 909 OFFCURVE",
"-10 896 CURVE"
);
}
);
width = 143;
}
);
unicode = 0128;
},
{
glyphname = J;
lastChange = "2012-08-26 17:21:30 +0000";
layers = (
{
anchors = (
{
name = top;
position = "{77, 735}";
}
);
layerId = "6463F33F-C059-4755-9C76-9F35D70521A0";
name = "Regular Condensed";
paths = (
{
closed = 1;
nodes = (
"-4 -6 LINE",
"90 -15 OFFCURVE",
"116 51 OFFCURVE",
"116 136 CURVE SMOOTH",
"116 735 LINE",
"33 735 LINE",
"33 153 LINE SMOOTH",
"33 133 OFFCURVE",
"29 95 OFFCURVE",
"-4 102 CURVE"
);
}
);
width = 154;
}
);
unicode = 004A;
},
{
glyphname = Jcircumflex;
lastChange = "2012-08-26 17:21:30 +0000";
layers = (
{
layerId = "6463F33F-C059-4755-9C76-9F35D70521A0";
name = "Regular Condensed";
paths = (
{
closed = 1;
nodes = (
"28 890 LINE",
"-14 800 LINE",
"51 800 LINE",
"68 839 LINE",
"85 800 LINE",
"150 800 LINE",
"109 890 LINE"
);
},
{
closed = 1;
nodes = (
"-7 -6 LINE",
"87 -15 OFFCURVE",
"113 51 OFFCURVE",
"113 136 CURVE SMOOTH",
"113 735 LINE",
"30 735 LINE",
"30 153 LINE SMOOTH",
"30 133 OFFCURVE",
"26 95 OFFCURVE",
"-7 102 CURVE"
);
}
);
width = 154;
}
);
unicode = 0134;
},
{
glyphname = K;
lastChange = "2012-08-26 17:21:30 +0000";
layers = (
{
anchors = (
{
name = bottom;
position = "{128, 0}";
},
{
name = top;
position = "{128, 735}";
}
);
layerId = "6463F33F-C059-4755-9C76-9F35D70521A0";
name = "Regular Condensed";
paths = (
{
closed = 1;
nodes = (
"15 735 LINE",
"15 0 LINE",
"95 0 LINE",
"95 350 LINE",
"147 0 LINE",
"228 0 LINE",
"157 466 LINE",
"230 735 LINE",
"149 735 LINE",
"95 524 LINE",
"95 735 LINE"
);
}
);
width = 255;
}
);
unicode = 004B;
},
{
glyphname = Kcommaaccent;
lastChange = "2012-08-26 17:21:30 +0000";
layers = (
{
layerId = "6463F33F-C059-4755-9C76-9F35D70521A0";
name = "Regular Condensed";
paths = (
{
closed = 1;
nodes = (
"138 -54 LINE",
"70 -54 LINE",
"70 -123 LINE",
"88 -123 LINE",
"76 -188 LINE",
"125 -188 LINE",
"138 -123 LINE"
);
},
{
closed = 1;
nodes = (
"15 735 LINE",
"15 0 LINE",
"95 0 LINE",
"95 350 LINE",
"147 0 LINE",
"228 0 LINE",
"157 466 LINE",
"230 735 LINE",
"149 735 LINE",
"95 524 LINE",
"95 735 LINE"
);
}
);
width = 255;
}
);
unicode = 0136;
},
{
glyphname = L;
lastChange = "2012-08-26 17:21:30 +0000";
layers = (
{
anchors = (
{
name = bottom;
position = "{104, 0}";
},
{
name = top;
position = "{104, 735}";
}
);
layerId = "6463F33F-C059-4755-9C76-9F35D70521A0";
name = "Regular Condensed";
paths = (
{
closed = 1;
nodes = (
"15 0 LINE",
"184 0 LINE",
"184 100 LINE",
"98 100 LINE",
"98 735 LINE",
"15 735 LINE"
);
}
);
width = 207;
}
);
unicode = 004C;
},
{
glyphname = Lacute;
lastChange = "2012-08-26 17:21:30 +0000";
layers = (
{
layerId = "6463F33F-C059-4755-9C76-9F35D70521A0";
name = "Regular Condensed";
paths = (
{
closed = 1;
nodes = (
"64 915 LINE",
"33 825 LINE",
"97 825 LINE",
"144 915 LINE"
);
},
{
closed = 1;
nodes = (
"15 0 LINE",
"184 0 LINE",
"184 100 LINE",
"98 100 LINE",
"98 735 LINE",
"15 735 LINE"
);
}
);
width = 207;
}
);
unicode = 0139;
},
{
glyphname = Lcaron;
lastChange = "2012-08-26 17:21:30 +0000";
layers = (
{
layerId = "6463F33F-C059-4755-9C76-9F35D70521A0";
name = "Regular Condensed";
paths = (
{
closed = 1;
nodes = (
"212 848 LINE",
"131 848 LINE",
"131 737 LINE",
"152 737 LINE",
"131 607 LINE",
"179 607 LINE",
"212 737 LINE"
);
},
{
closed = 1;
nodes = (
"15 0 LINE",
"184 0 LINE",
"184 100 LINE",
"98 100 LINE",
"98 735 LINE",
"15 735 LINE"
);
}
);
width = 237;
}
);
unicode = 013D;
},
{
glyphname = Lcommaaccent;
lastChange = "2012-08-26 17:21:30 +0000";
layers = (
{
layerId = "6463F33F-C059-4755-9C76-9F35D70521A0";
name = "Regular Condensed";
paths = (
{
closed = 1;
nodes = (
"15 0 LINE",
"184 0 LINE",
"184 100 LINE",
"98 100 LINE",
"98 735 LINE",
"15 735 LINE"
);
},
{
closed = 1;
nodes = (
"138 -54 LINE",
"70 -54 LINE",
"70 -123 LINE",
"88 -123 LINE",
"76 -188 LINE",
"125 -188 LINE",
"138 -123 LINE"
);
}
);
width = 207;
}
);
unicode = 013B;
},
{
glyphname = Ldot;
lastChange = "2012-08-26 17:21:30 +0000";
layers = (
{
layerId = "6463F33F-C059-4755-9C76-9F35D70521A0";
name = "Regular Condensed";
paths = (
{
closed = 1;
nodes = (
"15 0 LINE",
"184 0 LINE",
"184 100 LINE",
"98 100 LINE",
"98 735 LINE",
"15 735 LINE"
);
},
{
closed = 1;
nodes = (
"123 329 LINE",
"204 329 LINE",
"204 440 LINE",
"123 440 LINE"
);
}
);
width = 223;
}
);
unicode = 013F;
},
{
glyphname = Lslash;
lastChange = "2012-08-26 17:21:30 +0000";
layers = (
{
layerId = "6463F33F-C059-4755-9C76-9F35D70521A0";
name = "Regular Condensed";
paths = (
{
closed = 1;
nodes = (
"-1 250 LINE",
"-1 250 OFFCURVE",
"21 282 OFFCURVE",
"22 283 CURVE",
"22 0 LINE",
"191 0 LINE",
"191 100 LINE",
"105 100 LINE",
"105 383 LINE",
"104 383 LINE",
"140 431 LINE",
"140 559 LINE",
"105 513 LINE",
"105 735 LINE",
"22 735 LINE",
"22 412 LINE",
"23 412 LINE",
"-1 382 LINE"
);
}
);
width = 214;
}
);
unicode = 0141;
},
{
glyphname = M;
lastChange = "2012-08-26 17:21:30 +0000";
layers = (
{
layerId = "6463F33F-C059-4755-9C76-9F35D70521A0";
name = "Regular Condensed";
paths = (
{
closed = 1;
nodes = (
"168 0 LINE",
"196 362 LINE",
"198 0 LINE",
"275 0 LINE",
"275 735 LINE",
"183 735 LINE",
"145 388 LINE",
"107 735 LINE",
"15 735 LINE",
"15 0 LINE",
"92 0 LINE",
"92 362 LINE",
"123 0 LINE"
);
}
);
width = 320;
}
);
unicode = 004D;
},
{
glyphname = N;
lastChange = "2012-08-26 17:21:30 +0000";
layers = (
{
anchors = (
{
name = bottom;
position = "{134, 0}";
},
{
name = top;
position = "{134, 735}";
}
);
layerId = "6463F33F-C059-4755-9C76-9F35D70521A0";
name = "Regular Condensed";
paths = (
{
closed = 1;
nodes = (
"152 0 LINE",
"222 0 LINE",
"222 735 LINE",
"145 735 LINE",
"145 388 LINE",
"85 735 LINE",
"15 735 LINE",
"15 0 LINE",
"92 0 LINE",
"92 357 LINE"
);
}
);
width = 267;
}
);
unicode = 004E;
},
{
glyphname = Nacute;
lastChange = "2012-08-26 17:21:30 +0000";
layers = (
{
layerId = "6463F33F-C059-4755-9C76-9F35D70521A0";
name = "Regular Condensed";
paths = (
{
closed = 1;
nodes = (
"94 915 LINE",
"63 825 LINE",
"127 825 LINE",
"174 915 LINE"
);
},
{
closed = 1;
nodes = (
"152 0 LINE",
"222 0 LINE",
"222 735 LINE",
"145 735 LINE",
"145 388 LINE",
"85 735 LINE",
"15 735 LINE",
"15 0 LINE",
"92 0 LINE",
"92 357 LINE"
);
}
);
width = 267;
}
);
unicode = 0143;
},
{
glyphname = Ncaron;
lastChange = "2012-08-26 17:21:30 +0000";
layers = (
{
layerId = "6463F33F-C059-4755-9C76-9F35D70521A0";
name = "Regular Condensed";
paths = (
{
closed = 1;
nodes = (
"152 0 LINE",
"222 0 LINE",
"222 735 LINE",
"145 735 LINE",
"145 388 LINE",
"85 735 LINE",
"15 735 LINE",
"15 0 LINE",
"92 0 LINE",
"92 357 LINE"
);
},
{
closed = 1;
nodes = (
"160 825 LINE",
"201 915 LINE",
"136 915 LINE",
"119 876 LINE",
"102 915 LINE",
"37 915 LINE",
"79 825 LINE"
);
}
);
width = 267;
}
);
unicode = 0147;
},
{
glyphname = Ncommaaccent;
lastChange = "2012-08-26 17:21:30 +0000";
layers = (
{
layerId = "6463F33F-C059-4755-9C76-9F35D70521A0";
name = "Regular Condensed";
paths = (
{
closed = 1;
nodes = (
"138 -54 LINE",
"70 -54 LINE",
"70 -123 LINE",
"88 -123 LINE",
"76 -188 LINE",
"125 -188 LINE",
"138 -123 LINE"
);
},
{
closed = 1;
nodes = (
"152 0 LINE",
"222 0 LINE",
"222 735 LINE",
"145 735 LINE",
"145 388 LINE",
"85 735 LINE",
"15 735 LINE",
"15 0 LINE",
"92 0 LINE",
"92 357 LINE"
);
}
);
width = 267;
}
);
unicode = 0145;
},
{
glyphname = Eng;
lastChange = "2012-08-26 17:21:30 +0000";
layers = (
{
layerId = "6463F33F-C059-4755-9C76-9F35D70521A0";
name = "Regular Condensed";
paths = (
{
closed = 1;
nodes = (
"145 735 LINE",
"145 386 LINE",
"86 735 LINE",
"15 735 LINE",
"15 0 LINE",
"92 0 LINE",
"92 352 LINE",
"146 0 LINE",
"141 -12 OFFCURVE",
"133 -20 OFFCURVE",
"121 -16 CURVE",
"121 -120 LINE",
"164 -126 OFFCURVE",
"191 -110 OFFCURVE",
"204 -84 CURVE SMOOTH",
"215 -61 OFFCURVE",
"221 -31 OFFCURVE",
"222 0 CURVE SMOOTH",
"222 735 LINE"
);
}
);
width = 267;
}
);
unicode = 014A;
},
{
glyphname = Ntilde;
lastChange = "2012-08-26 17:21:30 +0000";
layers = (
{
layerId = "6463F33F-C059-4755-9C76-9F35D70521A0";
name = "Regular Condensed";
paths = (
{
closed = 1;
nodes = (
"152 0 LINE",
"222 0 LINE",
"222 735 LINE",
"145 735 LINE",
"145 388 LINE",
"85 735 LINE",
"15 735 LINE",
"15 0 LINE",
"92 0 LINE",
"92 357 LINE"
);
},
{
closed = 1;
nodes = (
"51 783 LINE",
"56 790 OFFCURVE",
"79 813 OFFCURVE",
"91 813 CURVE SMOOTH",
"111 813 OFFCURVE",
"122 794 OFFCURVE",
"145 794 CURVE SMOOTH",
"163 794 OFFCURVE",
"177 806 OFFCURVE",
"185 819 CURVE",
"185 902 LINE",
"179 892 OFFCURVE",
"158 873 OFFCURVE",
"145 873 CURVE SMOOTH",
"126 873 OFFCURVE",
"115 890 OFFCURVE",
"92 890 CURVE SMOOTH",
"77 890 OFFCURVE",
"60 882 OFFCURVE",
"51 869 CURVE"
);
}
);
width = 267;
}
);
unicode = 00D1;
},
{
glyphname = O;
lastChange = "2012-08-26 17:21:30 +0000";
layers = (
{
anchors = (
{
name = top;
position = "{121, 735}";
}
);
layerId = "6463F33F-C059-4755-9C76-9F35D70521A0";
name = "Regular Condensed";
paths = (
{
closed = 1;
nodes = (
"210 594 LINE SMOOTH",
"210 654 OFFCURVE",
"190 743 OFFCURVE",
"110 743 CURVE SMOOTH",
"35 743 OFFCURVE",
"9 670 OFFCURVE",
"9 594 CURVE SMOOTH",
"9 141 LINE SMOOTH",
"9 71 OFFCURVE",
"32 -8 OFFCURVE",
"110 -8 CURVE SMOOTH",
"186 -8 OFFCURVE",
"210 65 OFFCURVE",
"210 141 CURVE SMOOTH"
);
},
{
closed = 1;
nodes = (
"127 141 LINE SMOOTH",
"127 118 OFFCURVE",
"121 97 OFFCURVE",
"111 97 CURVE SMOOTH",
"102 97 OFFCURVE",
"94 114 OFFCURVE",
"94 141 CURVE SMOOTH",
"94 594 LINE SMOOTH",
"94 618 OFFCURVE",
"100 638 OFFCURVE",
"111 638 CURVE SMOOTH",
"122 638 OFFCURVE",
"127 617 OFFCURVE",
"127 594 CURVE SMOOTH"
);
}
);
width = 242;
}
);
unicode = 004F;
},
{
glyphname = Oacute;
lastChange = "2012-08-26 17:21:30 +0000";
layers = (
{
layerId = "6463F33F-C059-4755-9C76-9F35D70521A0";
name = "Regular Condensed";
paths = (
{
closed = 1;
nodes = (
"106 890 LINE",
"74 800 LINE",
"138 800 LINE",
"186 890 LINE"
);
},
{
closed = 1;
nodes = (
"210 594 LINE SMOOTH",
"210 654 OFFCURVE",
"190 743 OFFCURVE",
"110 743 CURVE SMOOTH",
"35 743 OFFCURVE",
"9 670 OFFCURVE",
"9 594 CURVE SMOOTH",
"9 141 LINE SMOOTH",
"9 71 OFFCURVE",
"32 -8 OFFCURVE",
"110 -8 CURVE SMOOTH",
"186 -8 OFFCURVE",
"210 65 OFFCURVE",
"210 141 CURVE SMOOTH"
);
},
{
closed = 1;
nodes = (
"127 141 LINE SMOOTH",
"127 118 OFFCURVE",
"121 97 OFFCURVE",
"111 97 CURVE SMOOTH",
"102 97 OFFCURVE",
"94 114 OFFCURVE",
"94 141 CURVE SMOOTH",
"94 594 LINE SMOOTH",
"94 618 OFFCURVE",
"100 638 OFFCURVE",
"111 638 CURVE SMOOTH",
"122 638 OFFCURVE",
"127 617 OFFCURVE",
"127 594 CURVE SMOOTH"
);
}
);
width = 242;
}
);
unicode = 00D3;
},
{
glyphname = Obreve;
lastChange = "2012-08-26 17:21:30 +0000";
layers = (
{
layerId = "6463F33F-C059-4755-9C76-9F35D70521A0";
name = "Regular Condensed";
paths = (
{
closed = 1;
nodes = (
"210 594 LINE SMOOTH",
"210 654 OFFCURVE",
"190 743 OFFCURVE",
"110 743 CURVE SMOOTH",
"35 743 OFFCURVE",
"9 670 OFFCURVE",
"9 594 CURVE SMOOTH",
"9 141 LINE SMOOTH",
"9 71 OFFCURVE",
"32 -8 OFFCURVE",
"110 -8 CURVE SMOOTH",
"186 -8 OFFCURVE",
"210 65 OFFCURVE",
"210 141 CURVE SMOOTH"
);
},
{
closed = 1;
nodes = (
"127 141 LINE SMOOTH",
"127 118 OFFCURVE",
"121 97 OFFCURVE",
"111 97 CURVE SMOOTH",
"102 97 OFFCURVE",
"94 114 OFFCURVE",
"94 141 CURVE SMOOTH",
"94 594 LINE SMOOTH",
"94 618 OFFCURVE",
"100 638 OFFCURVE",
"111 638 CURVE SMOOTH",
"122 638 OFFCURVE",
"127 617 OFFCURVE",
"127 594 CURVE SMOOTH"
);
},
{
closed = 1;
nodes = (
"142 928 LINE",
"142 928 OFFCURVE",
"123 897 OFFCURVE",
"107 897 CURVE SMOOTH",
"89 897 OFFCURVE",
"74 929 OFFCURVE",
"74 929 CURVE",
"33 872 LINE",
"46 846 OFFCURVE",
"76 824 OFFCURVE",
"107 824 CURVE SMOOTH",
"138 824 OFFCURVE",
"163 844 OFFCURVE",
"181 872 CURVE"
);
}
);
width = 242;
}
);
unicode = 014E;
},
{
glyphname = Ocircumflex;
lastChange = "2012-08-26 17:21:30 +0000";
layers = (
{
layerId = "6463F33F-C059-4755-9C76-9F35D70521A0";
name = "Regular Condensed";
paths = (
{
closed = 1;
nodes = (
"210 594 LINE SMOOTH",
"210 654 OFFCURVE",
"190 743 OFFCURVE",
"110 743 CURVE SMOOTH",
"35 743 OFFCURVE",
"9 670 OFFCURVE",
"9 594 CURVE SMOOTH",
"9 141 LINE SMOOTH",
"9 71 OFFCURVE",
"32 -8 OFFCURVE",
"110 -8 CURVE SMOOTH",
"186 -8 OFFCURVE",
"210 65 OFFCURVE",
"210 141 CURVE SMOOTH"
);
},
{
closed = 1;
nodes = (
"127 141 LINE SMOOTH",
"127 118 OFFCURVE",
"121 97 OFFCURVE",
"111 97 CURVE SMOOTH",
"102 97 OFFCURVE",
"94 114 OFFCURVE",
"94 141 CURVE SMOOTH",
"94 594 LINE SMOOTH",
"94 618 OFFCURVE",
"100 638 OFFCURVE",
"111 638 CURVE SMOOTH",
"122 638 OFFCURVE",
"127 617 OFFCURVE",
"127 594 CURVE SMOOTH"
);
},
{
closed = 1;
nodes = (
"69 890 LINE",
"27 800 LINE",
"92 800 LINE",
"109 839 LINE",
"126 800 LINE",
"191 800 LINE",
"150 890 LINE"
);
}
);
width = 242;
}
);
unicode = 00D4;
},
{
glyphname = Odieresis;
lastChange = "2012-08-26 17:21:30 +0000";
layers = (
{
layerId = "6463F33F-C059-4755-9C76-9F35D70521A0";
name = "Regular Condensed";
paths = (
{
closed = 1;
nodes = (
"210 594 LINE SMOOTH",
"210 654 OFFCURVE",
"190 743 OFFCURVE",
"110 743 CURVE SMOOTH",
"35 743 OFFCURVE",
"9 670 OFFCURVE",
"9 594 CURVE SMOOTH",
"9 141 LINE SMOOTH",
"9 71 OFFCURVE",
"32 -8 OFFCURVE",
"110 -8 CURVE SMOOTH",
"186 -8 OFFCURVE",
"210 65 OFFCURVE",
"210 141 CURVE SMOOTH"
);
},
{
closed = 1;
nodes = (
"127 141 LINE SMOOTH",
"127 118 OFFCURVE",
"121 97 OFFCURVE",
"111 97 CURVE SMOOTH",
"102 97 OFFCURVE",
"94 114 OFFCURVE",
"94 141 CURVE SMOOTH",
"94 594 LINE SMOOTH",
"94 618 OFFCURVE",
"100 638 OFFCURVE",
"111 638 CURVE SMOOTH",
"122 638 OFFCURVE",
"127 617 OFFCURVE",
"127 594 CURVE SMOOTH"
);
},
{
closed = 1;
nodes = (
"25 800 LINE",
"99 800 LINE",
"99 898 LINE",
"25 898 LINE"
);
},
{
closed = 1;
nodes = (
"122 800 LINE",
"195 800 LINE",
"195 898 LINE",
"122 898 LINE"
);
}
);
width = 242;
}
);
unicode = 00D6;
},
{
glyphname = Ograve;
lastChange = "2012-08-26 17:21:30 +0000";
layers = (
{
layerId = "6463F33F-C059-4755-9C76-9F35D70521A0";
name = "Regular Condensed";
paths = (
{
closed = 1;
nodes = (
"27 890 LINE",
"75 800 LINE",
"139 800 LINE",
"107 890 LINE"
);
},
{
closed = 1;
nodes = (
"210 594 LINE SMOOTH",
"210 654 OFFCURVE",
"190 743 OFFCURVE",
"110 743 CURVE SMOOTH",
"35 743 OFFCURVE",
"9 670 OFFCURVE",
"9 594 CURVE SMOOTH",
"9 141 LINE SMOOTH",
"9 71 OFFCURVE",
"32 -8 OFFCURVE",
"110 -8 CURVE SMOOTH",
"186 -8 OFFCURVE",
"210 65 OFFCURVE",
"210 141 CURVE SMOOTH"
);
},
{
closed = 1;
nodes = (
"127 141 LINE SMOOTH",
"127 118 OFFCURVE",
"121 97 OFFCURVE",
"111 97 CURVE SMOOTH",
"102 97 OFFCURVE",
"94 114 OFFCURVE",
"94 141 CURVE SMOOTH",
"94 594 LINE SMOOTH",
"94 618 OFFCURVE",
"100 638 OFFCURVE",
"111 638 CURVE SMOOTH",
"122 638 OFFCURVE",
"127 617 OFFCURVE",
"127 594 CURVE SMOOTH"
);
}
);
width = 242;
}
);
unicode = 00D2;
},
{
glyphname = Ohungarumlaut;
lastChange = "2012-08-26 17:21:30 +0000";
layers = (
{
layerId = "6463F33F-C059-4755-9C76-9F35D70521A0";
name = "Regular Condensed";
paths = (
{
closed = 1;
nodes = (
"38 915 LINE",
"7 825 LINE",
"70 825 LINE",
"118 915 LINE"
);
},
{
closed = 1;
nodes = (
"147 915 LINE",
"115 825 LINE",
"179 825 LINE",
"227 915 LINE"
);
},
{
closed = 1;
nodes = (
"210 594 LINE SMOOTH",
"210 654 OFFCURVE",
"190 743 OFFCURVE",
"110 743 CURVE SMOOTH",
"35 743 OFFCURVE",
"9 670 OFFCURVE",
"9 594 CURVE SMOOTH",
"9 141 LINE SMOOTH",
"9 71 OFFCURVE",
"32 -8 OFFCURVE",
"110 -8 CURVE SMOOTH",
"186 -8 OFFCURVE",
"210 65 OFFCURVE",
"210 141 CURVE SMOOTH"
);
},
{
closed = 1;
nodes = (
"127 141 LINE SMOOTH",
"127 118 OFFCURVE",
"121 97 OFFCURVE",
"111 97 CURVE SMOOTH",
"102 97 OFFCURVE",
"94 114 OFFCURVE",
"94 141 CURVE SMOOTH",
"94 594 LINE SMOOTH",
"94 618 OFFCURVE",
"100 638 OFFCURVE",
"111 638 CURVE SMOOTH",
"122 638 OFFCURVE",
"127 617 OFFCURVE",
"127 594 CURVE SMOOTH"
);
}
);
width = 242;
}
);
unicode = 0150;
},
{
glyphname = Omacron;
lastChange = "2012-08-26 17:21:30 +0000";
layers = (
{
layerId = "6463F33F-C059-4755-9C76-9F35D70521A0";
name = "Regular Condensed";
paths = (
{
closed = 1;
nodes = (
"40 830 LINE",
"174 830 LINE",
"174 909 LINE",
"40 909 LINE"
);
},
{
closed = 1;
nodes = (
"210 594 LINE SMOOTH",
"210 654 OFFCURVE",
"190 743 OFFCURVE",
"110 743 CURVE SMOOTH",
"35 743 OFFCURVE",
"9 670 OFFCURVE",
"9 594 CURVE SMOOTH",
"9 141 LINE SMOOTH",
"9 71 OFFCURVE",
"32 -8 OFFCURVE",
"110 -8 CURVE SMOOTH",
"186 -8 OFFCURVE",
"210 65 OFFCURVE",
"210 141 CURVE SMOOTH"
);
},
{
closed = 1;
nodes = (
"127 141 LINE SMOOTH",
"127 118 OFFCURVE",
"121 97 OFFCURVE",
"111 97 CURVE SMOOTH",
"102 97 OFFCURVE",
"94 114 OFFCURVE",
"94 141 CURVE SMOOTH",
"94 594 LINE SMOOTH",
"94 618 OFFCURVE",
"100 638 OFFCURVE",
"111 638 CURVE SMOOTH",
"122 638 OFFCURVE",
"127 617 OFFCURVE",
"127 594 CURVE SMOOTH"
);
}
);
width = 242;
}
);
unicode = 014C;
},
{
glyphname = Oslash;
lastChange = "2012-08-26 17:21:30 +0000";
layers = (
{
anchors = (
{
name = top;
position = "{121, 735}";
}
);
layerId = "6463F33F-C059-4755-9C76-9F35D70521A0";
name = "Regular Condensed";
paths = (
{
closed = 1;
nodes = (
"213 594 LINE SMOOTH",
"213 621 OFFCURVE",
"209 654 OFFCURVE",
"197 682 CURVE",
"209 745 LINE",
"163 745 LINE",
"160 730 LINE",
"147 738 OFFCURVE",
"132 743 OFFCURVE",
"113 743 CURVE SMOOTH",
"38 743 OFFCURVE",
"12 670 OFFCURVE",
"12 594 CURVE SMOOTH",
"12 141 LINE SMOOTH",
"12 111 OFFCURVE",
"16 79 OFFCURVE",
"27 53 CURVE",
"15 -10 LINE",
"63 -10 LINE",
"66 4 LINE",
"79 -3 OFFCURVE",
"94 -8 OFFCURVE",
"113 -8 CURVE SMOOTH",
"189 -8 OFFCURVE",
"213 65 OFFCURVE",
"213 141 CURVE SMOOTH"
);
},
{
closed = 1;
nodes = (
"105 97 OFFCURVE",
"97 114 OFFCURVE",
"97 141 CURVE SMOOTH",
"97 165 LINE",
"130 336 LINE",
"130 141 LINE SMOOTH",
"130 118 OFFCURVE",
"124 97 OFFCURVE",
"114 97 CURVE SMOOTH"
);
},
{
closed = 1;
nodes = (
"130 576 LINE",
"97 408 LINE",
"97 594 LINE SMOOTH",
"97 618 OFFCURVE",
"103 638 OFFCURVE",
"114 638 CURVE SMOOTH",
"125 638 OFFCURVE",
"130 617 OFFCURVE",
"130 594 CURVE SMOOTH"
);
}
);
width = 242;
}
);
unicode = 00D8;
},
{
glyphname = Otilde;
lastChange = "2012-08-26 17:21:30 +0000";
layers = (
{
layerId = "6463F33F-C059-4755-9C76-9F35D70521A0";
name = "Regular Condensed";
paths = (
{
closed = 1;
nodes = (
"39 783 LINE",
"44 790 OFFCURVE",
"67 813 OFFCURVE",
"79 813 CURVE SMOOTH",
"99 813 OFFCURVE",
"110 794 OFFCURVE",
"133 794 CURVE SMOOTH",
"151 794 OFFCURVE",
"165 806 OFFCURVE",
"173 819 CURVE",
"173 902 LINE",
"167 892 OFFCURVE",
"146 873 OFFCURVE",
"133 873 CURVE SMOOTH",
"114 873 OFFCURVE",
"103 890 OFFCURVE",
"80 890 CURVE SMOOTH",
"65 890 OFFCURVE",
"48 882 OFFCURVE",
"39 869 CURVE"
);
},
{
closed = 1;
nodes = (
"210 594 LINE SMOOTH",
"210 654 OFFCURVE",
"190 743 OFFCURVE",
"110 743 CURVE SMOOTH",
"35 743 OFFCURVE",
"9 670 OFFCURVE",
"9 594 CURVE SMOOTH",
"9 141 LINE SMOOTH",
"9 71 OFFCURVE",
"32 -8 OFFCURVE",
"110 -8 CURVE SMOOTH",
"186 -8 OFFCURVE",
"210 65 OFFCURVE",
"210 141 CURVE SMOOTH"
);
},
{
closed = 1;
nodes = (
"127 141 LINE SMOOTH",
"127 118 OFFCURVE",
"121 97 OFFCURVE",
"111 97 CURVE SMOOTH",
"102 97 OFFCURVE",
"94 114 OFFCURVE",
"94 141 CURVE SMOOTH",
"94 594 LINE SMOOTH",
"94 618 OFFCURVE",
"100 638 OFFCURVE",
"111 638 CURVE SMOOTH",
"122 638 OFFCURVE",
"127 617 OFFCURVE",
"127 594 CURVE SMOOTH"
);
}
);
width = 242;
}
);
unicode = 00D5;
},
{
glyphname = OE;
lastChange = "2012-08-26 17:21:30 +0000";
layers = (
{
anchors = (
{
name = top;
position = "{159, 735}";
}
);
layerId = "6463F33F-C059-4755-9C76-9F35D70521A0";
name = "Regular Condensed";
paths = (
{
closed = 1;
nodes = (
"295 0 LINE",
"295 111 LINE",
"212 111 LINE",
"212 313 LINE",
"272 313 LINE",
"272 431 LINE",
"212 431 LINE",
"212 624 LINE",
"295 624 LINE",
"295 735 LINE",
"111 735 LINE SMOOTH",
"37 735 OFFCURVE",
"11 671 OFFCURVE",
"11 584 CURVE SMOOTH",
"11 151 LINE SMOOTH",
"11 66 OFFCURVE",
"35 4 OFFCURVE",
"111 0 CURVE"
);
},
{
closed = 1;
nodes = (
"129 151 LINE SMOOTH",
"129 143 OFFCURVE",
"126 97 OFFCURVE",
"111 97 CURVE SMOOTH",
"101 97 OFFCURVE",
"94 124 OFFCURVE",
"94 151 CURVE SMOOTH",
"94 584 LINE SMOOTH",
"94 600 OFFCURVE",
"101 638 OFFCURVE",
"111 638 CURVE SMOOTH",
"124 638 OFFCURVE",
"129 595 OFFCURVE",
"129 584 CURVE SMOOTH"
);
}
);
width = 318;
}
);
unicode = 0152;
},
{
glyphname = P;
lastChange = "2012-08-26 17:21:30 +0000";
layers = (
{
layerId = "6463F33F-C059-4755-9C76-9F35D70521A0";
name = "Regular Condensed";
paths = (
{
closed = 1;
nodes = (
"15 0 LINE",
"98 0 LINE",
"98 294 LINE",
"128 295 OFFCURVE",
"158 306 OFFCURVE",
"177 336 CURVE SMOOTH",
"199 371 OFFCURVE",
"212 432 OFFCURVE",
"212 515 CURVE SMOOTH",
"212 598 OFFCURVE",
"199 656 OFFCURVE",
"177 691 CURVE SMOOTH",
"155 725 OFFCURVE",
"132 735 OFFCURVE",
"99 735 CURVE SMOOTH",
"15 735 LINE"
);
},
{
closed = 1;
nodes = (
"98 627 LINE",
"107 627 OFFCURVE",
"119 627 OFFCURVE",
"124 616 CURVE SMOOTH",
"132 598 OFFCURVE",
"132 552 OFFCURVE",
"132 511 CURVE SMOOTH",
"132 470 OFFCURVE",
"132 432 OFFCURVE",
"124 416 CURVE SMOOTH",
"119 406 OFFCURVE",
"106 404 OFFCURVE",
"98 404 CURVE"
);
}
);
width = 241;
}
);
unicode = 0050;
},
{
glyphname = Thorn;
lastChange = "2012-08-26 17:21:30 +0000";
layers = (
{
layerId = "6463F33F-C059-4755-9C76-9F35D70521A0";
name = "Regular Condensed";
paths = (
{
closed = 1;
nodes = (
"15 0 LINE",
"98 0 LINE",
"98 176 LINE",
"127 179 OFFCURVE",
"155 195 OFFCURVE",
"175 224 CURVE",
"197 259 OFFCURVE",
"212 314 OFFCURVE",
"212 397 CURVE SMOOTH",
"212 480 OFFCURVE",
"197 536 OFFCURVE",
"175 571 CURVE SMOOTH",
"155 601 OFFCURVE",
"127 615 OFFCURVE",
"98 617 CURVE",
"97 735 LINE",
"15 735 LINE"
);
},
{
closed = 1;
nodes = (
"98 507 LINE",
"107 505 OFFCURVE",
"115 499 OFFCURVE",
"121 484 CURVE",
"129 466 OFFCURVE",
"130 434 OFFCURVE",
"130 393 CURVE SMOOTH",
"130 352 OFFCURVE",
"129 322 OFFCURVE",
"121 306 CURVE",
"116 292 OFFCURVE",
"107 288 OFFCURVE",
"98 286 CURVE"
);
}
);
width = 242;
}
);
unicode = 00DE;
},
{
glyphname = Q;
lastChange = "2012-08-26 17:21:30 +0000";
layers = (
{
layerId = "6463F33F-C059-4755-9C76-9F35D70521A0";
name = "Regular Condensed";
paths = (
{
closed = 1;
nodes = (
"206 594 LINE SMOOTH",
"206 654 OFFCURVE",
"186 743 OFFCURVE",
"106 743 CURVE SMOOTH",
"31 743 OFFCURVE",
"9 670 OFFCURVE",
"9 594 CURVE SMOOTH",
"9 141 LINE SMOOTH",
"9 77 OFFCURVE",
"26 -2 OFFCURVE",
"99 -7 CURVE",
"100 -7 OFFCURVE",
"101 -8 OFFCURVE",
"103 -8 CURVE SMOOTH",
"111 -8 LINE",
"123 -6 LINE",
"126 -6 OFFCURVE",
"129 -5 OFFCURVE",
"132 -4 CURVE",
"133 -4 LINE",
"144 -32 OFFCURVE",
"167 -56 OFFCURVE",
"214 -56 CURVE",
"214 34 LINE",
"204 37 OFFCURVE",
"197 43 OFFCURVE",
"191 52 CURVE",
"191 53 LINE",
"192 52 OFFCURVE",
"191 53 OFFCURVE",
"191 54 CURVE",
"200 80 OFFCURVE",
"206 111 OFFCURVE",
"206 141 CURVE SMOOTH"
);
},
{
closed = 1;
nodes = (
"121 141 LINE SMOOTH",
"121 121 OFFCURVE",
"117 97 OFFCURVE",
"107 97 CURVE SMOOTH",
"98 97 OFFCURVE",
"94 118 OFFCURVE",
"94 141 CURVE SMOOTH",
"94 594 LINE SMOOTH",
"94 618 OFFCURVE",
"96 638 OFFCURVE",
"107 638 CURVE SMOOTH",
"118 638 OFFCURVE",
"121 617 OFFCURVE",
"121 594 CURVE SMOOTH"
);
}
);
width = 244;
}
);
unicode = 0051;
},
{
glyphname = R;
lastChange = "2012-08-26 17:21:30 +0000";
layers = (
{
anchors = (
{
name = bottom;
position = "{124, 0}";
},
{
name = top;
position = "{124, 735}";
}
);
layerId = "6463F33F-C059-4755-9C76-9F35D70521A0";
name = "Regular Condensed";
paths = (
{
closed = 1;
nodes = (
"222 0 LINE",
"171 356 LINE",
"197 387 OFFCURVE",
"209 453 OFFCURVE",
"209 523 CURVE SMOOTH",
"209 662 OFFCURVE",
"177 735 OFFCURVE",
"99 735 CURVE SMOOTH",
"15 735 LINE",
"15 0 LINE",
"98 0 LINE",
"98 320 LINE",
"141 0 LINE"
);
},
{
closed = 1;
nodes = (
"98 628 LINE",
"103 628 OFFCURVE",
"114 629 OFFCURVE",
"121 618 CURVE SMOOTH",
"129 606 OFFCURVE",
"130 573 OFFCURVE",
"130 519 CURVE SMOOTH",
"130 466 OFFCURVE",
"129 429 OFFCURVE",
"120 416 CURVE",
"115 408 OFFCURVE",
"105 405 OFFCURVE",
"98 405 CURVE"
);
}
);
width = 247;
}
);
unicode = 0052;
},
{
glyphname = Racute;
lastChange = "2012-08-26 17:21:30 +0000";
layers = (
{
layerId = "6463F33F-C059-4755-9C76-9F35D70521A0";
name = "Regular Condensed";
paths = (
{
closed = 1;
nodes = (
"84 915 LINE",
"53 825 LINE",
"117 825 LINE",
"164 915 LINE"
);
},
{
closed = 1;
nodes = (
"222 0 LINE",
"171 356 LINE",
"197 387 OFFCURVE",
"209 453 OFFCURVE",
"209 523 CURVE SMOOTH",
"209 662 OFFCURVE",
"177 735 OFFCURVE",
"99 735 CURVE SMOOTH",
"15 735 LINE",
"15 0 LINE",
"98 0 LINE",
"98 320 LINE",
"141 0 LINE"
);
},
{
closed = 1;
nodes = (
"98 628 LINE",
"103 628 OFFCURVE",
"114 629 OFFCURVE",
"121 618 CURVE SMOOTH",
"129 606 OFFCURVE",
"130 573 OFFCURVE",
"130 519 CURVE SMOOTH",
"130 466 OFFCURVE",
"129 429 OFFCURVE",
"120 416 CURVE",
"115 408 OFFCURVE",
"105 405 OFFCURVE",
"98 405 CURVE"
);
}
);
width = 247;
}
);
unicode = 0154;
},
{
glyphname = Rcaron;
lastChange = "2012-08-26 17:21:30 +0000";
layers = (
{
layerId = "6463F33F-C059-4755-9C76-9F35D70521A0";
name = "Regular Condensed";
paths = (
{
closed = 1;
nodes = (
"222 0 LINE",
"171 356 LINE",
"197 387 OFFCURVE",
"209 453 OFFCURVE",
"209 523 CURVE SMOOTH",
"209 662 OFFCURVE",
"177 735 OFFCURVE",
"99 735 CURVE SMOOTH",
"15 735 LINE",
"15 0 LINE",
"98 0 LINE",
"98 320 LINE",
"141 0 LINE"
);
},
{
closed = 1;
nodes = (
"98 628 LINE",
"103 628 OFFCURVE",
"114 629 OFFCURVE",
"121 618 CURVE SMOOTH",
"129 606 OFFCURVE",
"130 573 OFFCURVE",
"130 519 CURVE SMOOTH",
"130 466 OFFCURVE",
"129 429 OFFCURVE",
"120 416 CURVE",
"115 408 OFFCURVE",
"105 405 OFFCURVE",
"98 405 CURVE"
);
},
{
closed = 1;
nodes = (
"150 825 LINE",
"191 915 LINE",
"126 915 LINE",
"109 876 LINE",
"92 915 LINE",
"27 915 LINE",
"69 825 LINE"
);
}
);
width = 247;
}
);
unicode = 0158;
},
{
glyphname = Rcommaaccent;
lastChange = "2012-08-26 17:21:30 +0000";
layers = (
{
layerId = "6463F33F-C059-4755-9C76-9F35D70521A0";
name = "Regular Condensed";
paths = (
{
closed = 1;
nodes = (
"138 -54 LINE",
"70 -54 LINE",
"70 -123 LINE",
"88 -123 LINE",
"76 -188 LINE",
"125 -188 LINE",
"138 -123 LINE"
);
},
{
closed = 1;
nodes = (
"222 0 LINE",
"171 356 LINE",
"197 387 OFFCURVE",
"209 453 OFFCURVE",
"209 523 CURVE SMOOTH",
"209 662 OFFCURVE",
"177 735 OFFCURVE",
"99 735 CURVE SMOOTH",
"15 735 LINE",
"15 0 LINE",
"98 0 LINE",
"98 320 LINE",
"141 0 LINE"
);
},
{
closed = 1;
nodes = (
"98 628 LINE",
"103 628 OFFCURVE",
"114 629 OFFCURVE",
"121 618 CURVE SMOOTH",
"129 606 OFFCURVE",
"130 573 OFFCURVE",
"130 519 CURVE SMOOTH",
"130 466 OFFCURVE",
"129 429 OFFCURVE",
"120 416 CURVE",
"115 408 OFFCURVE",
"105 405 OFFCURVE",
"98 405 CURVE"
);
}
);
width = 247;
}
);
unicode = 0156;
},
{
glyphname = S;
lastChange = "2012-08-26 17:21:30 +0000";
layers = (
{
anchors = (
{
name = bottom;
position = "{118, 0}";
},
{
name = top;
position = "{118, 735}";
}
);
layerId = "6463F33F-C059-4755-9C76-9F35D70521A0";
name = "Regular Condensed";
paths = (
{
closed = 1;
nodes = (
"204 549 LINE",
"204 610 OFFCURVE",
"200 745 OFFCURVE",
"104 743 CURVE SMOOTH",
"24 741 OFFCURVE",
"11 635 OFFCURVE",
"11 571 CURVE SMOOTH",
"11 514 OFFCURVE",
"34 441 OFFCURVE",
"56 382 CURVE",
"99 279 OFFCURVE",
"122 224 OFFCURVE",
"122 162 CURVE SMOOTH",
"122 115 OFFCURVE",
"120 91 OFFCURVE",
"105 91 CURVE SMOOTH",
"83 91 OFFCURVE",
"83 194 OFFCURVE",
"83 217 CURVE",
"2 205 LINE",
"2 138 OFFCURVE",
"0 -8 OFFCURVE",
"105 -8 CURVE SMOOTH",
"191 -8 OFFCURVE",
"204 97 OFFCURVE",
"204 167 CURVE SMOOTH",
"204 241 OFFCURVE",
"177 311 OFFCURVE",
"141 398 CURVE SMOOTH",
"112 471 OFFCURVE",
"92 523 OFFCURVE",
"92 571 CURVE SMOOTH",
"92 614 OFFCURVE",
"94 644 OFFCURVE",
"106 644 CURVE SMOOTH",
"122 644 OFFCURVE",
"122 563 OFFCURVE",
"122 537 CURVE"
);
}
);
width = 236;
}
);
leftKerningGroup = S;
unicode = 0053;
},
{
glyphname = Sacute;
lastChange = "2012-08-26 17:21:30 +0000";
layers = (
{
layerId = "6463F33F-C059-4755-9C76-9F35D70521A0";
name = "Regular Condensed";
paths = (
{
closed = 1;
nodes = (
"79 915 LINE",
"47 825 LINE",
"111 825 LINE",
"159 915 LINE"
);
},
{
closed = 1;
nodes = (
"204 549 LINE",
"204 610 OFFCURVE",
"200 745 OFFCURVE",
"104 743 CURVE SMOOTH",
"24 741 OFFCURVE",
"11 635 OFFCURVE",
"11 571 CURVE SMOOTH",
"11 514 OFFCURVE",
"34 441 OFFCURVE",
"56 382 CURVE",
"99 279 OFFCURVE",
"122 224 OFFCURVE",
"122 162 CURVE SMOOTH",
"122 115 OFFCURVE",
"120 91 OFFCURVE",
"105 91 CURVE SMOOTH",
"83 91 OFFCURVE",
"83 194 OFFCURVE",
"83 217 CURVE",
"2 205 LINE",
"2 138 OFFCURVE",
"0 -8 OFFCURVE",
"105 -8 CURVE SMOOTH",
"191 -8 OFFCURVE",
"204 97 OFFCURVE",
"204 167 CURVE SMOOTH",
"204 241 OFFCURVE",
"177 311 OFFCURVE",
"141 398 CURVE SMOOTH",
"112 471 OFFCURVE",
"92 523 OFFCURVE",
"92 571 CURVE SMOOTH",
"92 614 OFFCURVE",
"94 644 OFFCURVE",
"106 644 CURVE SMOOTH",
"122 644 OFFCURVE",
"122 563 OFFCURVE",
"122 537 CURVE"
);
}
);
width = 236;
}
);
unicode = 015A;
},
{
glyphname = Scaron;
lastChange = "2012-08-26 17:21:30 +0000";
layers = (
{
layerId = "6463F33F-C059-4755-9C76-9F35D70521A0";
name = "Regular Condensed";
paths = (
{
closed = 1;
nodes = (
"204 549 LINE",
"204 610 OFFCURVE",
"200 745 OFFCURVE",
"104 743 CURVE SMOOTH",
"24 741 OFFCURVE",
"11 635 OFFCURVE",
"11 571 CURVE SMOOTH",
"11 514 OFFCURVE",
"34 441 OFFCURVE",
"56 382 CURVE",
"99 279 OFFCURVE",
"122 224 OFFCURVE",
"122 162 CURVE SMOOTH",
"122 115 OFFCURVE",
"120 91 OFFCURVE",
"105 91 CURVE SMOOTH",
"83 91 OFFCURVE",
"83 194 OFFCURVE",
"83 217 CURVE",
"2 205 LINE",
"2 138 OFFCURVE",
"0 -8 OFFCURVE",
"105 -8 CURVE SMOOTH",
"191 -8 OFFCURVE",
"204 97 OFFCURVE",
"204 167 CURVE SMOOTH",
"204 241 OFFCURVE",
"177 311 OFFCURVE",
"141 398 CURVE SMOOTH",
"112 471 OFFCURVE",
"92 523 OFFCURVE",
"92 571 CURVE SMOOTH",
"92 614 OFFCURVE",
"94 644 OFFCURVE",
"106 644 CURVE SMOOTH",
"122 644 OFFCURVE",
"122 563 OFFCURVE",
"122 537 CURVE"
);
},
{
closed = 1;
nodes = (
"144 800 LINE",
"185 890 LINE",
"120 890 LINE",
"103 851 LINE",
"86 890 LINE",
"21 890 LINE",
"63 800 LINE"
);
}
);
width = 236;
}
);
leftKerningGroup = S;
unicode = 0160;
},
{
glyphname = Scedilla;
lastChange = "2012-08-26 17:21:30 +0000";
layers = (
{
layerId = "6463F33F-C059-4755-9C76-9F35D70521A0";
name = "Regular Condensed";
paths = (
{
closed = 1;
nodes = (
"138 -54 LINE",
"70 -54 LINE",
"70 -123 LINE",
"88 -123 LINE",
"76 -188 LINE",
"125 -188 LINE",
"138 -123 LINE"
);
},
{
closed = 1;
nodes = (
"204 549 LINE",
"204 610 OFFCURVE",
"200 745 OFFCURVE",
"104 743 CURVE SMOOTH",
"24 741 OFFCURVE",
"11 635 OFFCURVE",
"11 571 CURVE SMOOTH",
"11 514 OFFCURVE",
"34 441 OFFCURVE",
"56 382 CURVE",
"99 279 OFFCURVE",
"122 224 OFFCURVE",
"122 162 CURVE SMOOTH",
"122 115 OFFCURVE",
"120 91 OFFCURVE",
"105 91 CURVE SMOOTH",
"83 91 OFFCURVE",
"83 194 OFFCURVE",
"83 217 CURVE",
"2 205 LINE",
"2 138 OFFCURVE",
"0 -8 OFFCURVE",
"105 -8 CURVE SMOOTH",
"191 -8 OFFCURVE",
"204 97 OFFCURVE",
"204 167 CURVE SMOOTH",
"204 241 OFFCURVE",
"177 311 OFFCURVE",
"141 398 CURVE SMOOTH",
"112 471 OFFCURVE",
"92 523 OFFCURVE",
"92 571 CURVE SMOOTH",
"92 614 OFFCURVE",
"94 644 OFFCURVE",
"106 644 CURVE SMOOTH",
"122 644 OFFCURVE",
"122 563 OFFCURVE",
"122 537 CURVE"
);
}
);
width = 236;
}
);
unicode = 015E;
},
{
glyphname = Scircumflex;
lastChange = "2012-08-26 17:21:30 +0000";
layers = (
{
layerId = "6463F33F-C059-4755-9C76-9F35D70521A0";
name = "Regular Condensed";
paths = (
{
closed = 1;
nodes = (
"64 890 LINE",
"22 800 LINE",
"87 800 LINE",
"104 839 LINE",
"121 800 LINE",
"186 800 LINE",
"145 890 LINE"
);
},
{
closed = 1;
nodes = (
"204 549 LINE",
"204 610 OFFCURVE",
"200 745 OFFCURVE",
"104 743 CURVE SMOOTH",
"24 741 OFFCURVE",
"11 635 OFFCURVE",
"11 571 CURVE SMOOTH",
"11 514 OFFCURVE",
"34 441 OFFCURVE",
"56 382 CURVE",
"99 279 OFFCURVE",
"122 224 OFFCURVE",
"122 162 CURVE SMOOTH",
"122 115 OFFCURVE",
"120 91 OFFCURVE",
"105 91 CURVE SMOOTH",
"83 91 OFFCURVE",
"83 194 OFFCURVE",
"83 217 CURVE",
"2 205 LINE",
"2 138 OFFCURVE",
"0 -8 OFFCURVE",
"105 -8 CURVE SMOOTH",
"191 -8 OFFCURVE",
"204 97 OFFCURVE",
"204 167 CURVE SMOOTH",
"204 241 OFFCURVE",
"177 311 OFFCURVE",
"141 398 CURVE SMOOTH",
"112 471 OFFCURVE",
"92 523 OFFCURVE",
"92 571 CURVE SMOOTH",
"92 614 OFFCURVE",
"94 644 OFFCURVE",
"106 644 CURVE SMOOTH",
"122 644 OFFCURVE",
"122 563 OFFCURVE",
"122 537 CURVE"
);
}
);
width = 236;
}
);
unicode = 015C;
},
{
glyphname = T;
lastChange = "2012-08-26 17:21:30 +0000";
layers = (
{
anchors = (
{
name = bottom;
position = "{110, 0}";
},
{
name = center;
position = "{110, 368}";
},
{
name = top;
position = "{110, 735}";
}
);
layerId = "6463F33F-C059-4755-9C76-9F35D70521A0";
name = "Regular Condensed";
paths = (
{
closed = 1;
nodes = (
"53 624 LINE",
"53 0 LINE",
"136 0 LINE",
"136 624 LINE",
"197 624 LINE",
"197 735 LINE",
"-8 735 LINE",
"-8 624 LINE"
);
}
);
width = 220;
}
);
unicode = 0054;
},
{
glyphname = Tbar;
lastChange = "2012-08-26 17:21:30 +0000";
layers = (
{
layerId = "6463F33F-C059-4755-9C76-9F35D70521A0";
name = "Regular Condensed";
paths = (
{
closed = 1;
nodes = (
"197 624 LINE",
"197 735 LINE",
"-8 735 LINE",
"-8 624 LINE",
"53 624 LINE",
"53 550 LINE",
"30 550 LINE",
"30 471 LINE",
"53 471 LINE",
"53 0 LINE",
"136 0 LINE",
"136 471 LINE",
"164 471 LINE",
"164 550 LINE",
"136 550 LINE",
"136 624 LINE"
);
}
);
width = 220;
}
);
unicode = 0166;
},
{
glyphname = Tcaron;
lastChange = "2012-08-26 17:21:30 +0000";
layers = (
{
layerId = "6463F33F-C059-4755-9C76-9F35D70521A0";
name = "Regular Condensed";
paths = (
{
closed = 1;
nodes = (
"53 624 LINE",
"53 0 LINE",
"136 0 LINE",
"136 624 LINE",
"197 624 LINE",
"197 735 LINE",
"-8 735 LINE",
"-8 624 LINE"
);
},
{
closed = 1;
nodes = (
"137 825 LINE",
"178 915 LINE",
"113 915 LINE",
"96 876 LINE",
"79 915 LINE",
"14 915 LINE",
"56 825 LINE"
);
}
);
width = 220;
}
);
unicode = 0164;
},
{
glyphname = uni021A;
lastChange = "2012-08-26 17:21:30 +0000";
layers = (
{
layerId = "6463F33F-C059-4755-9C76-9F35D70521A0";
name = "Regular Condensed";
paths = (
{
closed = 1;
nodes = (
"53 624 LINE",
"53 0 LINE",
"136 0 LINE",
"136 624 LINE",
"197 624 LINE",
"197 735 LINE",
"-8 735 LINE",
"-8 624 LINE"
);
},
{
closed = 1;
nodes = (
"138 -54 LINE",
"70 -54 LINE",
"70 -123 LINE",
"88 -123 LINE",
"76 -188 LINE",
"125 -188 LINE",
"138 -123 LINE"
);
}
);
width = 220;
}
);
unicode = 021A;
},
{
glyphname = U;
lastChange = "2012-08-26 17:21:30 +0000";
layers = (
{
anchors = (
{
name = ogonek;
position = "{225, 10}";
},
{
name = top;
position = "{125, 735}";
}
);
layerId = "6463F33F-C059-4755-9C76-9F35D70521A0";
name = "Regular Condensed";
paths = (
{
closed = 1;
nodes = (
"122 735 LINE",
"122 141 LINE SMOOTH",
"122 117 OFFCURVE",
"119 97 OFFCURVE",
"107 97 CURVE SMOOTH",
"94 97 OFFCURVE",
"91 113 OFFCURVE",
"91 141 CURVE SMOOTH",
"91 735 LINE",
"8 735 LINE",
"8 141 LINE SMOOTH",
"8 66 OFFCURVE",
"27 -8 OFFCURVE",
"107 -8 CURVE SMOOTH",
"182 -8 OFFCURVE",
"205 58 OFFCURVE",
"205 141 CURVE SMOOTH",
"205 735 LINE"
);
}
);
width = 250;
}
);
unicode = 0055;
},
{
glyphname = Uacute;
lastChange = "2012-08-26 17:21:30 +0000";
layers = (
{
layerId = "6463F33F-C059-4755-9C76-9F35D70521A0";
name = "Regular Condensed";
paths = (
{
closed = 1;
nodes = (
"112 890 LINE",
"81 800 LINE",
"145 800 LINE",
"192 890 LINE"
);
},
{
closed = 1;
nodes = (
"122 735 LINE",
"122 141 LINE SMOOTH",
"122 117 OFFCURVE",
"119 97 OFFCURVE",
"107 97 CURVE SMOOTH",
"94 97 OFFCURVE",
"91 113 OFFCURVE",
"91 141 CURVE SMOOTH",
"91 735 LINE",
"8 735 LINE",
"8 141 LINE SMOOTH",
"8 66 OFFCURVE",
"27 -8 OFFCURVE",
"107 -8 CURVE SMOOTH",
"182 -8 OFFCURVE",
"205 58 OFFCURVE",
"205 141 CURVE SMOOTH",
"205 735 LINE"
);
}
);
width = 250;
}
);
unicode = 00DA;
},
{
glyphname = Ubreve;
lastChange = "2012-08-26 17:21:30 +0000";
layers = (
{
layerId = "6463F33F-C059-4755-9C76-9F35D70521A0";
name = "Regular Condensed";
paths = (
{
closed = 1;
nodes = (
"122 735 LINE",
"122 141 LINE SMOOTH",
"122 117 OFFCURVE",
"119 97 OFFCURVE",
"107 97 CURVE SMOOTH",
"94 97 OFFCURVE",
"91 113 OFFCURVE",
"91 141 CURVE SMOOTH",
"91 735 LINE",
"8 735 LINE",
"8 141 LINE SMOOTH",
"8 66 OFFCURVE",
"27 -8 OFFCURVE",
"107 -8 CURVE SMOOTH",
"182 -8 OFFCURVE",
"205 58 OFFCURVE",
"205 141 CURVE SMOOTH",
"205 735 LINE"
);
},
{
closed = 1;
nodes = (
"145 928 LINE",
"145 928 OFFCURVE",
"126 897 OFFCURVE",
"110 897 CURVE SMOOTH",
"92 897 OFFCURVE",
"77 929 OFFCURVE",
"77 929 CURVE",
"36 872 LINE",
"49 846 OFFCURVE",
"79 824 OFFCURVE",
"110 824 CURVE SMOOTH",
"141 824 OFFCURVE",
"166 844 OFFCURVE",
"184 872 CURVE"
);
}
);
width = 250;
}
);
unicode = 016C;
},
{
glyphname = Ucircumflex;
lastChange = "2012-08-26 17:21:30 +0000";
layers = (
{
layerId = "6463F33F-C059-4755-9C76-9F35D70521A0";
name = "Regular Condensed";
paths = (
{
closed = 1;
nodes = (
"122 735 LINE",
"122 141 LINE SMOOTH",
"122 117 OFFCURVE",
"119 97 OFFCURVE",
"107 97 CURVE SMOOTH",
"94 97 OFFCURVE",
"91 113 OFFCURVE",
"91 141 CURVE SMOOTH",
"91 735 LINE",
"8 735 LINE",
"8 141 LINE SMOOTH",
"8 66 OFFCURVE",
"27 -8 OFFCURVE",
"107 -8 CURVE SMOOTH",
"182 -8 OFFCURVE",
"205 58 OFFCURVE",
"205 141 CURVE SMOOTH",
"205 735 LINE"
);
},
{
closed = 1;
nodes = (
"64 890 LINE",
"22 800 LINE",
"87 800 LINE",
"104 839 LINE",
"121 800 LINE",
"186 800 LINE",
"145 890 LINE"
);
}
);
width = 250;
}
);
unicode = 00DB;
},
{
glyphname = Udieresis;
lastChange = "2012-08-26 17:21:30 +0000";
layers = (
{
layerId = "6463F33F-C059-4755-9C76-9F35D70521A0";
name = "Regular Condensed";
paths = (
{
closed = 1;
nodes = (
"122 735 LINE",
"122 141 LINE SMOOTH",
"122 117 OFFCURVE",
"119 97 OFFCURVE",
"107 97 CURVE SMOOTH",
"94 97 OFFCURVE",
"91 113 OFFCURVE",
"91 141 CURVE SMOOTH",
"91 735 LINE",
"8 735 LINE",
"8 141 LINE SMOOTH",
"8 66 OFFCURVE",
"27 -8 OFFCURVE",
"107 -8 CURVE SMOOTH",
"182 -8 OFFCURVE",
"205 58 OFFCURVE",
"205 141 CURVE SMOOTH",
"205 735 LINE"
);
},
{
closed = 1;
nodes = (
"21 800 LINE",
"95 800 LINE",
"95 898 LINE",
"21 898 LINE"
);
},
{
closed = 1;
nodes = (
"118 800 LINE",
"191 800 LINE",
"191 898 LINE",
"118 898 LINE"
);
}
);
width = 250;
}
);
unicode = 00DC;
},
{
glyphname = Ugrave;
lastChange = "2012-08-26 17:21:30 +0000";
layers = (
{
layerId = "6463F33F-C059-4755-9C76-9F35D70521A0";
name = "Regular Condensed";
paths = (
{
closed = 1;
nodes = (
"35 890 LINE",
"82 800 LINE",
"146 800 LINE",
"115 890 LINE"
);
},
{
closed = 1;
nodes = (
"122 735 LINE",
"122 141 LINE SMOOTH",
"122 117 OFFCURVE",
"119 97 OFFCURVE",
"107 97 CURVE SMOOTH",
"94 97 OFFCURVE",
"91 113 OFFCURVE",
"91 141 CURVE SMOOTH",
"91 735 LINE",
"8 735 LINE",
"8 141 LINE SMOOTH",
"8 66 OFFCURVE",
"27 -8 OFFCURVE",
"107 -8 CURVE SMOOTH",
"182 -8 OFFCURVE",
"205 58 OFFCURVE",
"205 141 CURVE SMOOTH",
"205 735 LINE"
);
}
);
width = 250;
}
);
unicode = 00D9;
},
{
glyphname = Uhungarumlaut;
lastChange = "2012-08-26 17:21:30 +0000";
layers = (
{
layerId = "6463F33F-C059-4755-9C76-9F35D70521A0";
name = "Regular Condensed";
paths = (
{
closed = 1;
nodes = (
"41 915 LINE",
"10 825 LINE",
"74 825 LINE",
"121 915 LINE"
);
},
{
closed = 1;
nodes = (
"150 915 LINE",
"119 825 LINE",
"183 825 LINE",
"230 915 LINE"
);
},
{
closed = 1;
nodes = (
"122 735 LINE",
"122 141 LINE SMOOTH",
"122 117 OFFCURVE",
"119 97 OFFCURVE",
"107 97 CURVE SMOOTH",
"94 97 OFFCURVE",
"91 113 OFFCURVE",
"91 141 CURVE SMOOTH",
"91 735 LINE",
"8 735 LINE",
"8 141 LINE SMOOTH",
"8 66 OFFCURVE",
"27 -8 OFFCURVE",
"107 -8 CURVE SMOOTH",
"182 -8 OFFCURVE",
"205 58 OFFCURVE",
"205 141 CURVE SMOOTH",
"205 735 LINE"
);
}
);
width = 250;
}
);
unicode = 0170;
},
{
glyphname = Umacron;
lastChange = "2012-08-26 17:21:30 +0000";
layers = (
{
layerId = "6463F33F-C059-4755-9C76-9F35D70521A0";
name = "Regular Condensed";
paths = (
{
closed = 1;
nodes = (
"43 830 LINE",
"178 830 LINE",
"178 909 LINE",
"43 909 LINE"
);
},
{
closed = 1;
nodes = (
"122 735 LINE",
"122 141 LINE SMOOTH",
"122 117 OFFCURVE",
"119 97 OFFCURVE",
"107 97 CURVE SMOOTH",
"94 97 OFFCURVE",
"91 113 OFFCURVE",
"91 141 CURVE SMOOTH",
"91 735 LINE",
"8 735 LINE",
"8 141 LINE SMOOTH",
"8 66 OFFCURVE",
"27 -8 OFFCURVE",
"107 -8 CURVE SMOOTH",
"182 -8 OFFCURVE",
"205 58 OFFCURVE",
"205 141 CURVE SMOOTH",
"205 735 LINE"
);
}
);
width = 250;
}
);
unicode = 016A;
},
{
glyphname = Uogonek;
lastChange = "2012-08-26 17:21:30 +0000";
layers = (
{
layerId = "6463F33F-C059-4755-9C76-9F35D70521A0";
name = "Regular Condensed";
paths = (
{
closed = 1;
nodes = (
"122 735 LINE",
"122 143 LINE SMOOTH",
"122 95 OFFCURVE",
"105 97 OFFCURVE",
"105 97 CURVE",
"95 100 OFFCURVE",
"91 116 OFFCURVE",
"91 141 CURVE SMOOTH",
"91 735 LINE",
"8 735 LINE",
"8 141 LINE SMOOTH",
"8 66 OFFCURVE",
"27 -7 OFFCURVE",
"106 -8 CURVE SMOOTH",
"107 -8 LINE",
"110 -8 LINE SMOOTH",
"117 -8 OFFCURVE",
"123 -8 OFFCURVE",
"128 -7 CURVE",
"121 -17 OFFCURVE",
"115 -26 OFFCURVE",
"113 -31 CURVE",
"103 -50 OFFCURVE",
"92 -79 OFFCURVE",
"92 -103 CURVE SMOOTH",
"92 -148 OFFCURVE",
"117 -188 OFFCURVE",
"162 -188 CURVE SMOOTH",
"175 -188 OFFCURVE",
"186 -185 OFFCURVE",
"202 -176 CURVE",
"206 -101 LINE",
"191 -112 OFFCURVE",
"177 -121 OFFCURVE",
"172 -121 CURVE SMOOTH",
"162 -121 OFFCURVE",
"151 -112 OFFCURVE",
"151 -83 CURVE SMOOTH",
"151 -71 OFFCURVE",
"152 -60 OFFCURVE",
"155 -50 CURVE SMOOTH",
"162 -26 OFFCURVE",
"168 -12 OFFCURVE",
"176 0 CURVE",
"147 0 LINE",
"190 20 OFFCURVE",
"205 75 OFFCURVE",
"205 141 CURVE SMOOTH",
"205 735 LINE"
);
}
);
width = 250;
}
);
unicode = 0172;
},
{
glyphname = Uring;
lastChange = "2012-08-26 17:21:30 +0000";
layers = (
{
layerId = "6463F33F-C059-4755-9C76-9F35D70521A0";
name = "Regular Condensed";
paths = (
{
closed = 1;
nodes = (
"57 841 OFFCURVE",
"81 812 OFFCURVE",
"111 812 CURVE SMOOTH",
"141 812 OFFCURVE",
"164 841 OFFCURVE",
"164 882 CURVE SMOOTH",
"164 923 OFFCURVE",
"141 952 OFFCURVE",
"111 952 CURVE SMOOTH",
"81 952 OFFCURVE",
"57 923 OFFCURVE",
"57 882 CURVE SMOOTH"
);
},
{
closed = 1;
nodes = (
"98 901 OFFCURVE",
"104 917 OFFCURVE",
"111 917 CURVE SMOOTH",
"117 917 OFFCURVE",
"124 901 OFFCURVE",
"124 882 CURVE SMOOTH",
"124 863 OFFCURVE",
"117 847 OFFCURVE",
"111 847 CURVE SMOOTH",
"104 847 OFFCURVE",
"98 863 OFFCURVE",
"98 882 CURVE SMOOTH"
);
},
{
closed = 1;
nodes = (
"122 735 LINE",
"122 141 LINE SMOOTH",
"122 117 OFFCURVE",
"119 97 OFFCURVE",
"107 97 CURVE SMOOTH",
"94 97 OFFCURVE",
"91 113 OFFCURVE",
"91 141 CURVE SMOOTH",
"91 735 LINE",
"8 735 LINE",
"8 141 LINE SMOOTH",
"8 66 OFFCURVE",
"27 -8 OFFCURVE",
"107 -8 CURVE SMOOTH",
"182 -8 OFFCURVE",
"205 58 OFFCURVE",
"205 141 CURVE SMOOTH",
"205 735 LINE"
);
}
);
width = 250;
}
);
unicode = 016E;
},
{
glyphname = Utilde;
lastChange = "2012-08-26 17:21:30 +0000";
layers = (
{
layerId = "6463F33F-C059-4755-9C76-9F35D70521A0";
name = "Regular Condensed";
paths = (
{
closed = 1;
nodes = (
"122 735 LINE",
"122 141 LINE SMOOTH",
"122 117 OFFCURVE",
"119 97 OFFCURVE",
"107 97 CURVE SMOOTH",
"94 97 OFFCURVE",
"91 113 OFFCURVE",
"91 141 CURVE SMOOTH",
"91 735 LINE",
"8 735 LINE",
"8 141 LINE SMOOTH",
"8 66 OFFCURVE",
"27 -8 OFFCURVE",
"107 -8 CURVE SMOOTH",
"182 -8 OFFCURVE",
"205 58 OFFCURVE",
"205 141 CURVE SMOOTH",
"205 735 LINE"
);
},
{
closed = 1;
nodes = (
"43 811 LINE",
"48 818 OFFCURVE",
"71 841 OFFCURVE",
"83 841 CURVE SMOOTH",
"103 841 OFFCURVE",
"114 822 OFFCURVE",
"137 822 CURVE SMOOTH",
"155 822 OFFCURVE",
"169 834 OFFCURVE",
"177 847 CURVE",
"177 930 LINE",
"171 920 OFFCURVE",
"150 901 OFFCURVE",
"137 901 CURVE SMOOTH",
"118 901 OFFCURVE",
"107 918 OFFCURVE",
"84 918 CURVE SMOOTH",
"69 918 OFFCURVE",
"52 910 OFFCURVE",
"43 897 CURVE"
);
}
);
width = 250;
}
);
unicode = 0168;
},
{
glyphname = V;
lastChange = "2012-08-26 17:21:30 +0000";
layers = (
{
layerId = "6463F33F-C059-4755-9C76-9F35D70521A0";
name = "Regular Condensed";
paths = (
{
closed = 1;
nodes = (
"-4 735 LINE",
"64 0 LINE",
"146 0 LINE",
"214 735 LINE",
"133 735 LINE",
"105 359 LINE",
"77 735 LINE"
);
}
);
width = 240;
}
);
leftKerningGroup = V;
unicode = 0056;
},
{
glyphname = W;
lastChange = "2012-08-26 17:24:02 +0000";
layers = (
{
anchors = (
{
name = top;
position = "{167, 735}";
}
);
layerId = "6463F33F-C059-4755-9C76-9F35D70521A0";
name = "Regular Condensed";
paths = (
{
closed = 1;
nodes = (
"180 0 LINE",
"251 0 LINE",
"305 735 LINE",
"227 735 LINE",
"221 627 OFFCURVE",
"213 499 OFFCURVE",
"207 391 CURVE",
"182 735 LINE",
"121 735 LINE",
"97 390 LINE",
"76 735 LINE",
"-2 735 LINE",
"54 0 LINE",
"124 0 LINE",
"152 352 LINE"
);
}
);
width = 334;
}
);
leftKerningGroup = V;
unicode = 0057;
},
{
glyphname = Wcircumflex;
lastChange = "2012-08-26 17:21:30 +0000";
layers = (
{
layerId = "6463F33F-C059-4755-9C76-9F35D70521A0";
name = "Regular Condensed";
paths = (
{
closed = 1;
nodes = (
"109 890 LINE",
"67 800 LINE",
"132 800 LINE",
"149 839 LINE",
"166 800 LINE",
"231 800 LINE",
"190 890 LINE"
);
},
{
closed = 1;
nodes = (
"179 0 LINE",
"250 0 LINE",
"304 735 LINE",
"226 735 LINE",
"220 627 OFFCURVE",
"212 499 OFFCURVE",
"206 391 CURVE",
"181 735 LINE",
"120 735 LINE",
"96 390 LINE",
"75 735 LINE",
"-3 735 LINE",
"53 0 LINE",
"123 0 LINE",
"151 352 LINE"
);
}
);
width = 334;
}
);
unicode = 0174;
},
{
glyphname = X;
lastChange = "2012-08-26 17:21:30 +0000";
layers = (
{
layerId = "6463F33F-C059-4755-9C76-9F35D70521A0";
name = "Regular Condensed";
paths = (
{
closed = 1;
nodes = (
"139 0 LINE",
"220 0 LINE",
"172 260 LINE SMOOTH",
"164 302 OFFCURVE",
"157 345 OFFCURVE",
"149 386 CURVE",
"219 735 LINE",
"137 735 LINE",
"128 676 OFFCURVE",
"117 616 OFFCURVE",
"108 557 CURVE",
"79 735 LINE",
"-3 735 LINE",
"32 560 LINE SMOOTH",
"42 505 OFFCURVE",
"56 441 OFFCURVE",
"67 386 CURVE",
"-4 0 LINE",
"77 0 LINE",
"108 203 LINE"
);
}
);
width = 246;
}
);
unicode = 0058;
},
{
glyphname = Y;
lastChange = "2012-08-26 17:21:30 +0000";
layers = (
{
anchors = (
{
name = top;
position = "{118, 735}";
}
);
layerId = "6463F33F-C059-4755-9C76-9F35D70521A0";
name = "Regular Condensed";
paths = (
{
closed = 1;
nodes = (
"80 735 LINE",
"-2 735 LINE",
"67 313 LINE",
"67 0 LINE",
"150 0 LINE",
"150 313 LINE",
"219 735 LINE",
"137 735 LINE",
"128 663 OFFCURVE",
"117 592 OFFCURVE",
"108 521 CURVE"
);
}
);
width = 235;
}
);
leftKerningGroup = Y;
rightKerningGroup = Y;
unicode = 0059;
},
{
glyphname = Yacute;
lastChange = "2012-08-26 17:21:30 +0000";
layers = (
{
layerId = "6463F33F-C059-4755-9C76-9F35D70521A0";
name = "Regular Condensed";
paths = (
{
closed = 1;
nodes = (
"97 890 LINE",
"65 800 LINE",
"129 800 LINE",
"177 890 LINE"
);
},
{
closed = 1;
nodes = (
"80 735 LINE",
"-2 735 LINE",
"67 313 LINE",
"67 0 LINE",
"150 0 LINE",
"150 313 LINE",
"219 735 LINE",
"137 735 LINE",
"128 663 OFFCURVE",
"117 592 OFFCURVE",
"108 521 CURVE"
);
}
);
width = 236;
}
);
leftKerningGroup = Y;
rightKerningGroup = Y;
unicode = 00DD;
},
{
glyphname = Ycircumflex;
lastChange = "2012-08-26 17:21:30 +0000";
layers = (
{
layerId = "6463F33F-C059-4755-9C76-9F35D70521A0";
name = "Regular Condensed";
paths = (
{
closed = 1;
nodes = (
"67 890 LINE",
"25 800 LINE",
"90 800 LINE",
"107 839 LINE",
"124 800 LINE",
"189 800 LINE",
"148 890 LINE"
);
},
{
closed = 1;
nodes = (
"80 735 LINE",
"-2 735 LINE",
"67 313 LINE",
"67 0 LINE",
"150 0 LINE",
"150 313 LINE",
"219 735 LINE",
"137 735 LINE",
"128 663 OFFCURVE",
"117 592 OFFCURVE",
"108 521 CURVE"
);
}
);
width = 235;
}
);
unicode = 0176;
},
{
glyphname = Ydieresis;
lastChange = "2012-08-26 17:21:30 +0000";
layers = (
{
layerId = "6463F33F-C059-4755-9C76-9F35D70521A0";
name = "Regular Condensed";
paths = (
{
closed = 1;
nodes = (
"80 735 LINE",
"-2 735 LINE",
"67 313 LINE",
"67 0 LINE",
"150 0 LINE",
"150 313 LINE",
"219 735 LINE",
"137 735 LINE",
"128 663 OFFCURVE",
"117 592 OFFCURVE",
"108 521 CURVE"
);
},
{
closed = 1;
nodes = (
"23 800 LINE",
"97 800 LINE",
"97 898 LINE",
"23 898 LINE"
);
},
{
closed = 1;
nodes = (
"120 800 LINE",
"193 800 LINE",
"193 898 LINE",
"120 898 LINE"
);
}
);
width = 236;
}
);
leftKerningGroup = Y;
rightKerningGroup = Y;
unicode = 0178;
},
{
glyphname = Z;
lastChange = "2012-08-26 17:21:30 +0000";
layers = (
{
anchors = (
{
name = top;
position = "{107, 735}";
}
);
layerId = "6463F33F-C059-4755-9C76-9F35D70521A0";
name = "Regular Condensed";
paths = (
{
closed = 1;
nodes = (
"-3 0 LINE",
"187 0 LINE",
"187 107 LINE",
"83 107 LINE",
"187 628 LINE",
"187 735 LINE",
"11 735 LINE",
"11 628 LINE",
"98 628 LINE",
"-3 116 LINE"
);
}
);
width = 214;
}
);
unicode = 005A;
},
{
glyphname = Zacute;
lastChange = "2012-08-26 17:21:30 +0000";
layers = (
{
layerId = "6463F33F-C059-4755-9C76-9F35D70521A0";
name = "Regular Condensed";
paths = (
{
closed = 1;
nodes = (
"68 915 LINE",
"37 825 LINE",
"100 825 LINE",
"148 915 LINE"
);
},
{
closed = 1;
nodes = (
"-3 0 LINE",
"187 0 LINE",
"187 107 LINE",
"83 107 LINE",
"187 628 LINE",
"187 735 LINE",
"11 735 LINE",
"11 628 LINE",
"98 628 LINE",
"-3 116 LINE"
);
}
);
width = 214;
}
);
unicode = 0179;
},
{
glyphname = Zcaron;
lastChange = "2012-08-26 17:21:30 +0000";
layers = (
{
layerId = "6463F33F-C059-4755-9C76-9F35D70521A0";
name = "Regular Condensed";
paths = (
{
closed = 1;
nodes = (
"-3 0 LINE",
"187 0 LINE",
"187 107 LINE",
"83 107 LINE",
"187 628 LINE",
"187 735 LINE",
"11 735 LINE",
"11 628 LINE",
"98 628 LINE",
"-3 116 LINE"
);
},
{
closed = 1;
nodes = (
"140 800 LINE",
"181 890 LINE",
"116 890 LINE",
"99 851 LINE",
"82 890 LINE",
"17 890 LINE",
"59 800 LINE"
);
}
);
width = 214;
}
);
unicode = 017D;
},
{
glyphname = Zdotaccent;
lastChange = "2012-08-26 17:21:30 +0000";
layers = (
{
layerId = "6463F33F-C059-4755-9C76-9F35D70521A0";
name = "Regular Condensed";
paths = (
{
closed = 1;
nodes = (
"59 822 LINE",
"138 822 LINE",
"138 923 LINE",
"59 923 LINE"
);
},
{
closed = 1;
nodes = (
"-3 0 LINE",
"187 0 LINE",
"187 107 LINE",
"83 107 LINE",
"187 628 LINE",
"187 735 LINE",
"11 735 LINE",
"11 628 LINE",
"98 628 LINE",
"-3 116 LINE"
);
}
);
width = 214;
}
);
unicode = 017B;
},
{
glyphname = a;
lastChange = "2012-08-26 17:21:30 +0000";
layers = (
{
anchors = (
{
name = ogonek;
position = "{207, 10}";
},
{
name = top;
position = "{115, 547}";
}
);
layerId = "6463F33F-C059-4755-9C76-9F35D70521A0";
name = "Regular Condensed";
paths = (
{
closed = 1;
nodes = (
"113 363 LINE",
"110 352 OFFCURVE",
"94 335 OFFCURVE",
"81 324 CURVE SMOOTH",
"25 276 OFFCURVE",
"5 203 OFFCURVE",
"5 127 CURVE SMOOTH",
"5 93 OFFCURVE",
"8 -8 OFFCURVE",
"62 -8 CURVE SMOOTH",
"86 -8 OFFCURVE",
"105 12 OFFCURVE",
"113 33 CURVE",
"114 27 OFFCURVE",
"122 5 OFFCURVE",
"125 0 CURVE",
"192 0 LINE",
"189 24 OFFCURVE",
"187 46 OFFCURVE",
"187 95 CURVE SMOOTH",
"187 431 LINE",
"189 482 OFFCURVE",
"164 555 OFFCURVE",
"103 555 CURVE SMOOTH",
"37 555 OFFCURVE",
"10 480 OFFCURVE",
"10 419 CURVE SMOOTH",
"10 386 LINE",
"86 386 LINE",
"86 422 LINE SMOOTH",
"86 436 OFFCURVE",
"90 468 OFFCURVE",
"100 468 CURVE SMOOTH",
"109 468 OFFCURVE",
"113 439 OFFCURVE",
"113 422 CURVE SMOOTH"
);
},
{
closed = 1;
nodes = (
"112 124 LINE SMOOTH",
"112 105 OFFCURVE",
"104 87 OFFCURVE",
"91 87 CURVE SMOOTH",
"77 87 OFFCURVE",
"77 125 OFFCURVE",
"77 128 CURVE SMOOTH",
"77 172 OFFCURVE",
"94 228 OFFCURVE",
"112 251 CURVE"
);
}
);
width = 230;
}
);
leftKerningGroup = a;
rightKerningGroup = a;
unicode = 0061;
},
{
glyphname = aacute;
lastChange = "2012-08-26 17:21:30 +0000";
layers = (
{
layerId = "6463F33F-C059-4755-9C76-9F35D70521A0";
name = "Regular Condensed";
paths = (
{
closed = 1;
nodes = (
"91 727 LINE",
"59 637 LINE",
"123 637 LINE",
"171 727 LINE"
);
},
{
closed = 1;
nodes = (
"113 363 LINE",
"110 352 OFFCURVE",
"94 335 OFFCURVE",
"81 324 CURVE SMOOTH",
"25 276 OFFCURVE",
"5 203 OFFCURVE",
"5 127 CURVE SMOOTH",
"5 93 OFFCURVE",
"8 -8 OFFCURVE",
"62 -8 CURVE SMOOTH",
"86 -8 OFFCURVE",
"105 12 OFFCURVE",
"113 33 CURVE",
"114 27 OFFCURVE",
"122 5 OFFCURVE",
"125 0 CURVE",
"192 0 LINE",
"189 24 OFFCURVE",
"187 46 OFFCURVE",
"187 95 CURVE SMOOTH",
"187 431 LINE",
"189 482 OFFCURVE",
"164 555 OFFCURVE",
"103 555 CURVE SMOOTH",
"37 555 OFFCURVE",
"10 480 OFFCURVE",
"10 419 CURVE SMOOTH",
"10 386 LINE",
"86 386 LINE",
"86 422 LINE SMOOTH",
"86 436 OFFCURVE",
"90 468 OFFCURVE",
"100 468 CURVE SMOOTH",
"109 468 OFFCURVE",
"113 439 OFFCURVE",
"113 422 CURVE SMOOTH"
);
},
{
closed = 1;
nodes = (
"112 124 LINE SMOOTH",
"112 105 OFFCURVE",
"104 87 OFFCURVE",
"91 87 CURVE SMOOTH",
"77 87 OFFCURVE",
"77 125 OFFCURVE",
"77 128 CURVE SMOOTH",
"77 172 OFFCURVE",
"94 228 OFFCURVE",
"112 251 CURVE"
);
}
);
width = 230;
}
);
leftKerningGroup = a;
rightKerningGroup = a;
unicode = 00E1;
},
{
glyphname = abreve;
lastChange = "2012-08-26 17:21:30 +0000";
layers = (
{
layerId = "6463F33F-C059-4755-9C76-9F35D70521A0";
name = "Regular Condensed";
paths = (
{
closed = 1;
nodes = (
"113 363 LINE",
"110 352 OFFCURVE",
"94 335 OFFCURVE",
"81 324 CURVE SMOOTH",
"25 276 OFFCURVE",
"5 203 OFFCURVE",
"5 127 CURVE SMOOTH",
"5 93 OFFCURVE",
"8 -8 OFFCURVE",
"62 -8 CURVE SMOOTH",
"86 -8 OFFCURVE",
"105 12 OFFCURVE",
"113 33 CURVE",
"114 27 OFFCURVE",
"122 5 OFFCURVE",
"125 0 CURVE",
"192 0 LINE",
"189 24 OFFCURVE",
"187 46 OFFCURVE",
"187 95 CURVE SMOOTH",
"187 431 LINE",
"189 482 OFFCURVE",
"164 555 OFFCURVE",
"103 555 CURVE SMOOTH",
"37 555 OFFCURVE",
"10 480 OFFCURVE",
"10 419 CURVE SMOOTH",
"10 386 LINE",
"86 386 LINE",
"86 422 LINE SMOOTH",
"86 436 OFFCURVE",
"90 468 OFFCURVE",
"100 468 CURVE SMOOTH",
"109 468 OFFCURVE",
"113 439 OFFCURVE",
"113 422 CURVE SMOOTH"
);
},
{
closed = 1;
nodes = (
"112 124 LINE SMOOTH",
"112 105 OFFCURVE",
"104 87 OFFCURVE",
"91 87 CURVE SMOOTH",
"77 87 OFFCURVE",
"77 125 OFFCURVE",
"77 128 CURVE SMOOTH",
"77 172 OFFCURVE",
"94 228 OFFCURVE",
"112 251 CURVE"
);
},
{
closed = 1;
nodes = (
"137 739 LINE",
"137 739 OFFCURVE",
"118 708 OFFCURVE",
"102 708 CURVE SMOOTH",
"84 708 OFFCURVE",
"69 740 OFFCURVE",
"69 740 CURVE",
"28 683 LINE",
"41 657 OFFCURVE",
"71 635 OFFCURVE",
"102 635 CURVE SMOOTH",
"133 635 OFFCURVE",
"158 655 OFFCURVE",
"176 683 CURVE"
);
}
);
width = 230;
}
);
unicode = 0103;
},
{
glyphname = acircumflex;
lastChange = "2012-08-26 17:21:30 +0000";
layers = (
{
layerId = "6463F33F-C059-4755-9C76-9F35D70521A0";
name = "Regular Condensed";
paths = (
{
closed = 1;
nodes = (
"60 727 LINE",
"18 637 LINE",
"83 637 LINE",
"100 676 LINE",
"117 637 LINE",
"182 637 LINE",
"141 727 LINE"
);
},
{
closed = 1;
nodes = (
"113 363 LINE",
"110 352 OFFCURVE",
"94 335 OFFCURVE",
"81 324 CURVE SMOOTH",
"25 276 OFFCURVE",
"5 203 OFFCURVE",
"5 127 CURVE SMOOTH",
"5 93 OFFCURVE",
"8 -8 OFFCURVE",
"62 -8 CURVE SMOOTH",
"86 -8 OFFCURVE",
"105 12 OFFCURVE",
"113 33 CURVE",
"114 27 OFFCURVE",
"122 5 OFFCURVE",
"125 0 CURVE",
"192 0 LINE",
"189 24 OFFCURVE",
"187 46 OFFCURVE",
"187 95 CURVE SMOOTH",
"187 431 LINE",
"189 482 OFFCURVE",
"164 555 OFFCURVE",
"103 555 CURVE SMOOTH",
"37 555 OFFCURVE",
"10 480 OFFCURVE",
"10 419 CURVE SMOOTH",
"10 386 LINE",
"86 386 LINE",
"86 422 LINE SMOOTH",
"86 436 OFFCURVE",
"90 468 OFFCURVE",
"100 468 CURVE SMOOTH",
"109 468 OFFCURVE",
"113 439 OFFCURVE",
"113 422 CURVE SMOOTH"
);
},
{
closed = 1;
nodes = (
"112 124 LINE SMOOTH",
"112 105 OFFCURVE",
"104 87 OFFCURVE",
"91 87 CURVE SMOOTH",
"77 87 OFFCURVE",
"77 125 OFFCURVE",
"77 128 CURVE SMOOTH",
"77 172 OFFCURVE",
"94 228 OFFCURVE",
"112 251 CURVE"
);
}
);
width = 230;
}
);
leftKerningGroup = a;
rightKerningGroup = a;
unicode = 00E2;
},
{
glyphname = adieresis;
lastChange = "2012-08-26 17:21:30 +0000";
layers = (
{
layerId = "6463F33F-C059-4755-9C76-9F35D70521A0";
name = "Regular Condensed";
paths = (
{
closed = 1;
nodes = (
"113 363 LINE",
"110 352 OFFCURVE",
"94 335 OFFCURVE",
"81 324 CURVE SMOOTH",
"25 276 OFFCURVE",
"5 203 OFFCURVE",
"5 127 CURVE SMOOTH",
"5 93 OFFCURVE",
"8 -8 OFFCURVE",
"62 -8 CURVE SMOOTH",
"86 -8 OFFCURVE",
"105 12 OFFCURVE",
"113 33 CURVE",
"114 27 OFFCURVE",
"122 5 OFFCURVE",
"125 0 CURVE",
"192 0 LINE",
"189 24 OFFCURVE",
"187 46 OFFCURVE",
"187 95 CURVE SMOOTH",
"187 431 LINE",
"189 482 OFFCURVE",
"164 555 OFFCURVE",
"103 555 CURVE SMOOTH",
"37 555 OFFCURVE",
"10 480 OFFCURVE",
"10 419 CURVE SMOOTH",
"10 386 LINE",
"86 386 LINE",
"86 422 LINE SMOOTH",
"86 436 OFFCURVE",
"90 468 OFFCURVE",
"100 468 CURVE SMOOTH",
"109 468 OFFCURVE",
"113 439 OFFCURVE",
"113 422 CURVE SMOOTH"
);
},
{
closed = 1;
nodes = (
"112 124 LINE SMOOTH",
"112 105 OFFCURVE",
"104 87 OFFCURVE",
"91 87 CURVE SMOOTH",
"77 87 OFFCURVE",
"77 125 OFFCURVE",
"77 128 CURVE SMOOTH",
"77 172 OFFCURVE",
"94 228 OFFCURVE",
"112 251 CURVE"
);
},
{
closed = 1;
nodes = (
"17 637 LINE",
"91 637 LINE",
"91 735 LINE",
"17 735 LINE"
);
},
{
closed = 1;
nodes = (
"114 637 LINE",
"187 637 LINE",
"187 735 LINE",
"114 735 LINE"
);
}
);
width = 230;
}
);
leftKerningGroup = a;
rightKerningGroup = a;
unicode = 00E4;
},
{
glyphname = agrave;
lastChange = "2012-08-26 17:21:30 +0000";
layers = (
{
layerId = "6463F33F-C059-4755-9C76-9F35D70521A0";
name = "Regular Condensed";
paths = (
{
closed = 1;
nodes = (
"32 727 LINE",
"79 637 LINE",
"143 637 LINE",
"112 727 LINE"
);
},
{
closed = 1;
nodes = (
"113 363 LINE",
"110 352 OFFCURVE",
"94 335 OFFCURVE",
"81 324 CURVE SMOOTH",
"25 276 OFFCURVE",
"5 203 OFFCURVE",
"5 127 CURVE SMOOTH",
"5 93 OFFCURVE",
"8 -8 OFFCURVE",
"62 -8 CURVE SMOOTH",
"86 -8 OFFCURVE",
"105 12 OFFCURVE",
"113 33 CURVE",
"114 27 OFFCURVE",
"122 5 OFFCURVE",
"125 0 CURVE",
"192 0 LINE",
"189 24 OFFCURVE",
"187 46 OFFCURVE",
"187 95 CURVE SMOOTH",
"187 431 LINE",
"189 482 OFFCURVE",
"164 555 OFFCURVE",
"103 555 CURVE SMOOTH",
"37 555 OFFCURVE",
"10 480 OFFCURVE",
"10 419 CURVE SMOOTH",
"10 386 LINE",
"86 386 LINE",
"86 422 LINE SMOOTH",
"86 436 OFFCURVE",
"90 468 OFFCURVE",
"100 468 CURVE SMOOTH",
"109 468 OFFCURVE",
"113 439 OFFCURVE",
"113 422 CURVE SMOOTH"
);
},
{
closed = 1;
nodes = (
"112 124 LINE SMOOTH",
"112 105 OFFCURVE",
"104 87 OFFCURVE",
"91 87 CURVE SMOOTH",
"77 87 OFFCURVE",
"77 125 OFFCURVE",
"77 128 CURVE SMOOTH",
"77 172 OFFCURVE",
"94 228 OFFCURVE",
"112 251 CURVE"
);
}
);
width = 230;
}
);
leftKerningGroup = a;
rightKerningGroup = a;
unicode = 00E0;
},
{
glyphname = amacron;
lastChange = "2012-08-26 17:21:30 +0000";
layers = (
{
layerId = "6463F33F-C059-4755-9C76-9F35D70521A0";
name = "Regular Condensed";
paths = (
{
closed = 1;
nodes = (
"34 642 LINE",
"168 642 LINE",
"168 721 LINE",
"34 721 LINE"
);
},
{
closed = 1;
nodes = (
"113 363 LINE",
"110 352 OFFCURVE",
"94 335 OFFCURVE",
"81 324 CURVE SMOOTH",
"25 276 OFFCURVE",
"5 203 OFFCURVE",
"5 127 CURVE SMOOTH",
"5 93 OFFCURVE",
"8 -8 OFFCURVE",
"62 -8 CURVE SMOOTH",
"86 -8 OFFCURVE",
"105 12 OFFCURVE",
"113 33 CURVE",
"114 27 OFFCURVE",
"122 5 OFFCURVE",
"125 0 CURVE",
"192 0 LINE",
"189 24 OFFCURVE",
"187 46 OFFCURVE",
"187 95 CURVE SMOOTH",
"187 431 LINE",
"189 482 OFFCURVE",
"164 555 OFFCURVE",
"103 555 CURVE SMOOTH",
"37 555 OFFCURVE",
"10 480 OFFCURVE",
"10 419 CURVE SMOOTH",
"10 386 LINE",
"86 386 LINE",
"86 422 LINE SMOOTH",
"86 436 OFFCURVE",
"90 468 OFFCURVE",
"100 468 CURVE SMOOTH",
"109 468 OFFCURVE",
"113 439 OFFCURVE",
"113 422 CURVE SMOOTH"
);
},
{
closed = 1;
nodes = (
"112 124 LINE SMOOTH",
"112 105 OFFCURVE",
"104 87 OFFCURVE",
"91 87 CURVE SMOOTH",
"77 87 OFFCURVE",
"77 125 OFFCURVE",
"77 128 CURVE SMOOTH",
"77 172 OFFCURVE",
"94 228 OFFCURVE",
"112 251 CURVE"
);
}
);
width = 230;
}
);
unicode = 0101;
},
{
glyphname = aogonek;
lastChange = "2012-08-26 17:21:30 +0000";
layers = (
{
layerId = "6463F33F-C059-4755-9C76-9F35D70521A0";
name = "Regular Condensed";
paths = (
{
closed = 1;
nodes = (
"112 124 LINE SMOOTH",
"112 105 OFFCURVE",
"104 87 OFFCURVE",
"91 87 CURVE SMOOTH",
"77 87 OFFCURVE",
"77 125 OFFCURVE",
"77 128 CURVE SMOOTH",
"77 172 OFFCURVE",
"94 228 OFFCURVE",
"112 251 CURVE"
);
},
{
closed = 1;
nodes = (
"113 363 LINE",
"110 352 OFFCURVE",
"94 335 OFFCURVE",
"81 324 CURVE SMOOTH",
"25 276 OFFCURVE",
"5 203 OFFCURVE",
"5 127 CURVE SMOOTH",
"5 93 OFFCURVE",
"8 -8 OFFCURVE",
"62 -8 CURVE SMOOTH",
"86 -8 OFFCURVE",
"105 12 OFFCURVE",
"113 33 CURVE",
"114 27 OFFCURVE",
"122 5 OFFCURVE",
"125 0 CURVE",
"115 -2 OFFCURVE",
"101 -23 OFFCURVE",
"96 -31 CURVE",
"85 -51 OFFCURVE",
"76 -77 OFFCURVE",
"76 -103 CURVE SMOOTH",
"76 -148 OFFCURVE",
"101 -188 OFFCURVE",
"146 -188 CURVE SMOOTH",
"158 -188 OFFCURVE",
"168 -186 OFFCURVE",
"185 -176 CURVE",
"190 -101 LINE",
"175 -112 OFFCURVE",
"161 -121 OFFCURVE",
"156 -121 CURVE SMOOTH",
"146 -121 OFFCURVE",
"135 -112 OFFCURVE",
"135 -83 CURVE SMOOTH",
"135 -71 OFFCURVE",
"136 -60 OFFCURVE",
"139 -50 CURVE SMOOTH",
"145 -30 OFFCURVE",
"153 -13 OFFCURVE",
"161 0 CURVE",
"192 0 LINE",
"189 24 OFFCURVE",
"187 46 OFFCURVE",
"187 95 CURVE SMOOTH",
"187 431 LINE",
"189 482 OFFCURVE",
"164 555 OFFCURVE",
"103 555 CURVE SMOOTH",
"37 555 OFFCURVE",
"10 480 OFFCURVE",
"10 419 CURVE SMOOTH",
"10 386 LINE",
"86 386 LINE",
"86 422 LINE SMOOTH",
"86 436 OFFCURVE",
"90 468 OFFCURVE",
"100 468 CURVE SMOOTH",
"109 468 OFFCURVE",
"113 439 OFFCURVE",
"113 422 CURVE SMOOTH"
);
}
);
width = 230;
}
);
unicode = 0105;
},
{
glyphname = aring;
lastChange = "2012-08-26 17:21:30 +0000";
layers = (
{
layerId = "6463F33F-C059-4755-9C76-9F35D70521A0";
name = "Regular Condensed";
paths = (
{
closed = 1;
nodes = (
"113 363 LINE",
"110 352 OFFCURVE",
"94 335 OFFCURVE",
"81 324 CURVE SMOOTH",
"25 276 OFFCURVE",
"5 203 OFFCURVE",
"5 127 CURVE SMOOTH",
"5 93 OFFCURVE",
"8 -8 OFFCURVE",
"62 -8 CURVE SMOOTH",
"86 -8 OFFCURVE",
"105 12 OFFCURVE",
"113 33 CURVE",
"114 27 OFFCURVE",
"122 5 OFFCURVE",
"125 0 CURVE",
"192 0 LINE",
"189 24 OFFCURVE",
"187 46 OFFCURVE",
"187 95 CURVE SMOOTH",
"187 431 LINE",
"189 482 OFFCURVE",
"164 555 OFFCURVE",
"103 555 CURVE SMOOTH",
"37 555 OFFCURVE",
"10 480 OFFCURVE",
"10 419 CURVE SMOOTH",
"10 386 LINE",
"86 386 LINE",
"86 422 LINE SMOOTH",
"86 436 OFFCURVE",
"90 468 OFFCURVE",
"100 468 CURVE SMOOTH",
"109 468 OFFCURVE",
"113 439 OFFCURVE",
"113 422 CURVE SMOOTH"
);
},
{
closed = 1;
nodes = (
"112 124 LINE SMOOTH",
"112 105 OFFCURVE",
"104 87 OFFCURVE",
"91 87 CURVE SMOOTH",
"77 87 OFFCURVE",
"77 125 OFFCURVE",
"77 128 CURVE SMOOTH",
"77 172 OFFCURVE",
"94 228 OFFCURVE",
"112 251 CURVE"
);
},
{
closed = 1;
nodes = (
"47 653 OFFCURVE",
"71 624 OFFCURVE",
"101 624 CURVE SMOOTH",
"130 624 OFFCURVE",
"154 653 OFFCURVE",
"154 694 CURVE SMOOTH",
"154 735 OFFCURVE",
"130 764 OFFCURVE",
"101 764 CURVE SMOOTH",
"71 764 OFFCURVE",
"47 735 OFFCURVE",
"47 694 CURVE SMOOTH"
);
},
{
closed = 1;
nodes = (
"86 713 OFFCURVE",
"94 725 OFFCURVE",
"101 725 CURVE SMOOTH",
"107 725 OFFCURVE",
"116 713 OFFCURVE",
"116 694 CURVE SMOOTH",
"116 675 OFFCURVE",
"107 662 OFFCURVE",
"101 662 CURVE SMOOTH",
"94 662 OFFCURVE",
"86 675 OFFCURVE",
"86 694 CURVE SMOOTH"
);
}
);
width = 230;
}
);
leftKerningGroup = a;
rightKerningGroup = a;
unicode = 00E5;
},
{
glyphname = atilde;
lastChange = "2012-08-26 17:21:30 +0000";
layers = (
{
layerId = "6463F33F-C059-4755-9C76-9F35D70521A0";
name = "Regular Condensed";
paths = (
{
closed = 1;
nodes = (
"113 363 LINE",
"110 352 OFFCURVE",
"94 335 OFFCURVE",
"81 324 CURVE SMOOTH",
"25 276 OFFCURVE",
"5 203 OFFCURVE",
"5 127 CURVE SMOOTH",
"5 93 OFFCURVE",
"8 -8 OFFCURVE",
"62 -8 CURVE SMOOTH",
"86 -8 OFFCURVE",
"105 12 OFFCURVE",
"113 33 CURVE",
"114 27 OFFCURVE",
"122 5 OFFCURVE",
"125 0 CURVE",
"192 0 LINE",
"189 24 OFFCURVE",
"187 46 OFFCURVE",
"187 95 CURVE SMOOTH",
"187 431 LINE",
"189 482 OFFCURVE",
"164 555 OFFCURVE",
"103 555 CURVE SMOOTH",
"37 555 OFFCURVE",
"10 480 OFFCURVE",
"10 419 CURVE SMOOTH",
"10 386 LINE",
"86 386 LINE",
"86 422 LINE SMOOTH",
"86 436 OFFCURVE",
"90 468 OFFCURVE",
"100 468 CURVE SMOOTH",
"109 468 OFFCURVE",
"113 439 OFFCURVE",
"113 422 CURVE SMOOTH"
);
},
{
closed = 1;
nodes = (
"112 124 LINE SMOOTH",
"112 105 OFFCURVE",
"104 87 OFFCURVE",
"91 87 CURVE SMOOTH",
"77 87 OFFCURVE",
"77 125 OFFCURVE",
"77 128 CURVE SMOOTH",
"77 172 OFFCURVE",
"94 228 OFFCURVE",
"112 251 CURVE"
);
},
{
closed = 1;
nodes = (
"32 619 LINE",
"37 626 OFFCURVE",
"60 649 OFFCURVE",
"72 649 CURVE SMOOTH",
"92 649 OFFCURVE",
"103 630 OFFCURVE",
"126 630 CURVE SMOOTH",
"144 630 OFFCURVE",
"158 642 OFFCURVE",
"166 655 CURVE",
"166 738 LINE",
"160 728 OFFCURVE",
"139 709 OFFCURVE",
"126 709 CURVE SMOOTH",
"107 709 OFFCURVE",
"96 726 OFFCURVE",
"73 726 CURVE SMOOTH",
"58 726 OFFCURVE",
"41 718 OFFCURVE",
"32 705 CURVE"
);
}
);
width = 230;
}
);
leftKerningGroup = a;
rightKerningGroup = a;
unicode = 00E3;
},
{
glyphname = ae;
lastChange = "2012-08-26 17:21:30 +0000";
layers = (
{
anchors = (
{
name = top;
position = "{167, 547}";
}
);
layerId = "6463F33F-C059-4755-9C76-9F35D70521A0";
name = "Regular Condensed";
paths = (
{
closed = 1;
nodes = (
"228 196 LINE",
"228 136 LINE SMOOTH",
"228 117 OFFCURVE",
"225 81 OFFCURVE",
"209 81 CURVE SMOOTH",
"198 81 OFFCURVE",
"194 114 OFFCURVE",
"194 136 CURVE SMOOTH",
"194 255 LINE",
"303 255 LINE",
"303 418 LINE SMOOTH",
"303 481 OFFCURVE",
"293 555 OFFCURVE",
"209 555 CURVE SMOOTH",
"186 555 OFFCURVE",
"169 546 OFFCURVE",
"155 533 CURVE",
"142 546 OFFCURVE",
"126 555 OFFCURVE",
"105 555 CURVE SMOOTH",
"39 555 OFFCURVE",
"12 480 OFFCURVE",
"12 419 CURVE SMOOTH",
"12 386 LINE",
"88 386 LINE",
"88 422 LINE SMOOTH",
"88 436 OFFCURVE",
"92 468 OFFCURVE",
"102 468 CURVE SMOOTH",
"111 468 OFFCURVE",
"115 439 OFFCURVE",
"115 422 CURVE SMOOTH",
"115 363 LINE",
"112 352 OFFCURVE",
"96 335 OFFCURVE",
"83 324 CURVE SMOOTH",
"27 276 OFFCURVE",
"7 203 OFFCURVE",
"7 127 CURVE SMOOTH",
"7 93 OFFCURVE",
"16 -8 OFFCURVE",
"82 -8 CURVE SMOOTH",
"106 -8 OFFCURVE",
"132 2 OFFCURVE",
"145 19 CURVE",
"158 2 OFFCURVE",
"177 -8 OFFCURVE",
"204 -8 CURVE SMOOTH",
"281 -8 OFFCURVE",
"303 56 OFFCURVE",
"303 127 CURVE SMOOTH",
"303 196 LINE"
);
},
{
closed = 1;
nodes = (
"194 411 LINE SMOOTH",
"194 427 OFFCURVE",
"195 467 OFFCURVE",
"208 467 CURVE SMOOTH",
"225 467 OFFCURVE",
"228 438 OFFCURVE",
"228 411 CURVE SMOOTH",
"228 334 LINE",
"194 334 LINE"
);
},
{
closed = 1;
nodes = (
"114 124 LINE SMOOTH",
"114 105 OFFCURVE",
"106 87 OFFCURVE",
"93 87 CURVE SMOOTH",
"79 87 OFFCURVE",
"79 125 OFFCURVE",
"79 128 CURVE SMOOTH",
"79 172 OFFCURVE",
"96 228 OFFCURVE",
"114 251 CURVE"
);
}
);
width = 333;
}
);
unicode = 00E6;
},
{
glyphname = b;
lastChange = "2012-08-26 17:21:30 +0000";
layers = (
{
layerId = "6463F33F-C059-4755-9C76-9F35D70521A0";
name = "Regular Condensed";
paths = (
{
closed = 1;
nodes = (
"15 0 LINE",
"94 0 LINE",
"94 30 LINE",
"99 18 OFFCURVE",
"125 -8 OFFCURVE",
"151 -8 CURVE SMOOTH",
"200 -8 OFFCURVE",
"195 60 OFFCURVE",
"196 99 CURVE SMOOTH",
"196 448 LINE SMOOTH",
"196 493 OFFCURVE",
"186 555 OFFCURVE",
"135 555 CURVE SMOOTH",
"121 555 OFFCURVE",
"97 537 OFFCURVE",
"94 524 CURVE",
"94 735 LINE",
"15 735 LINE"
);
},
{
closed = 1;
nodes = (
"94 431 LINE SMOOTH",
"94 447 OFFCURVE",
"98 467 OFFCURVE",
"108 467 CURVE SMOOTH",
"117 467 OFFCURVE",
"122 450 OFFCURVE",
"122 431 CURVE SMOOTH",
"122 125 LINE SMOOTH",
"122 105 OFFCURVE",
"119 87 OFFCURVE",
"108 87 CURVE SMOOTH",
"98 87 OFFCURVE",
"94 106 OFFCURVE",
"94 125 CURVE SMOOTH"
);
}
);
width = 231;
}
);
rightKerningGroup = b;
unicode = 0062;
},
{
glyphname = c;
lastChange = "2012-08-26 17:21:30 +0000";
layers = (
{
anchors = (
{
name = bottom;
position = "{110, 0}";
},
{
name = top;
position = "{110, 547}";
}
);
layerId = "6463F33F-C059-4755-9C76-9F35D70521A0";
name = "Regular Condensed";
paths = (
{
closed = 1;
nodes = (
"89 427 LINE SMOOTH",
"89 447 OFFCURVE",
"96 467 OFFCURVE",
"105 467 CURVE SMOOTH",
"114 467 OFFCURVE",
"120 460 OFFCURVE",
"120 427 CURVE SMOOTH",
"120 355 LINE",
"196 355 LINE",
"196 408 LINE SMOOTH",
"196 479 OFFCURVE",
"193 555 OFFCURVE",
"103 555 CURVE SMOOTH",
"27 555 OFFCURVE",
"11 466 OFFCURVE",
"10 403 CURVE SMOOTH",
"10 144 LINE SMOOTH",
"10 87 OFFCURVE",
"23 -8 OFFCURVE",
"101 -8 CURVE SMOOTH",
"189 -8 OFFCURVE",
"195 62 OFFCURVE",
"196 139 CURVE SMOOTH",
"196 202 LINE",
"120 202 LINE",
"120 126 LINE SMOOTH",
"120 93 OFFCURVE",
"114 83 OFFCURVE",
"104 83 CURVE SMOOTH",
"94 83 OFFCURVE",
"89 106 OFFCURVE",
"89 126 CURVE SMOOTH"
);
}
);
width = 219;
}
);
leftKerningGroup = c;
rightKerningGroup = c;
unicode = 0063;
},
{
glyphname = cacute;
lastChange = "2012-08-26 17:21:30 +0000";
layers = (
{
layerId = "6463F33F-C059-4755-9C76-9F35D70521A0";
name = "Regular Condensed";
paths = (
{
closed = 1;
nodes = (
"70 727 LINE",
"39 637 LINE",
"103 637 LINE",
"150 727 LINE"
);
},
{
closed = 1;
nodes = (
"89 427 LINE SMOOTH",
"89 447 OFFCURVE",
"96 467 OFFCURVE",
"105 467 CURVE SMOOTH",
"114 467 OFFCURVE",
"120 460 OFFCURVE",
"120 427 CURVE SMOOTH",
"120 355 LINE",
"196 355 LINE",
"196 408 LINE SMOOTH",
"196 479 OFFCURVE",
"193 555 OFFCURVE",
"103 555 CURVE SMOOTH",
"27 555 OFFCURVE",
"11 466 OFFCURVE",
"10 403 CURVE SMOOTH",
"10 144 LINE SMOOTH",
"10 87 OFFCURVE",
"23 -8 OFFCURVE",
"101 -8 CURVE SMOOTH",
"189 -8 OFFCURVE",
"195 62 OFFCURVE",
"196 139 CURVE SMOOTH",
"196 202 LINE",
"120 202 LINE",
"120 126 LINE SMOOTH",
"120 93 OFFCURVE",
"114 83 OFFCURVE",
"104 83 CURVE SMOOTH",
"94 83 OFFCURVE",
"89 106 OFFCURVE",
"89 126 CURVE SMOOTH"
);
}
);
width = 219;
}
);
unicode = 0107;
},
{
glyphname = ccaron;
lastChange = "2012-08-26 17:21:30 +0000";
layers = (
{
layerId = "6463F33F-C059-4755-9C76-9F35D70521A0";
name = "Regular Condensed";
paths = (
{
closed = 1;
nodes = (
"89 427 LINE SMOOTH",
"89 447 OFFCURVE",
"96 467 OFFCURVE",
"105 467 CURVE SMOOTH",
"114 467 OFFCURVE",
"120 460 OFFCURVE",
"120 427 CURVE SMOOTH",
"120 355 LINE",
"196 355 LINE",
"196 408 LINE SMOOTH",
"196 479 OFFCURVE",
"193 555 OFFCURVE",
"103 555 CURVE SMOOTH",
"27 555 OFFCURVE",
"11 466 OFFCURVE",
"10 403 CURVE SMOOTH",
"10 144 LINE SMOOTH",
"10 87 OFFCURVE",
"23 -8 OFFCURVE",
"101 -8 CURVE SMOOTH",
"189 -8 OFFCURVE",
"195 62 OFFCURVE",
"196 139 CURVE SMOOTH",
"196 202 LINE",
"120 202 LINE",
"120 126 LINE SMOOTH",
"120 93 OFFCURVE",
"114 83 OFFCURVE",
"104 83 CURVE SMOOTH",
"94 83 OFFCURVE",
"89 106 OFFCURVE",
"89 126 CURVE SMOOTH"
);
},
{
closed = 1;
nodes = (
"138 637 LINE",
"179 727 LINE",
"114 727 LINE",
"97 688 LINE",
"80 727 LINE",
"15 727 LINE",
"57 637 LINE"
);
}
);
width = 219;
}
);
unicode = 010D;
},
{
glyphname = ccedilla;
lastChange = "2012-08-26 17:21:30 +0000";
layers = (
{
layerId = "6463F33F-C059-4755-9C76-9F35D70521A0";
name = "Regular Condensed";
paths = (
{
closed = 1;
nodes = (
"129 -54 LINE",
"61 -54 LINE",
"61 -123 LINE",
"79 -123 LINE",
"67 -188 LINE",
"116 -188 LINE",
"129 -123 LINE"
);
},
{
closed = 1;
nodes = (
"89 427 LINE SMOOTH",
"89 447 OFFCURVE",
"96 467 OFFCURVE",
"105 467 CURVE SMOOTH",
"114 467 OFFCURVE",
"120 460 OFFCURVE",
"120 427 CURVE SMOOTH",
"120 355 LINE",
"196 355 LINE",
"196 408 LINE SMOOTH",
"196 479 OFFCURVE",
"193 555 OFFCURVE",
"103 555 CURVE SMOOTH",
"27 555 OFFCURVE",
"11 466 OFFCURVE",
"10 403 CURVE SMOOTH",
"10 144 LINE SMOOTH",
"10 87 OFFCURVE",
"23 -8 OFFCURVE",
"101 -8 CURVE SMOOTH",
"189 -8 OFFCURVE",
"195 62 OFFCURVE",
"196 139 CURVE SMOOTH",
"196 202 LINE",
"120 202 LINE",
"120 126 LINE SMOOTH",
"120 93 OFFCURVE",
"114 83 OFFCURVE",
"104 83 CURVE SMOOTH",
"94 83 OFFCURVE",
"89 106 OFFCURVE",
"89 126 CURVE SMOOTH"
);
}
);
width = 219;
}
);
leftKerningGroup = c;
rightKerningGroup = c;
unicode = 00E7;
},
{
glyphname = ccircumflex;
lastChange = "2012-08-26 17:21:30 +0000";
layers = (
{
layerId = "6463F33F-C059-4755-9C76-9F35D70521A0";
name = "Regular Condensed";
paths = (
{
closed = 1;
nodes = (
"89 427 LINE SMOOTH",
"89 447 OFFCURVE",
"96 467 OFFCURVE",
"105 467 CURVE SMOOTH",
"114 467 OFFCURVE",
"120 460 OFFCURVE",
"120 427 CURVE SMOOTH",
"120 355 LINE",
"196 355 LINE",
"196 408 LINE SMOOTH",
"196 479 OFFCURVE",
"193 555 OFFCURVE",
"103 555 CURVE SMOOTH",
"27 555 OFFCURVE",
"11 466 OFFCURVE",
"10 403 CURVE SMOOTH",
"10 144 LINE SMOOTH",
"10 87 OFFCURVE",
"23 -8 OFFCURVE",
"101 -8 CURVE SMOOTH",
"189 -8 OFFCURVE",
"195 62 OFFCURVE",
"196 139 CURVE SMOOTH",
"196 202 LINE",
"120 202 LINE",
"120 126 LINE SMOOTH",
"120 93 OFFCURVE",
"114 83 OFFCURVE",
"104 83 CURVE SMOOTH",
"94 83 OFFCURVE",
"89 106 OFFCURVE",
"89 126 CURVE SMOOTH"
);
},
{
closed = 1;
nodes = (
"63 727 LINE",
"21 637 LINE",
"86 637 LINE",
"103 676 LINE",
"120 637 LINE",
"185 637 LINE",
"144 727 LINE"
);
}
);
width = 219;
}
);
unicode = 0109;
},
{
glyphname = cdotaccent;
lastChange = "2012-08-26 17:21:30 +0000";
layers = (
{
layerId = "6463F33F-C059-4755-9C76-9F35D70521A0";
name = "Regular Condensed";
paths = (
{
closed = 1;
nodes = (
"66 634 LINE",
"144 634 LINE",
"144 735 LINE",
"66 735 LINE"
);
},
{
closed = 1;
nodes = (
"89 427 LINE SMOOTH",
"89 447 OFFCURVE",
"96 467 OFFCURVE",
"105 467 CURVE SMOOTH",
"114 467 OFFCURVE",
"120 460 OFFCURVE",
"120 427 CURVE SMOOTH",
"120 355 LINE",
"196 355 LINE",
"196 408 LINE SMOOTH",
"196 479 OFFCURVE",
"193 555 OFFCURVE",
"103 555 CURVE SMOOTH",
"27 555 OFFCURVE",
"11 466 OFFCURVE",
"10 403 CURVE SMOOTH",
"10 144 LINE SMOOTH",
"10 87 OFFCURVE",
"23 -8 OFFCURVE",
"101 -8 CURVE SMOOTH",
"189 -8 OFFCURVE",
"195 62 OFFCURVE",
"196 139 CURVE SMOOTH",
"196 202 LINE",
"120 202 LINE",
"120 126 LINE SMOOTH",
"120 93 OFFCURVE",
"114 83 OFFCURVE",
"104 83 CURVE SMOOTH",
"94 83 OFFCURVE",
"89 106 OFFCURVE",
"89 126 CURVE SMOOTH"
);
}
);
width = 219;
}
);
unicode = 010B;
},
{
glyphname = d;
lastChange = "2012-08-26 17:21:30 +0000";
layers = (
{
anchors = (
{
name = center;
position = "{116, 274}";
}
);
layerId = "6463F33F-C059-4755-9C76-9F35D70521A0";
name = "Regular Condensed";
paths = (
{
closed = 1;
nodes = (
"202 735 LINE",
"123 735 LINE",
"123 524 LINE",
"120 537 OFFCURVE",
"96 555 OFFCURVE",
"82 555 CURVE SMOOTH",
"31 555 OFFCURVE",
"21 493 OFFCURVE",
"21 448 CURVE SMOOTH",
"21 99 LINE SMOOTH",
"22 60 OFFCURVE",
"17 -8 OFFCURVE",
"66 -8 CURVE SMOOTH",
"92 -8 OFFCURVE",
"118 18 OFFCURVE",
"123 30 CURVE",
"123 0 LINE",
"202 0 LINE"
);
},
{
closed = 1;
nodes = (
"123 125 LINE SMOOTH",
"123 106 OFFCURVE",
"119 87 OFFCURVE",
"109 87 CURVE SMOOTH",
"98 87 OFFCURVE",
"95 105 OFFCURVE",
"95 125 CURVE SMOOTH",
"95 431 LINE SMOOTH",
"95 450 OFFCURVE",
"100 467 OFFCURVE",
"109 467 CURVE SMOOTH",
"119 467 OFFCURVE",
"123 447 OFFCURVE",
"123 431 CURVE SMOOTH"
);
}
);
width = 231;
}
);
leftKerningGroup = d;
unicode = 0064;
},
{
glyphname = eth;
lastChange = "2012-08-26 17:21:30 +0000";
layers = (
{
layerId = "6463F33F-C059-4755-9C76-9F35D70521A0";
name = "Regular Condensed";
paths = (
{
closed = 1;
nodes = (
"71 687 LINE",
"71 686 OFFCURVE",
"82 671 OFFCURVE",
"87 657 CURVE",
"55 612 LINE",
"77 569 LINE",
"98 600 LINE",
"101 584 OFFCURVE",
"106 559 OFFCURVE",
"108 538 CURVE",
"97 548 OFFCURVE",
"84 555 OFFCURVE",
"73 555 CURVE SMOOTH",
"14 555 OFFCURVE",
"9 468 OFFCURVE",
"8 419 CURVE SMOOTH",
"8 136 LINE SMOOTH",
"8 75 OFFCURVE",
"27 -8 OFFCURVE",
"100 -8 CURVE SMOOTH",
"169 -8 OFFCURVE",
"192 76 OFFCURVE",
"192 133 CURVE SMOOTH",
"192 453 LINE SMOOTH",
"192 550 OFFCURVE",
"168 623 OFFCURVE",
"150 671 CURVE",
"178 714 LINE",
"156 758 LINE",
"129 718 LINE",
"129 718 OFFCURVE",
"116 743 OFFCURVE",
"113 751 CURVE"
);
},
{
closed = 1;
nodes = (
"117 126 LINE SMOOTH",
"117 110 OFFCURVE",
"109 81 OFFCURVE",
"100 81 CURVE SMOOTH",
"88 81 OFFCURVE",
"83 104 OFFCURVE",
"83 126 CURVE SMOOTH",
"83 421 LINE SMOOTH",
"83 429 OFFCURVE",
"89 467 OFFCURVE",
"100 467 CURVE SMOOTH",
"111 467 OFFCURVE",
"117 446 OFFCURVE",
"117 421 CURVE SMOOTH"
);
}
);
width = 227;
}
);
unicode = 00F0;
},
{
glyphname = dcaron;
lastChange = "2012-08-26 17:21:30 +0000";
layers = (
{
layerId = "6463F33F-C059-4755-9C76-9F35D70521A0";
name = "Regular Condensed";
paths = (
{
closed = 1;
nodes = (
"186 735 LINE",
"107 735 LINE",
"107 535 LINE",
"96 545 OFFCURVE",
"84 555 OFFCURVE",
"68 555 CURVE SMOOTH",
"47 555 OFFCURVE",
"31 537 OFFCURVE",
"24 519 CURVE SMOOTH",
"16 498 OFFCURVE",
"13 471 OFFCURVE",
"13 448 CURVE SMOOTH",
"13 99 LINE SMOOTH",
"13 76 OFFCURVE",
"16 49 OFFCURVE",
"24 29 CURVE",
"31 9 OFFCURVE",
"47 -8 OFFCURVE",
"68 -8 CURVE SMOOTH",
"76 -8 OFFCURVE",
"86 -5 OFFCURVE",
"92 -1 CURVE SMOOTH",
"95 1 OFFCURVE",
"104 10 OFFCURVE",
"107 13 CURVE",
"107 0 LINE",
"186 0 LINE"
);
},
{
closed = 1;
nodes = (
"289 735 LINE",
"208 735 LINE",
"208 624 LINE",
"233 624 LINE",
"208 494 LINE",
"256 494 LINE",
"289 624 LINE"
);
},
{
closed = 1;
nodes = (
"107 120 LINE SMOOTH",
"107 101 OFFCURVE",
"102 87 OFFCURVE",
"98 87 CURVE SMOOTH",
"94 87 OFFCURVE",
"91 101 OFFCURVE",
"91 120 CURVE SMOOTH",
"91 427 LINE SMOOTH",
"91 446 OFFCURVE",
"94 460 OFFCURVE",
"98 460 CURVE SMOOTH",
"102 460 OFFCURVE",
"107 443 OFFCURVE",
"107 427 CURVE SMOOTH"
);
}
);
width = 322;
}
);
unicode = 010F;
},
{
glyphname = dcroat;
lastChange = "2012-08-26 17:21:30 +0000";
layers = (
{
layerId = "6463F33F-C059-4755-9C76-9F35D70521A0";
name = "Regular Condensed";
paths = (
{
closed = 1;
nodes = (
"200 692 LINE",
"186 692 LINE",
"186 735 LINE",
"107 735 LINE",
"107 692 LINE",
"95 692 LINE",
"95 597 LINE",
"107 597 LINE",
"107 535 LINE",
"96 545 OFFCURVE",
"84 555 OFFCURVE",
"68 555 CURVE SMOOTH",
"47 555 OFFCURVE",
"31 537 OFFCURVE",
"24 519 CURVE SMOOTH",
"16 498 OFFCURVE",
"13 471 OFFCURVE",
"13 448 CURVE SMOOTH",
"13 99 LINE SMOOTH",
"13 76 OFFCURVE",
"16 49 OFFCURVE",
"24 29 CURVE",
"31 9 OFFCURVE",
"47 -8 OFFCURVE",
"68 -8 CURVE SMOOTH",
"76 -8 OFFCURVE",
"86 -5 OFFCURVE",
"92 -1 CURVE SMOOTH",
"95 1 OFFCURVE",
"104 10 OFFCURVE",
"107 13 CURVE",
"107 0 LINE",
"186 0 LINE",
"186 597 LINE",
"200 597 LINE"
);
},
{
closed = 1;
nodes = (
"107 120 LINE SMOOTH",
"107 101 OFFCURVE",
"102 87 OFFCURVE",
"98 87 CURVE SMOOTH",
"94 87 OFFCURVE",
"91 101 OFFCURVE",
"91 120 CURVE SMOOTH",
"91 427 LINE SMOOTH",
"91 446 OFFCURVE",
"94 460 OFFCURVE",
"98 460 CURVE SMOOTH",
"102 460 OFFCURVE",
"107 443 OFFCURVE",
"107 427 CURVE SMOOTH"
);
}
);
width = 231;
}
);
unicode = 0111;
},
{
glyphname = e;
lastChange = "2012-08-26 17:21:30 +0000";
layers = (
{
anchors = (
{
name = bottom;
position = "{112, 0}";
},
{
name = ogonek;
position = "{201, 10}";
},
{
name = top;
position = "{112, 547}";
}
);
layerId = "6463F33F-C059-4755-9C76-9F35D70521A0";
name = "Regular Condensed";
paths = (
{
closed = 1;
nodes = (
"121 196 LINE",
"121 136 LINE SMOOTH",
"121 117 OFFCURVE",
"118 81 OFFCURVE",
"102 81 CURVE SMOOTH",
"91 81 OFFCURVE",
"87 114 OFFCURVE",
"87 136 CURVE SMOOTH",
"87 255 LINE",
"196 255 LINE",
"196 418 LINE SMOOTH",
"196 481 OFFCURVE",
"186 555 OFFCURVE",
"102 555 CURVE SMOOTH",
"35 555 OFFCURVE",
"10 480 OFFCURVE",
"10 415 CURVE SMOOTH",
"10 130 LINE SMOOTH",
"10 67 OFFCURVE",
"27 -8 OFFCURVE",
"97 -8 CURVE SMOOTH",
"174 -8 OFFCURVE",
"196 56 OFFCURVE",
"196 127 CURVE SMOOTH",
"196 196 LINE"
);
},
{
closed = 1;
nodes = (
"87 411 LINE SMOOTH",
"87 427 OFFCURVE",
"88 467 OFFCURVE",
"101 467 CURVE SMOOTH",
"118 467 OFFCURVE",
"121 438 OFFCURVE",
"121 411 CURVE SMOOTH",
"121 334 LINE",
"87 334 LINE"
);
}
);
width = 223;
}
);
leftKerningGroup = c;
rightKerningGroup = c;
unicode = 0065;
},
{
glyphname = eacute;
lastChange = "2012-08-26 17:21:30 +0000";
layers = (
{
layerId = "6463F33F-C059-4755-9C76-9F35D70521A0";
name = "Regular Condensed";
paths = (
{
closed = 1;
nodes = (
"100 727 LINE",
"68 637 LINE",
"132 637 LINE",
"180 727 LINE"
);
},
{
closed = 1;
nodes = (
"121 196 LINE",
"121 136 LINE SMOOTH",
"121 117 OFFCURVE",
"118 81 OFFCURVE",
"102 81 CURVE SMOOTH",
"91 81 OFFCURVE",
"87 114 OFFCURVE",
"87 136 CURVE SMOOTH",
"87 255 LINE",
"196 255 LINE",
"196 418 LINE SMOOTH",
"196 481 OFFCURVE",
"186 555 OFFCURVE",
"102 555 CURVE SMOOTH",
"35 555 OFFCURVE",
"10 480 OFFCURVE",
"10 415 CURVE SMOOTH",
"10 130 LINE SMOOTH",
"10 67 OFFCURVE",
"27 -8 OFFCURVE",
"97 -8 CURVE SMOOTH",
"174 -8 OFFCURVE",
"196 56 OFFCURVE",
"196 127 CURVE SMOOTH",
"196 196 LINE"
);
},
{
closed = 1;
nodes = (
"87 411 LINE SMOOTH",
"87 427 OFFCURVE",
"88 467 OFFCURVE",
"101 467 CURVE SMOOTH",
"118 467 OFFCURVE",
"121 438 OFFCURVE",
"121 411 CURVE SMOOTH",
"121 334 LINE",
"87 334 LINE"
);
}
);
width = 223;
}
);
leftKerningGroup = c;
rightKerningGroup = c;
unicode = 00E9;
},
{
glyphname = ebreve;
lastChange = "2012-08-26 17:21:30 +0000";
layers = (
{
layerId = "6463F33F-C059-4755-9C76-9F35D70521A0";
name = "Regular Condensed";
paths = (
{
closed = 1;
nodes = (
"121 196 LINE",
"121 136 LINE SMOOTH",
"121 117 OFFCURVE",
"118 81 OFFCURVE",
"102 81 CURVE SMOOTH",
"91 81 OFFCURVE",
"87 114 OFFCURVE",
"87 136 CURVE SMOOTH",
"87 255 LINE",
"196 255 LINE",
"196 418 LINE SMOOTH",
"196 481 OFFCURVE",
"186 555 OFFCURVE",
"102 555 CURVE SMOOTH",
"35 555 OFFCURVE",
"10 480 OFFCURVE",
"10 415 CURVE SMOOTH",
"10 130 LINE SMOOTH",
"10 67 OFFCURVE",
"27 -8 OFFCURVE",
"97 -8 CURVE SMOOTH",
"174 -8 OFFCURVE",
"196 56 OFFCURVE",
"196 127 CURVE SMOOTH",
"196 196 LINE"
);
},
{
closed = 1;
nodes = (
"87 411 LINE SMOOTH",
"87 427 OFFCURVE",
"88 467 OFFCURVE",
"101 467 CURVE SMOOTH",
"118 467 OFFCURVE",
"121 438 OFFCURVE",
"121 411 CURVE SMOOTH",
"121 334 LINE",
"87 334 LINE"
);
},
{
closed = 1;
nodes = (
"139 740 LINE",
"139 740 OFFCURVE",
"120 709 OFFCURVE",
"104 709 CURVE SMOOTH",
"86 709 OFFCURVE",
"71 741 OFFCURVE",
"71 741 CURVE",
"30 684 LINE",
"43 658 OFFCURVE",
"73 636 OFFCURVE",
"104 636 CURVE SMOOTH",
"135 636 OFFCURVE",
"160 656 OFFCURVE",
"178 684 CURVE"
);
}
);
width = 223;
}
);
unicode = 0115;
},
{
glyphname = ecaron;
lastChange = "2012-08-26 17:21:30 +0000";
layers = (
{
layerId = "6463F33F-C059-4755-9C76-9F35D70521A0";
name = "Regular Condensed";
paths = (
{
closed = 1;
nodes = (
"121 196 LINE",
"121 136 LINE SMOOTH",
"121 117 OFFCURVE",
"118 81 OFFCURVE",
"102 81 CURVE SMOOTH",
"91 81 OFFCURVE",
"87 114 OFFCURVE",
"87 136 CURVE SMOOTH",
"87 255 LINE",
"196 255 LINE",
"196 418 LINE SMOOTH",
"196 481 OFFCURVE",
"186 555 OFFCURVE",
"102 555 CURVE SMOOTH",
"35 555 OFFCURVE",
"10 480 OFFCURVE",
"10 415 CURVE SMOOTH",
"10 130 LINE SMOOTH",
"10 67 OFFCURVE",
"27 -8 OFFCURVE",
"97 -8 CURVE SMOOTH",
"174 -8 OFFCURVE",
"196 56 OFFCURVE",
"196 127 CURVE SMOOTH",
"196 196 LINE"
);
},
{
closed = 1;
nodes = (
"87 411 LINE SMOOTH",
"87 427 OFFCURVE",
"88 467 OFFCURVE",
"101 467 CURVE SMOOTH",
"118 467 OFFCURVE",
"121 438 OFFCURVE",
"121 411 CURVE SMOOTH",
"121 334 LINE",
"87 334 LINE"
);
},
{
closed = 1;
nodes = (
"143 637 LINE",
"184 727 LINE",
"119 727 LINE",
"102 688 LINE",
"85 727 LINE",
"20 727 LINE",
"62 637 LINE"
);
}
);
width = 223;
}
);
unicode = 011B;
},
{
glyphname = ecircumflex;
lastChange = "2012-08-26 17:21:30 +0000";
layers = (
{
layerId = "6463F33F-C059-4755-9C76-9F35D70521A0";
name = "Regular Condensed";
paths = (
{
closed = 1;
nodes = (
"121 196 LINE",
"121 136 LINE SMOOTH",
"121 117 OFFCURVE",
"118 81 OFFCURVE",
"102 81 CURVE SMOOTH",
"91 81 OFFCURVE",
"87 114 OFFCURVE",
"87 136 CURVE SMOOTH",
"87 255 LINE",
"196 255 LINE",
"196 418 LINE SMOOTH",
"196 481 OFFCURVE",
"186 555 OFFCURVE",
"102 555 CURVE SMOOTH",
"35 555 OFFCURVE",
"10 480 OFFCURVE",
"10 415 CURVE SMOOTH",
"10 130 LINE SMOOTH",
"10 67 OFFCURVE",
"27 -8 OFFCURVE",
"97 -8 CURVE SMOOTH",
"174 -8 OFFCURVE",
"196 56 OFFCURVE",
"196 127 CURVE SMOOTH",
"196 196 LINE"
);
},
{
closed = 1;
nodes = (
"87 411 LINE SMOOTH",
"87 427 OFFCURVE",
"88 467 OFFCURVE",
"101 467 CURVE SMOOTH",
"118 467 OFFCURVE",
"121 438 OFFCURVE",
"121 411 CURVE SMOOTH",
"121 334 LINE",
"87 334 LINE"
);
},
{
closed = 1;
nodes = (
"62 727 LINE",
"20 637 LINE",
"85 637 LINE",
"102 676 LINE",
"119 637 LINE",
"184 637 LINE",
"143 727 LINE"
);
}
);
width = 223;
}
);
leftKerningGroup = c;
rightKerningGroup = c;
unicode = 00EA;
},
{
glyphname = edieresis;
lastChange = "2012-08-26 17:21:30 +0000";
layers = (
{
layerId = "6463F33F-C059-4755-9C76-9F35D70521A0";
name = "Regular Condensed";
paths = (
{
closed = 1;
nodes = (
"121 196 LINE",
"121 136 LINE SMOOTH",
"121 117 OFFCURVE",
"118 81 OFFCURVE",
"102 81 CURVE SMOOTH",
"91 81 OFFCURVE",
"87 114 OFFCURVE",
"87 136 CURVE SMOOTH",
"87 255 LINE",
"196 255 LINE",
"196 418 LINE SMOOTH",
"196 481 OFFCURVE",
"186 555 OFFCURVE",
"102 555 CURVE SMOOTH",
"35 555 OFFCURVE",
"10 480 OFFCURVE",
"10 415 CURVE SMOOTH",
"10 130 LINE SMOOTH",
"10 67 OFFCURVE",
"27 -8 OFFCURVE",
"97 -8 CURVE SMOOTH",
"174 -8 OFFCURVE",
"196 56 OFFCURVE",
"196 127 CURVE SMOOTH",
"196 196 LINE"
);
},
{
closed = 1;
nodes = (
"87 411 LINE SMOOTH",
"87 427 OFFCURVE",
"88 467 OFFCURVE",
"101 467 CURVE SMOOTH",
"118 467 OFFCURVE",
"121 438 OFFCURVE",
"121 411 CURVE SMOOTH",
"121 334 LINE",
"87 334 LINE"
);
},
{
closed = 1;
nodes = (
"18 637 LINE",
"92 637 LINE",
"92 735 LINE",
"18 735 LINE"
);
},
{
closed = 1;
nodes = (
"115 637 LINE",
"188 637 LINE",
"188 735 LINE",
"115 735 LINE"
);
}
);
width = 223;
}
);
leftKerningGroup = c;
rightKerningGroup = c;
unicode = 00EB;
},
{
glyphname = edotaccent;
lastChange = "2012-08-26 17:21:30 +0000";
layers = (
{
layerId = "6463F33F-C059-4755-9C76-9F35D70521A0";
name = "Regular Condensed";
paths = (
{
closed = 1;
nodes = (
"65 634 LINE",
"144 634 LINE",
"144 735 LINE",
"65 735 LINE"
);
},
{
closed = 1;
nodes = (
"121 196 LINE",
"121 136 LINE SMOOTH",
"121 117 OFFCURVE",
"118 81 OFFCURVE",
"102 81 CURVE SMOOTH",
"91 81 OFFCURVE",
"87 114 OFFCURVE",
"87 136 CURVE SMOOTH",
"87 255 LINE",
"196 255 LINE",
"196 418 LINE SMOOTH",
"196 481 OFFCURVE",
"186 555 OFFCURVE",
"102 555 CURVE SMOOTH",
"35 555 OFFCURVE",
"10 480 OFFCURVE",
"10 415 CURVE SMOOTH",
"10 130 LINE SMOOTH",
"10 67 OFFCURVE",
"27 -8 OFFCURVE",
"97 -8 CURVE SMOOTH",
"174 -8 OFFCURVE",
"196 56 OFFCURVE",
"196 127 CURVE SMOOTH",
"196 196 LINE"
);
},
{
closed = 1;
nodes = (
"87 411 LINE SMOOTH",
"87 427 OFFCURVE",
"88 467 OFFCURVE",
"101 467 CURVE SMOOTH",
"118 467 OFFCURVE",
"121 438 OFFCURVE",
"121 411 CURVE SMOOTH",
"121 334 LINE",
"87 334 LINE"
);
}
);
width = 223;
}
);
unicode = 0117;
},
{
glyphname = egrave;
lastChange = "2012-08-26 17:21:30 +0000";
layers = (
{
layerId = "6463F33F-C059-4755-9C76-9F35D70521A0";
name = "Regular Condensed";
paths = (
{
closed = 1;
nodes = (
"22 727 LINE",
"69 637 LINE",
"133 637 LINE",
"102 727 LINE"
);
},
{
closed = 1;
nodes = (
"121 196 LINE",
"121 136 LINE SMOOTH",
"121 117 OFFCURVE",
"118 81 OFFCURVE",
"102 81 CURVE SMOOTH",
"91 81 OFFCURVE",
"87 114 OFFCURVE",
"87 136 CURVE SMOOTH",
"87 255 LINE",
"196 255 LINE",
"196 418 LINE SMOOTH",
"196 481 OFFCURVE",
"186 555 OFFCURVE",
"102 555 CURVE SMOOTH",
"35 555 OFFCURVE",
"10 480 OFFCURVE",
"10 415 CURVE SMOOTH",
"10 130 LINE SMOOTH",
"10 67 OFFCURVE",
"27 -8 OFFCURVE",
"97 -8 CURVE SMOOTH",
"174 -8 OFFCURVE",
"196 56 OFFCURVE",
"196 127 CURVE SMOOTH",
"196 196 LINE"
);
},
{
closed = 1;
nodes = (
"87 411 LINE SMOOTH",
"87 427 OFFCURVE",
"88 467 OFFCURVE",
"101 467 CURVE SMOOTH",
"118 467 OFFCURVE",
"121 438 OFFCURVE",
"121 411 CURVE SMOOTH",
"121 334 LINE",
"87 334 LINE"
);
}
);
width = 223;
}
);
leftKerningGroup = c;
rightKerningGroup = c;
unicode = 00E8;
},
{
glyphname = emacron;
lastChange = "2012-08-26 17:21:30 +0000";
layers = (
{
layerId = "6463F33F-C059-4755-9C76-9F35D70521A0";
name = "Regular Condensed";
paths = (
{
closed = 1;
nodes = (
"37 642 LINE",
"171 642 LINE",
"171 721 LINE",
"37 721 LINE"
);
},
{
closed = 1;
nodes = (
"121 196 LINE",
"121 136 LINE SMOOTH",
"121 117 OFFCURVE",
"118 81 OFFCURVE",
"102 81 CURVE SMOOTH",
"91 81 OFFCURVE",
"87 114 OFFCURVE",
"87 136 CURVE SMOOTH",
"87 255 LINE",
"196 255 LINE",
"196 418 LINE SMOOTH",
"196 481 OFFCURVE",
"186 555 OFFCURVE",
"102 555 CURVE SMOOTH",
"35 555 OFFCURVE",
"10 480 OFFCURVE",
"10 415 CURVE SMOOTH",
"10 130 LINE SMOOTH",
"10 67 OFFCURVE",
"27 -8 OFFCURVE",
"97 -8 CURVE SMOOTH",
"174 -8 OFFCURVE",
"196 56 OFFCURVE",
"196 127 CURVE SMOOTH",
"196 196 LINE"
);
},
{
closed = 1;
nodes = (
"87 411 LINE SMOOTH",
"87 427 OFFCURVE",
"88 467 OFFCURVE",
"101 467 CURVE SMOOTH",
"118 467 OFFCURVE",
"121 438 OFFCURVE",
"121 411 CURVE SMOOTH",
"121 334 LINE",
"87 334 LINE"
);
}
);
width = 223;
}
);
unicode = 0113;
},
{
glyphname = eogonek;
lastChange = "2012-08-26 17:21:30 +0000";
layers = (
{
layerId = "6463F33F-C059-4755-9C76-9F35D70521A0";
name = "Regular Condensed";
paths = (
{
closed = 1;
nodes = (
"87 411 LINE SMOOTH",
"87 427 OFFCURVE",
"88 467 OFFCURVE",
"101 467 CURVE SMOOTH",
"118 467 OFFCURVE",
"121 438 OFFCURVE",
"121 411 CURVE SMOOTH",
"121 334 LINE",
"87 334 LINE"
);
},
{
closed = 1;
nodes = (
"121 196 LINE",
"121 136 LINE SMOOTH",
"121 117 OFFCURVE",
"118 81 OFFCURVE",
"102 81 CURVE SMOOTH",
"91 81 OFFCURVE",
"87 114 OFFCURVE",
"87 136 CURVE SMOOTH",
"87 255 LINE",
"196 255 LINE",
"196 418 LINE SMOOTH",
"196 481 OFFCURVE",
"186 555 OFFCURVE",
"102 555 CURVE SMOOTH",
"35 555 OFFCURVE",
"10 480 OFFCURVE",
"10 415 CURVE SMOOTH",
"10 130 LINE SMOOTH",
"10 68 OFFCURVE",
"26 -5 OFFCURVE",
"93 -8 CURVE",
"97 -8 LINE SMOOTH",
"102 -8 OFFCURVE",
"103 -9 OFFCURVE",
"106 -8 CURVE",
"102 -14 OFFCURVE",
"95 -24 OFFCURVE",
"92 -31 CURVE",
"82 -50 OFFCURVE",
"71 -79 OFFCURVE",
"71 -103 CURVE SMOOTH",
"71 -148 OFFCURVE",
"97 -188 OFFCURVE",
"142 -188 CURVE SMOOTH",
"154 -188 OFFCURVE",
"164 -186 OFFCURVE",
"181 -176 CURVE",
"186 -101 LINE",
"171 -112 OFFCURVE",
"157 -121 OFFCURVE",
"152 -121 CURVE SMOOTH",
"142 -121 OFFCURVE",
"131 -112 OFFCURVE",
"131 -83 CURVE SMOOTH",
"131 -71 OFFCURVE",
"132 -60 OFFCURVE",
"135 -50 CURVE SMOOTH",
"141 -28 OFFCURVE",
"148 -14 OFFCURVE",
"157 0 CURVE",
"139 0 LINE",
"182 19 OFFCURVE",
"196 71 OFFCURVE",
"196 127 CURVE SMOOTH",
"196 196 LINE"
);
}
);
width = 223;
}
);
unicode = 0119;
},
{
glyphname = f;
lastChange = "2012-08-26 17:21:30 +0000";
layers = (
{
layerId = "6463F33F-C059-4755-9C76-9F35D70521A0";
name = "Regular Condensed";
paths = (
{
closed = 1;
nodes = (
"106 0 LINE",
"106 456 LINE",
"137 456 LINE",
"137 547 LINE",
"106 547 LINE",
"106 585 LINE SMOOTH",
"106 610 OFFCURVE",
"106 637 OFFCURVE",
"115 647 CURVE",
"120 652 OFFCURVE",
"132 653 OFFCURVE",
"143 646 CURVE",
"143 729 LINE",
"131 736 OFFCURVE",
"119 739 OFFCURVE",
"106 739 CURVE SMOOTH",
"33 739 OFFCURVE",
"29 646 OFFCURVE",
"28 579 CURVE SMOOTH",
"28 547 LINE",
"-3 547 LINE",
"-3 456 LINE",
"28 456 LINE",
"28 0 LINE"
);
}
);
width = 169;
}
);
unicode = 0066;
},
{
glyphname = g;
lastChange = "2012-08-26 17:21:30 +0000";
layers = (
{
anchors = (
{
name = top;
position = "{123, 547}";
}
);
layerId = "6463F33F-C059-4755-9C76-9F35D70521A0";
name = "Regular Condensed";
paths = (
{
closed = 1;
nodes = (
"191 429 LINE SMOOTH",
"191 435 OFFCURVE",
"189 449 OFFCURVE",
"187 453 CURVE",
"192 460 OFFCURVE",
"205 465 OFFCURVE",
"224 465 CURVE",
"224 555 LINE",
"197 555 OFFCURVE",
"178 541 OFFCURVE",
"161 521 CURVE",
"149 543 OFFCURVE",
"129 555 OFFCURVE",
"99 555 CURVE SMOOTH",
"32 555 OFFCURVE",
"9 474 OFFCURVE",
"8 416 CURVE SMOOTH",
"8 267 LINE SMOOTH",
"8 221 OFFCURVE",
"21 186 OFFCURVE",
"46 148 CURVE",
"25 129 OFFCURVE",
"5 96 OFFCURVE",
"5 66 CURVE SMOOTH",
"5 25 OFFCURVE",
"25 4 OFFCURVE",
"48 -7 CURVE",
"47 -7 LINE",
"21 -26 OFFCURVE",
"-5 -52 OFFCURVE",
"-5 -90 CURVE SMOOTH",
"-5 -154 OFFCURVE",
"32 -196 OFFCURVE",
"101 -196 CURVE SMOOTH",
"183 -196 OFFCURVE",
"214 -129 OFFCURVE",
"214 -56 CURVE SMOOTH",
"214 -11 OFFCURVE",
"201 18 OFFCURVE",
"183 40 CURVE",
"167 58 OFFCURVE",
"145 65 OFFCURVE",
"123 71 CURVE SMOOTH",
"108 75 OFFCURVE",
"83 85 OFFCURVE",
"83 105 CURVE SMOOTH",
"83 115 OFFCURVE",
"86 124 OFFCURVE",
"89 129 CURVE",
"94 129 LINE SMOOTH",
"162 129 OFFCURVE",
"188 206 OFFCURVE",
"191 264 CURVE"
);
},
{
closed = 1;
nodes = (
"114 262 LINE SMOOTH",
"114 248 OFFCURVE",
"112 213 OFFCURVE",
"99 213 CURVE SMOOTH",
"89 213 OFFCURVE",
"86 243 OFFCURVE",
"86 262 CURVE SMOOTH",
"86 417 LINE SMOOTH",
"86 437 OFFCURVE",
"89 467 OFFCURVE",
"99 467 CURVE SMOOTH",
"112 467 OFFCURVE",
"114 439 OFFCURVE",
"114 417 CURVE SMOOTH"
);
},
{
closed = 1;
nodes = (
"113 -35 LINE",
"126 -40 OFFCURVE",
"139 -50 OFFCURVE",
"139 -74 CURVE SMOOTH",
"139 -94 OFFCURVE",
"124 -111 OFFCURVE",
"102 -111 CURVE SMOOTH",
"80 -111 OFFCURVE",
"71 -94 OFFCURVE",
"71 -73 CURVE SMOOTH",
"71 -52 OFFCURVE",
"80 -37 OFFCURVE",
"89 -27 CURVE"
);
}
);
width = 245;
}
);
unicode = 0067;
},
{
glyphname = gbreve;
lastChange = "2012-08-26 17:21:30 +0000";
layers = (
{
layerId = "6463F33F-C059-4755-9C76-9F35D70521A0";
name = "Regular Condensed";
paths = (
{
closed = 1;
nodes = (
"191 429 LINE SMOOTH",
"191 435 OFFCURVE",
"189 449 OFFCURVE",
"187 453 CURVE",
"192 460 OFFCURVE",
"205 465 OFFCURVE",
"224 465 CURVE",
"224 555 LINE",
"197 555 OFFCURVE",
"178 541 OFFCURVE",
"161 521 CURVE",
"149 543 OFFCURVE",
"129 555 OFFCURVE",
"99 555 CURVE SMOOTH",
"32 555 OFFCURVE",
"9 474 OFFCURVE",
"8 416 CURVE SMOOTH",
"8 267 LINE SMOOTH",
"8 221 OFFCURVE",
"21 186 OFFCURVE",
"46 148 CURVE",
"25 129 OFFCURVE",
"5 96 OFFCURVE",
"5 66 CURVE SMOOTH",
"5 25 OFFCURVE",
"25 4 OFFCURVE",
"48 -7 CURVE",
"47 -7 LINE",
"21 -26 OFFCURVE",
"-5 -52 OFFCURVE",
"-5 -90 CURVE SMOOTH",
"-5 -154 OFFCURVE",
"32 -196 OFFCURVE",
"101 -196 CURVE SMOOTH",
"183 -196 OFFCURVE",
"214 -129 OFFCURVE",
"214 -56 CURVE SMOOTH",
"214 -11 OFFCURVE",
"201 18 OFFCURVE",
"183 40 CURVE",
"167 58 OFFCURVE",
"145 65 OFFCURVE",
"123 71 CURVE SMOOTH",
"108 75 OFFCURVE",
"83 85 OFFCURVE",
"83 105 CURVE SMOOTH",
"83 115 OFFCURVE",
"86 124 OFFCURVE",
"89 129 CURVE",
"94 129 LINE SMOOTH",
"162 129 OFFCURVE",
"188 206 OFFCURVE",
"191 264 CURVE"
);
},
{
closed = 1;
nodes = (
"114 262 LINE SMOOTH",
"114 248 OFFCURVE",
"112 213 OFFCURVE",
"99 213 CURVE SMOOTH",
"89 213 OFFCURVE",
"86 243 OFFCURVE",
"86 262 CURVE SMOOTH",
"86 417 LINE SMOOTH",
"86 437 OFFCURVE",
"89 467 OFFCURVE",
"99 467 CURVE SMOOTH",
"112 467 OFFCURVE",
"114 439 OFFCURVE",
"114 417 CURVE SMOOTH"
);
},
{
closed = 1;
nodes = (
"113 -35 LINE",
"126 -40 OFFCURVE",
"139 -50 OFFCURVE",
"139 -74 CURVE SMOOTH",
"139 -94 OFFCURVE",
"124 -111 OFFCURVE",
"102 -111 CURVE SMOOTH",
"80 -111 OFFCURVE",
"71 -94 OFFCURVE",
"71 -73 CURVE SMOOTH",
"71 -52 OFFCURVE",
"80 -37 OFFCURVE",
"89 -27 CURVE"
);
},
{
closed = 1;
nodes = (
"142 740 LINE",
"142 740 OFFCURVE",
"123 709 OFFCURVE",
"107 709 CURVE SMOOTH",
"89 709 OFFCURVE",
"74 741 OFFCURVE",
"74 741 CURVE",
"33 684 LINE",
"46 658 OFFCURVE",
"76 636 OFFCURVE",
"107 636 CURVE SMOOTH",
"138 636 OFFCURVE",
"163 656 OFFCURVE",
"181 684 CURVE"
);
}
);
width = 235;
}
);
unicode = 011F;
},
{
glyphname = gcircumflex;
lastChange = "2012-08-26 17:21:30 +0000";
layers = (
{
layerId = "6463F33F-C059-4755-9C76-9F35D70521A0";
name = "Regular Condensed";
paths = (
{
closed = 1;
nodes = (
"191 429 LINE SMOOTH",
"191 435 OFFCURVE",
"189 449 OFFCURVE",
"187 453 CURVE",
"192 460 OFFCURVE",
"205 465 OFFCURVE",
"224 465 CURVE",
"224 555 LINE",
"197 555 OFFCURVE",
"178 541 OFFCURVE",
"161 521 CURVE",
"149 543 OFFCURVE",
"129 555 OFFCURVE",
"99 555 CURVE SMOOTH",
"32 555 OFFCURVE",
"9 474 OFFCURVE",
"8 416 CURVE SMOOTH",
"8 267 LINE SMOOTH",
"8 221 OFFCURVE",
"21 186 OFFCURVE",
"46 148 CURVE",
"25 129 OFFCURVE",
"5 96 OFFCURVE",
"5 66 CURVE SMOOTH",
"5 25 OFFCURVE",
"25 4 OFFCURVE",
"48 -7 CURVE",
"47 -7 LINE",
"21 -26 OFFCURVE",
"-5 -52 OFFCURVE",
"-5 -90 CURVE SMOOTH",
"-5 -154 OFFCURVE",
"32 -196 OFFCURVE",
"101 -196 CURVE SMOOTH",
"183 -196 OFFCURVE",
"214 -129 OFFCURVE",
"214 -56 CURVE SMOOTH",
"214 -11 OFFCURVE",
"201 18 OFFCURVE",
"183 40 CURVE",
"167 58 OFFCURVE",
"145 65 OFFCURVE",
"123 71 CURVE SMOOTH",
"108 75 OFFCURVE",
"83 85 OFFCURVE",
"83 105 CURVE SMOOTH",
"83 115 OFFCURVE",
"86 124 OFFCURVE",
"89 129 CURVE",
"94 129 LINE SMOOTH",
"162 129 OFFCURVE",
"188 206 OFFCURVE",
"191 264 CURVE"
);
},
{
closed = 1;
nodes = (
"114 262 LINE SMOOTH",
"114 248 OFFCURVE",
"112 213 OFFCURVE",
"99 213 CURVE SMOOTH",
"89 213 OFFCURVE",
"86 243 OFFCURVE",
"86 262 CURVE SMOOTH",
"86 417 LINE SMOOTH",
"86 437 OFFCURVE",
"89 467 OFFCURVE",
"99 467 CURVE SMOOTH",
"112 467 OFFCURVE",
"114 439 OFFCURVE",
"114 417 CURVE SMOOTH"
);
},
{
closed = 1;
nodes = (
"113 -35 LINE",
"126 -40 OFFCURVE",
"139 -50 OFFCURVE",
"139 -74 CURVE SMOOTH",
"139 -94 OFFCURVE",
"124 -111 OFFCURVE",
"102 -111 CURVE SMOOTH",
"80 -111 OFFCURVE",
"71 -94 OFFCURVE",
"71 -73 CURVE SMOOTH",
"71 -52 OFFCURVE",
"80 -37 OFFCURVE",
"89 -27 CURVE"
);
},
{
closed = 1;
nodes = (
"62 727 LINE",
"20 637 LINE",
"85 637 LINE",
"102 676 LINE",
"119 637 LINE",
"184 637 LINE",
"143 727 LINE"
);
}
);
width = 235;
}
);
unicode = 011D;
},
{
glyphname = gcommaaccent;
lastChange = "2012-08-26 17:21:30 +0000";
layers = (
{
layerId = "6463F33F-C059-4755-9C76-9F35D70521A0";
name = "Regular Condensed";
paths = (
{
closed = 1;
nodes = (
"64 682 LINE",
"145 682 LINE",
"145 793 LINE",
"124 793 LINE",
"145 923 LINE",
"97 923 LINE",
"64 793 LINE"
);
},
{
closed = 1;
nodes = (
"191 429 LINE SMOOTH",
"191 435 OFFCURVE",
"189 449 OFFCURVE",
"187 453 CURVE",
"192 460 OFFCURVE",
"205 465 OFFCURVE",
"224 465 CURVE",
"224 555 LINE",
"197 555 OFFCURVE",
"178 541 OFFCURVE",
"161 521 CURVE",
"149 543 OFFCURVE",
"129 555 OFFCURVE",
"99 555 CURVE SMOOTH",
"32 555 OFFCURVE",
"9 474 OFFCURVE",
"8 416 CURVE SMOOTH",
"8 267 LINE SMOOTH",
"8 221 OFFCURVE",
"21 186 OFFCURVE",
"46 148 CURVE",
"25 129 OFFCURVE",
"5 96 OFFCURVE",
"5 66 CURVE SMOOTH",
"5 25 OFFCURVE",
"25 4 OFFCURVE",
"48 -7 CURVE",
"47 -7 LINE",
"21 -26 OFFCURVE",
"-5 -52 OFFCURVE",
"-5 -90 CURVE SMOOTH",
"-5 -154 OFFCURVE",
"32 -196 OFFCURVE",
"101 -196 CURVE SMOOTH",
"183 -196 OFFCURVE",
"214 -129 OFFCURVE",
"214 -56 CURVE SMOOTH",
"214 -11 OFFCURVE",
"201 18 OFFCURVE",
"183 40 CURVE",
"167 58 OFFCURVE",
"145 65 OFFCURVE",
"123 71 CURVE SMOOTH",
"108 75 OFFCURVE",
"83 85 OFFCURVE",
"83 105 CURVE SMOOTH",
"83 115 OFFCURVE",
"86 124 OFFCURVE",
"89 129 CURVE",
"94 129 LINE SMOOTH",
"162 129 OFFCURVE",
"188 206 OFFCURVE",
"191 264 CURVE"
);
},
{
closed = 1;
nodes = (
"114 262 LINE SMOOTH",
"114 248 OFFCURVE",
"112 213 OFFCURVE",
"99 213 CURVE SMOOTH",
"89 213 OFFCURVE",
"86 243 OFFCURVE",
"86 262 CURVE SMOOTH",
"86 417 LINE SMOOTH",
"86 437 OFFCURVE",
"89 467 OFFCURVE",
"99 467 CURVE SMOOTH",
"112 467 OFFCURVE",
"114 439 OFFCURVE",
"114 417 CURVE SMOOTH"
);
},
{
closed = 1;
nodes = (
"113 -35 LINE",
"126 -40 OFFCURVE",
"139 -50 OFFCURVE",
"139 -74 CURVE SMOOTH",
"139 -94 OFFCURVE",
"124 -111 OFFCURVE",
"102 -111 CURVE SMOOTH",
"80 -111 OFFCURVE",
"71 -94 OFFCURVE",
"71 -73 CURVE SMOOTH",
"71 -52 OFFCURVE",
"80 -37 OFFCURVE",
"89 -27 CURVE"
);
}
);
width = 235;
}
);
unicode = 0123;
},
{
glyphname = gdotaccent;
lastChange = "2012-08-26 17:21:30 +0000";
layers = (
{
layerId = "6463F33F-C059-4755-9C76-9F35D70521A0";
name = "Regular Condensed";
paths = (
{
closed = 1;
nodes = (
"64 634 LINE",
"143 634 LINE",
"143 735 LINE",
"64 735 LINE"
);
},
{
closed = 1;
nodes = (
"191 429 LINE SMOOTH",
"191 435 OFFCURVE",
"189 449 OFFCURVE",
"187 453 CURVE",
"192 460 OFFCURVE",
"205 465 OFFCURVE",
"224 465 CURVE",
"224 555 LINE",
"197 555 OFFCURVE",
"178 541 OFFCURVE",
"161 521 CURVE",
"149 543 OFFCURVE",
"129 555 OFFCURVE",
"99 555 CURVE SMOOTH",
"32 555 OFFCURVE",
"9 474 OFFCURVE",
"8 416 CURVE SMOOTH",
"8 267 LINE SMOOTH",
"8 221 OFFCURVE",
"21 186 OFFCURVE",
"46 148 CURVE",
"25 129 OFFCURVE",
"5 96 OFFCURVE",
"5 66 CURVE SMOOTH",
"5 25 OFFCURVE",
"25 4 OFFCURVE",
"48 -7 CURVE",
"47 -7 LINE",
"21 -26 OFFCURVE",
"-5 -52 OFFCURVE",
"-5 -90 CURVE SMOOTH",
"-5 -154 OFFCURVE",
"32 -196 OFFCURVE",
"101 -196 CURVE SMOOTH",
"183 -196 OFFCURVE",
"214 -129 OFFCURVE",
"214 -56 CURVE SMOOTH",
"214 -11 OFFCURVE",
"201 18 OFFCURVE",
"183 40 CURVE",
"167 58 OFFCURVE",
"145 65 OFFCURVE",
"123 71 CURVE SMOOTH",
"108 75 OFFCURVE",
"83 85 OFFCURVE",
"83 105 CURVE SMOOTH",
"83 115 OFFCURVE",
"86 124 OFFCURVE",
"89 129 CURVE",
"94 129 LINE SMOOTH",
"162 129 OFFCURVE",
"188 206 OFFCURVE",
"191 264 CURVE"
);
},
{
closed = 1;
nodes = (
"114 262 LINE SMOOTH",
"114 248 OFFCURVE",
"112 213 OFFCURVE",
"99 213 CURVE SMOOTH",
"89 213 OFFCURVE",
"86 243 OFFCURVE",
"86 262 CURVE SMOOTH",
"86 417 LINE SMOOTH",
"86 437 OFFCURVE",
"89 467 OFFCURVE",
"99 467 CURVE SMOOTH",
"112 467 OFFCURVE",
"114 439 OFFCURVE",
"114 417 CURVE SMOOTH"
);
},
{
closed = 1;
nodes = (
"113 -35 LINE",
"126 -40 OFFCURVE",
"139 -50 OFFCURVE",
"139 -74 CURVE SMOOTH",
"139 -94 OFFCURVE",
"124 -111 OFFCURVE",
"102 -111 CURVE SMOOTH",
"80 -111 OFFCURVE",
"71 -94 OFFCURVE",
"71 -73 CURVE SMOOTH",
"71 -52 OFFCURVE",
"80 -37 OFFCURVE",
"89 -27 CURVE"
);
}
);
width = 235;
}
);
unicode = 0121;
},
{
glyphname = h;
lastChange = "2012-08-26 17:21:30 +0000";
layers = (
{
anchors = (
{
name = center;
position = "{115, 274}";
},
{
name = top;
position = "{115, 547}";
}
);
layerId = "6463F33F-C059-4755-9C76-9F35D70521A0";
name = "Regular Condensed";
paths = (
{
closed = 1;
nodes = (
"94 431 LINE SMOOTH",
"94 444 OFFCURVE",
"96 467 OFFCURVE",
"107 467 CURVE SMOOTH",
"119 467 OFFCURVE",
"120 443 OFFCURVE",
"120 431 CURVE SMOOTH",
"120 0 LINE",
"195 0 LINE",
"195 448 LINE SMOOTH",
"195 481 OFFCURVE",
"187 555 OFFCURVE",
"137 555 CURVE SMOOTH",
"120 555 OFFCURVE",
"96 537 OFFCURVE",
"94 524 CURVE",
"94 735 LINE",
"15 735 LINE",
"15 0 LINE",
"94 0 LINE"
);
}
);
width = 229;
}
);
rightKerningGroup = b;
unicode = 0068;
},
{
glyphname = hbar;
lastChange = "2012-08-26 17:21:30 +0000";
layers = (
{
layerId = "6463F33F-C059-4755-9C76-9F35D70521A0";
name = "Regular Condensed";
paths = (
{
closed = 1;
nodes = (
"94 431 LINE SMOOTH",
"94 444 OFFCURVE",
"96 467 OFFCURVE",
"107 467 CURVE SMOOTH",
"119 467 OFFCURVE",
"120 443 OFFCURVE",
"120 431 CURVE SMOOTH",
"120 0 LINE",
"195 0 LINE",
"195 448 LINE SMOOTH",
"195 481 OFFCURVE",
"187 555 OFFCURVE",
"137 555 CURVE SMOOTH",
"120 555 OFFCURVE",
"97 538 OFFCURVE",
"94 525 CURVE",
"94 612 LINE",
"127 612 LINE",
"127 691 LINE",
"94 691 LINE",
"94 735 LINE",
"15 735 LINE",
"15 691 LINE",
"-8 691 LINE",
"-8 612 LINE",
"15 612 LINE",
"15 0 LINE",
"94 0 LINE"
);
}
);
width = 232;
}
);
unicode = 0127;
},
{
glyphname = hcircumflex;
lastChange = "2012-08-26 17:21:30 +0000";
layers = (
{
layerId = "6463F33F-C059-4755-9C76-9F35D70521A0";
name = "Regular Condensed";
paths = (
{
closed = 1;
nodes = (
"101 657 LINE",
"112 637 LINE",
"184 637 LINE",
"143 727 LINE",
"94 727 LINE",
"94 735 LINE",
"15 735 LINE",
"15 0 LINE",
"94 0 LINE",
"94 431 LINE SMOOTH",
"94 444 OFFCURVE",
"96 467 OFFCURVE",
"107 467 CURVE SMOOTH",
"119 467 OFFCURVE",
"120 443 OFFCURVE",
"120 431 CURVE SMOOTH",
"120 0 LINE",
"195 0 LINE",
"195 448 LINE SMOOTH",
"195 481 OFFCURVE",
"187 555 OFFCURVE",
"137 555 CURVE SMOOTH",
"120 555 OFFCURVE",
"97 538 OFFCURVE",
"94 525 CURVE",
"94 639 LINE"
);
}
);
width = 232;
}
);
unicode = 0125;
},
{
glyphname = i;
lastChange = "2012-08-26 17:21:30 +0000";
layers = (
{
layerId = "6463F33F-C059-4755-9C76-9F35D70521A0";
name = "Regular Condensed";
paths = (
{
closed = 1;
nodes = (
"15 634 LINE",
"94 634 LINE",
"94 735 LINE",
"15 735 LINE"
);
},
{
closed = 1;
nodes = (
"94 0 LINE",
"94 547 LINE",
"15 547 LINE",
"15 0 LINE"
);
}
);
width = 132;
}
);
leftKerningGroup = I;
rightKerningGroup = I;
unicode = 0069;
},
{
glyphname = dotlessi;
lastChange = "2012-08-26 17:21:30 +0000";
layers = (
{
anchors = (
{
name = ogonek;
position = "{125, 10}";
},
{
name = top;
position = "{70, 547}";
}
);
layerId = "6463F33F-C059-4755-9C76-9F35D70521A0";
name = "Regular Condensed";
paths = (
{
closed = 1;
nodes = (
"94 0 LINE",
"94 547 LINE",
"15 547 LINE",
"15 0 LINE"
);
}
);
width = 139;
}
);
unicode = 0131;
},
{
glyphname = iacute;
lastChange = "2012-08-26 17:21:30 +0000";
layers = (
{
layerId = "6463F33F-C059-4755-9C76-9F35D70521A0";
name = "Regular Condensed";
paths = (
{
closed = 1;
nodes = (
"46 727 LINE",
"15 637 LINE",
"79 637 LINE",
"126 727 LINE"
);
},
{
closed = 1;
nodes = (
"94 0 LINE",
"94 547 LINE",
"15 547 LINE",
"15 0 LINE"
);
}
);
width = 139;
}
);
leftKerningGroup = I;
rightKerningGroup = I;
unicode = 00ED;
},
{
glyphname = ibreve;
lastChange = "2012-08-26 17:21:30 +0000";
layers = (
{
layerId = "6463F33F-C059-4755-9C76-9F35D70521A0";
name = "Regular Condensed";
paths = (
{
closed = 1;
nodes = (
"94 0 LINE",
"94 547 LINE",
"15 547 LINE",
"15 0 LINE"
);
},
{
closed = 1;
nodes = (
"93 740 LINE",
"93 740 OFFCURVE",
"74 709 OFFCURVE",
"58 709 CURVE SMOOTH",
"40 709 OFFCURVE",
"25 741 OFFCURVE",
"25 741 CURVE",
"-16 684 LINE",
"-3 658 OFFCURVE",
"27 636 OFFCURVE",
"58 636 CURVE SMOOTH",
"89 636 OFFCURVE",
"114 656 OFFCURVE",
"132 684 CURVE"
);
}
);
width = 139;
}
);
unicode = 012D;
},
{
glyphname = icircumflex;
lastChange = "2012-08-26 17:21:30 +0000";
layers = (
{
layerId = "6463F33F-C059-4755-9C76-9F35D70521A0";
name = "Regular Condensed";
paths = (
{
closed = 1;
nodes = (
"94 0 LINE",
"94 547 LINE",
"15 547 LINE",
"15 0 LINE"
);
},
{
closed = 1;
nodes = (
"15 727 LINE",
"-27 637 LINE",
"38 637 LINE",
"55 676 LINE",
"72 637 LINE",
"137 637 LINE",
"96 727 LINE"
);
}
);
width = 139;
}
);
leftKerningGroup = Icircumflex;
rightKerningGroup = Icircumflex;
unicode = 00EE;
},
{
glyphname = idieresis;
lastChange = "2012-08-26 17:21:30 +0000";
layers = (
{
layerId = "6463F33F-C059-4755-9C76-9F35D70521A0";
name = "Regular Condensed";
paths = (
{
closed = 1;
nodes = (
"94 0 LINE",
"94 547 LINE",
"15 547 LINE",
"15 0 LINE"
);
},
{
closed = 1;
nodes = (
"-30 637 LINE",
"44 637 LINE",
"44 735 LINE",
"-30 735 LINE"
);
},
{
closed = 1;
nodes = (
"67 637 LINE",
"140 637 LINE",
"140 735 LINE",
"67 735 LINE"
);
}
);
width = 139;
}
);
leftKerningGroup = Icircumflex;
rightKerningGroup = Icircumflex;
unicode = 00EF;
},
{
glyphname = igrave;
lastChange = "2012-08-26 17:21:30 +0000";
layers = (
{
layerId = "6463F33F-C059-4755-9C76-9F35D70521A0";
name = "Regular Condensed";
paths = (
{
closed = 1;
nodes = (
"-18 727 LINE",
"30 637 LINE",
"94 637 LINE",
"62 727 LINE"
);
},
{
closed = 1;
nodes = (
"94 0 LINE",
"94 547 LINE",
"15 547 LINE",
"15 0 LINE"
);
}
);
width = 139;
}
);
leftKerningGroup = I;
rightKerningGroup = I;
unicode = 00EC;
},
{
glyphname = ij;
lastChange = "2012-08-26 17:21:30 +0000";
layers = (
{
layerId = "6463F33F-C059-4755-9C76-9F35D70521A0";
name = "Regular Condensed";
paths = (
{
closed = 1;
nodes = (
"15 634 LINE",
"94 634 LINE",
"94 735 LINE",
"15 735 LINE"
);
},
{
closed = 1;
nodes = (
"94 0 LINE",
"94 547 LINE",
"15 547 LINE",
"15 0 LINE"
);
},
{
closed = 1;
nodes = (
"123 634 LINE",
"202 634 LINE",
"202 735 LINE",
"123 735 LINE"
);
},
{
closed = 1;
nodes = (
"123 547 LINE",
"123 -36 LINE SMOOTH",
"123 -59 OFFCURVE",
"126 -101 OFFCURVE",
"90 -89 CURVE",
"88 -180 LINE",
"103 -187 OFFCURVE",
"112 -188 OFFCURVE",
"123 -188 CURVE SMOOTH",
"161 -188 OFFCURVE",
"184 -157 OFFCURVE",
"193 -122 CURVE SMOOTH",
"202 -86 OFFCURVE",
"202 -42 OFFCURVE",
"202 -14 CURVE SMOOTH",
"202 547 LINE"
);
}
);
width = 245;
}
);
unicode = 0133;
},
{
glyphname = imacron;
lastChange = "2012-08-26 17:21:30 +0000";
layers = (
{
layerId = "6463F33F-C059-4755-9C76-9F35D70521A0";
name = "Regular Condensed";
paths = (
{
closed = 1;
nodes = (
"-12 642 LINE",
"122 642 LINE",
"122 721 LINE",
"-12 721 LINE"
);
},
{
closed = 1;
nodes = (
"94 0 LINE",
"94 547 LINE",
"15 547 LINE",
"15 0 LINE"
);
}
);
width = 139;
}
);
unicode = 012B;
},
{
glyphname = iogonek;
lastChange = "2012-08-26 17:21:30 +0000";
layers = (
{
layerId = "6463F33F-C059-4755-9C76-9F35D70521A0";
name = "Regular Condensed";
paths = (
{
closed = 1;
nodes = (
"94 735 LINE",
"15 735 LINE",
"15 634 LINE",
"94 634 LINE"
);
},
{
closed = 1;
nodes = (
"94 0 LINE",
"94 547 LINE",
"15 547 LINE",
"15 0 LINE",
"40 0 LINE",
"31 -11 OFFCURVE",
"26 -19 OFFCURVE",
"22 -25 CURVE SMOOTH",
"18 -31 LINE",
"8 -50 OFFCURVE",
"-2 -79 OFFCURVE",
"-2 -103 CURVE SMOOTH",
"-2 -148 OFFCURVE",
"23 -188 OFFCURVE",
"68 -188 CURVE SMOOTH",
"80 -188 OFFCURVE",
"90 -186 OFFCURVE",
"107 -176 CURVE",
"112 -101 LINE",
"97 -112 OFFCURVE",
"83 -121 OFFCURVE",
"78 -121 CURVE SMOOTH",
"68 -121 OFFCURVE",
"57 -112 OFFCURVE",
"57 -83 CURVE SMOOTH",
"57 -71 OFFCURVE",
"58 -60 OFFCURVE",
"61 -50 CURVE SMOOTH",
"67 -30 OFFCURVE",
"75 -13 OFFCURVE",
"83 0 CURVE"
);
}
);
width = 139;
}
);
unicode = 012F;
},
{
glyphname = itilde;
lastChange = "2012-08-26 17:21:30 +0000";
layers = (
{
layerId = "6463F33F-C059-4755-9C76-9F35D70521A0";
name = "Regular Condensed";
paths = (
{
closed = 1;
nodes = (
"94 0 LINE",
"94 547 LINE",
"15 547 LINE",
"15 0 LINE"
);
},
{
closed = 1;
nodes = (
"-12 623 LINE",
"-7 630 OFFCURVE",
"16 653 OFFCURVE",
"28 653 CURVE SMOOTH",
"48 653 OFFCURVE",
"59 634 OFFCURVE",
"82 634 CURVE SMOOTH",
"100 634 OFFCURVE",
"114 646 OFFCURVE",
"122 659 CURVE",
"122 742 LINE",
"116 732 OFFCURVE",
"95 713 OFFCURVE",
"82 713 CURVE SMOOTH",
"63 713 OFFCURVE",
"52 730 OFFCURVE",
"29 730 CURVE SMOOTH",
"14 730 OFFCURVE",
"-3 722 OFFCURVE",
"-12 709 CURVE"
);
}
);
width = 139;
}
);
unicode = 0129;
},
{
glyphname = j;
lastChange = "2012-08-26 17:21:30 +0000";
layers = (
{
layerId = "6463F33F-C059-4755-9C76-9F35D70521A0";
name = "Regular Condensed";
paths = (
{
closed = 1;
nodes = (
"13 634 LINE",
"92 634 LINE",
"92 735 LINE",
"13 735 LINE"
);
},
{
closed = 1;
nodes = (
"13 547 LINE",
"13 -36 LINE SMOOTH",
"13 -59 OFFCURVE",
"16 -101 OFFCURVE",
"-20 -89 CURVE",
"-22 -180 LINE",
"-7 -187 OFFCURVE",
"2 -188 OFFCURVE",
"13 -188 CURVE SMOOTH",
"51 -188 OFFCURVE",
"74 -157 OFFCURVE",
"83 -122 CURVE SMOOTH",
"92 -86 OFFCURVE",
"92 -42 OFFCURVE",
"92 -14 CURVE SMOOTH",
"92 547 LINE"
);
}
);
width = 137;
}
);
unicode = 006A;
},
{
glyphname = jcircumflex;
lastChange = "2012-08-26 17:21:30 +0000";
layers = (
{
layerId = "6463F33F-C059-4755-9C76-9F35D70521A0";
name = "Regular Condensed";
paths = (
{
closed = 1;
nodes = (
"136 645 LINE",
"94 735 LINE",
"13 735 LINE",
"-28 645 LINE",
"13 645 LINE",
"13 634 LINE",
"92 634 LINE",
"92 645 LINE"
);
},
{
closed = 1;
nodes = (
"93 547 LINE",
"93 -14 LINE SMOOTH",
"93 -42 OFFCURVE",
"93 -86 OFFCURVE",
"84 -122 CURVE SMOOTH",
"75 -157 OFFCURVE",
"52 -188 OFFCURVE",
"14 -188 CURVE SMOOTH",
"3 -188 OFFCURVE",
"-6 -187 OFFCURVE",
"-21 -180 CURVE",
"-19 -89 LINE",
"17 -101 OFFCURVE",
"14 -59 OFFCURVE",
"14 -36 CURVE SMOOTH",
"14 547 LINE"
);
}
);
width = 137;
}
);
unicode = 0135;
},
{
glyphname = k;
lastChange = "2012-08-26 17:21:30 +0000";
layers = (
{
anchors = (
{
name = bottom;
position = "{109, 0}";
}
);
layerId = "6463F33F-C059-4755-9C76-9F35D70521A0";
name = "Regular Condensed";
paths = (
{
closed = 1;
nodes = (
"15 735 LINE",
"15 0 LINE",
"91 0 LINE",
"91 232 LINE",
"126 0 LINE",
"202 0 LINE",
"137 359 LINE",
"204 547 LINE",
"128 547 LINE",
"91 433 LINE",
"91 735 LINE"
);
}
);
width = 218;
}
);
unicode = 006B;
},
{
glyphname = kcommaaccent;
lastChange = "2012-08-26 17:21:30 +0000";
layers = (
{
layerId = "6463F33F-C059-4755-9C76-9F35D70521A0";
name = "Regular Condensed";
paths = (
{
closed = 1;
nodes = (
"138 -54 LINE",
"70 -54 LINE",
"70 -123 LINE",
"88 -123 LINE",
"76 -188 LINE",
"125 -188 LINE",
"138 -123 LINE"
);
},
{
closed = 1;
nodes = (
"15 735 LINE",
"15 0 LINE",
"91 0 LINE",
"91 232 LINE",
"126 0 LINE",
"202 0 LINE",
"137 359 LINE",
"204 547 LINE",
"128 547 LINE",
"91 433 LINE",
"91 735 LINE"
);
}
);
width = 218;
}
);
unicode = 0137;
},
{
glyphname = kgreenlandic;
lastChange = "2012-08-26 17:21:30 +0000";
layers = (
{
layerId = "6463F33F-C059-4755-9C76-9F35D70521A0";
name = "Regular Condensed";
paths = (
{
closed = 1;
nodes = (
"15 735 LINE",
"15 0 LINE",
"91 0 LINE",
"91 232 LINE",
"126 0 LINE",
"202 0 LINE",
"137 359 LINE",
"204 547 LINE",
"128 547 LINE",
"91 433 LINE",
"91 735 LINE"
);
}
);
width = 218;
}
);
unicode = 0138;
},
{
glyphname = l;
lastChange = "2012-08-26 17:21:30 +0000";
layers = (
{
anchors = (
{
name = bottom;
position = "{69, 0}";
},
{
name = top;
position = "{69, 547}";
},
{
name = topright;
position = "{117, 547}";
}
);
layerId = "6463F33F-C059-4755-9C76-9F35D70521A0";
name = "Regular Condensed";
paths = (
{
closed = 1;
nodes = (
"94 0 LINE",
"94 735 LINE",
"15 735 LINE",
"15 0 LINE"
);
}
);
width = 137;
}
);
leftKerningGroup = I;
rightKerningGroup = I;
unicode = 006C;
},
{
glyphname = lacute;
lastChange = "2012-08-26 17:21:30 +0000";
layers = (
{
layerId = "6463F33F-C059-4755-9C76-9F35D70521A0";
name = "Regular Condensed";
paths = (
{
closed = 1;
nodes = (
"30 838 LINE",
"-1 748 LINE",
"63 748 LINE",
"110 838 LINE"
);
},
{
closed = 1;
nodes = (
"94 0 LINE",
"94 735 LINE",
"15 735 LINE",
"15 0 LINE"
);
}
);
width = 139;
}
);
unicode = 013A;
},
{
glyphname = lcaron;
lastChange = "2012-08-26 17:21:30 +0000";
layers = (
{
layerId = "6463F33F-C059-4755-9C76-9F35D70521A0";
name = "Regular Condensed";
paths = (
{
closed = 1;
nodes = (
"94 0 LINE",
"94 735 LINE",
"15 735 LINE",
"15 0 LINE"
);
},
{
closed = 1;
nodes = (
"212 735 LINE",
"131 735 LINE",
"131 624 LINE",
"152 624 LINE",
"131 494 LINE",
"179 494 LINE",
"212 624 LINE"
);
}
);
width = 229;
}
);
unicode = 013E;
},
{
glyphname = lcommaaccent;
lastChange = "2012-08-26 17:21:30 +0000";
layers = (
{
layerId = "6463F33F-C059-4755-9C76-9F35D70521A0";
name = "Regular Condensed";
paths = (
{
closed = 1;
nodes = (
"94 0 LINE",
"94 735 LINE",
"15 735 LINE",
"15 0 LINE"
);
},
{
closed = 1;
nodes = (
"90 -47 LINE",
"22 -47 LINE",
"22 -116 LINE",
"40 -116 LINE",
"28 -181 LINE",
"77 -181 LINE",
"90 -116 LINE"
);
}
);
width = 139;
}
);
unicode = 013C;
},
{
glyphname = ldot;
lastChange = "2012-08-26 17:21:30 +0000";
layers = (
{
layerId = "6463F33F-C059-4755-9C76-9F35D70521A0";
name = "Regular Condensed";
paths = (
{
closed = 1;
nodes = (
"94 0 LINE",
"94 735 LINE",
"15 735 LINE",
"15 0 LINE"
);
},
{
closed = 1;
nodes = (
"124 317 LINE",
"205 317 LINE",
"205 428 LINE",
"124 428 LINE"
);
}
);
width = 223;
}
);
unicode = 0140;
},
{
glyphname = lslash;
lastChange = "2012-08-26 17:21:30 +0000";
layers = (
{
layerId = "6463F33F-C059-4755-9C76-9F35D70521A0";
name = "Regular Condensed";
paths = (
{
closed = 1;
nodes = (
"108 0 LINE",
"108 391 LINE",
"107 391 LINE",
"137 431 LINE",
"137 559 LINE",
"130 549 OFFCURVE",
"117 533 OFFCURVE",
"108 521 CURVE",
"108 735 LINE",
"29 735 LINE",
"29 420 LINE",
"30 420 LINE",
"0 380 LINE",
"0 252 LINE",
"7 262 OFFCURVE",
"20 278 OFFCURVE",
"29 290 CURVE",
"29 0 LINE"
);
}
);
width = 167;
}
);
unicode = 0142;
},
{
glyphname = m;
lastChange = "2012-08-26 17:21:30 +0000";
layers = (
{
layerId = "6463F33F-C059-4755-9C76-9F35D70521A0";
name = "Regular Condensed";
paths = (
{
closed = 1;
nodes = (
"195 431 LINE SMOOTH",
"195 443 OFFCURVE",
"199 467 OFFCURVE",
"210 467 CURVE SMOOTH",
"221 467 OFFCURVE",
"225 452 OFFCURVE",
"225 431 CURVE SMOOTH",
"225 0 LINE",
"298 0 LINE",
"298 448 LINE SMOOTH",
"298 481 OFFCURVE",
"298 555 OFFCURVE",
"248 555 CURVE SMOOTH",
"226 555 OFFCURVE",
"196 537 OFFCURVE",
"186 515 CURVE",
"184 535 OFFCURVE",
"170 555 OFFCURVE",
"148 555 CURVE SMOOTH",
"129 555 OFFCURVE",
"106 538 OFFCURVE",
"94 518 CURVE",
"94 547 LINE",
"15 547 LINE",
"15 0 LINE",
"94 0 LINE",
"94 431 LINE SMOOTH",
"94 450 OFFCURVE",
"99 467 OFFCURVE",
"108 467 CURVE SMOOTH",
"118 467 OFFCURVE",
"123 454 OFFCURVE",
"123 433 CURVE SMOOTH",
"123 0 LINE",
"195 0 LINE"
);
}
);
width = 329;
}
);
leftKerningGroup = m;
rightKerningGroup = b;
unicode = 006D;
},
{
glyphname = n;
lastChange = "2012-08-26 17:21:30 +0000";
layers = (
{
anchors = (
{
name = bottom;
position = "{116, 0}";
},
{
name = top;
position = "{116, 547}";
}
);
layerId = "6463F33F-C059-4755-9C76-9F35D70521A0";
name = "Regular Condensed";
paths = (
{
closed = 1;
nodes = (
"94 431 LINE SMOOTH",
"94 452 OFFCURVE",
"98 467 OFFCURVE",
"108 467 CURVE SMOOTH",
"118 467 OFFCURVE",
"123 453 OFFCURVE",
"123 432 CURVE SMOOTH",
"123 0 LINE",
"201 0 LINE",
"201 448 LINE SMOOTH",
"201 481 OFFCURVE",
"197 555 OFFCURVE",
"147 555 CURVE SMOOTH",
"130 555 OFFCURVE",
"104 534 OFFCURVE",
"94 519 CURVE",
"94 547 LINE",
"15 547 LINE",
"15 0 LINE",
"94 0 LINE"
);
}
);
width = 232;
}
);
leftKerningGroup = m;
rightKerningGroup = b;
unicode = 006E;
},
{
glyphname = nacute;
lastChange = "2012-08-26 17:21:30 +0000";
layers = (
{
layerId = "6463F33F-C059-4755-9C76-9F35D70521A0";
name = "Regular Condensed";
paths = (
{
closed = 1;
nodes = (
"77 727 LINE",
"46 637 LINE",
"109 637 LINE",
"157 727 LINE"
);
},
{
closed = 1;
nodes = (
"94 431 LINE SMOOTH",
"94 452 OFFCURVE",
"98 467 OFFCURVE",
"108 467 CURVE SMOOTH",
"118 467 OFFCURVE",
"123 453 OFFCURVE",
"123 432 CURVE SMOOTH",
"123 0 LINE",
"201 0 LINE",
"201 448 LINE SMOOTH",
"201 481 OFFCURVE",
"197 555 OFFCURVE",
"147 555 CURVE SMOOTH",
"130 555 OFFCURVE",
"104 534 OFFCURVE",
"94 519 CURVE",
"94 547 LINE",
"15 547 LINE",
"15 0 LINE",
"94 0 LINE"
);
}
);
width = 232;
}
);
unicode = 0144;
},
{
glyphname = napostrophe;
lastChange = "2012-08-26 17:21:30 +0000";
layers = (
{
layerId = "6463F33F-C059-4755-9C76-9F35D70521A0";
name = "Regular Condensed";
paths = (
{
closed = 1;
nodes = (
"61 704 LINE",
"-8 704 LINE",
"-8 635 LINE",
"11 635 LINE",
"-1 570 LINE",
"47 570 LINE",
"61 635 LINE"
);
},
{
closed = 1;
nodes = (
"94 431 LINE SMOOTH",
"94 452 OFFCURVE",
"98 467 OFFCURVE",
"108 467 CURVE SMOOTH",
"118 467 OFFCURVE",
"123 453 OFFCURVE",
"123 432 CURVE SMOOTH",
"123 0 LINE",
"201 0 LINE",
"201 448 LINE SMOOTH",
"201 481 OFFCURVE",
"197 555 OFFCURVE",
"147 555 CURVE SMOOTH",
"130 555 OFFCURVE",
"104 534 OFFCURVE",
"94 519 CURVE",
"94 547 LINE",
"15 547 LINE",
"15 0 LINE",
"94 0 LINE"
);
}
);
width = 232;
}
);
unicode = 0149;
},
{
glyphname = ncaron;
lastChange = "2012-08-26 17:21:30 +0000";
layers = (
{
layerId = "6463F33F-C059-4755-9C76-9F35D70521A0";
name = "Regular Condensed";
paths = (
{
closed = 1;
nodes = (
"94 431 LINE SMOOTH",
"94 452 OFFCURVE",
"98 467 OFFCURVE",
"108 467 CURVE SMOOTH",
"118 467 OFFCURVE",
"123 453 OFFCURVE",
"123 432 CURVE SMOOTH",
"123 0 LINE",
"201 0 LINE",
"201 448 LINE SMOOTH",
"201 481 OFFCURVE",
"197 555 OFFCURVE",
"147 555 CURVE SMOOTH",
"130 555 OFFCURVE",
"104 534 OFFCURVE",
"94 519 CURVE",
"94 547 LINE",
"15 547 LINE",
"15 0 LINE",
"94 0 LINE"
);
},
{
closed = 1;
nodes = (
"141 637 LINE",
"182 727 LINE",
"117 727 LINE",
"100 688 LINE",
"83 727 LINE",
"18 727 LINE",
"60 637 LINE"
);
}
);
width = 232;
}
);
unicode = 0148;
},
{
glyphname = ncommaaccent;
lastChange = "2012-08-26 17:21:30 +0000";
layers = (
{
layerId = "6463F33F-C059-4755-9C76-9F35D70521A0";
name = "Regular Condensed";
paths = (
{
closed = 1;
nodes = (
"138 -54 LINE",
"70 -54 LINE",
"70 -123 LINE",
"88 -123 LINE",
"76 -188 LINE",
"125 -188 LINE",
"138 -123 LINE"
);
},
{
closed = 1;
nodes = (
"94 431 LINE SMOOTH",
"94 452 OFFCURVE",
"98 467 OFFCURVE",
"108 467 CURVE SMOOTH",
"118 467 OFFCURVE",
"123 453 OFFCURVE",
"123 432 CURVE SMOOTH",
"123 0 LINE",
"201 0 LINE",
"201 448 LINE SMOOTH",
"201 481 OFFCURVE",
"197 555 OFFCURVE",
"147 555 CURVE SMOOTH",
"130 555 OFFCURVE",
"104 534 OFFCURVE",
"94 519 CURVE",
"94 547 LINE",
"15 547 LINE",
"15 0 LINE",
"94 0 LINE"
);
}
);
width = 232;
}
);
unicode = 0146;
},
{
glyphname = eng;
lastChange = "2012-08-26 17:21:30 +0000";
layers = (
{
layerId = "6463F33F-C059-4755-9C76-9F35D70521A0";
name = "Regular Condensed";
paths = (
{
closed = 1;
nodes = (
"94 431 LINE SMOOTH",
"94 452 OFFCURVE",
"98 467 OFFCURVE",
"108 467 CURVE SMOOTH",
"118 467 OFFCURVE",
"123 453 OFFCURVE",
"123 433 CURVE SMOOTH",
"123 -6 LINE SMOOTH",
"123 -19 OFFCURVE",
"121 -30 OFFCURVE",
"119 -35 CURVE",
"120 -35 LINE",
"114 -44 OFFCURVE",
"104 -48 OFFCURVE",
"91 -45 CURVE",
"91 -132 LINE",
"137 -136 OFFCURVE",
"165 -122 OFFCURVE",
"180 -100 CURVE SMOOTH",
"195 -78 OFFCURVE",
"201 -47 OFFCURVE",
"201 -19 CURVE SMOOTH",
"201 448 LINE SMOOTH",
"201 481 OFFCURVE",
"197 555 OFFCURVE",
"147 555 CURVE SMOOTH",
"130 555 OFFCURVE",
"104 534 OFFCURVE",
"94 519 CURVE",
"94 547 LINE",
"15 547 LINE",
"15 0 LINE",
"94 0 LINE"
);
}
);
width = 232;
}
);
unicode = 014B;
},
{
glyphname = ntilde;
lastChange = "2012-08-26 17:21:30 +0000";
layers = (
{
layerId = "6463F33F-C059-4755-9C76-9F35D70521A0";
name = "Regular Condensed";
paths = (
{
closed = 1;
nodes = (
"94 431 LINE SMOOTH",
"94 452 OFFCURVE",
"98 467 OFFCURVE",
"108 467 CURVE SMOOTH",
"118 467 OFFCURVE",
"123 453 OFFCURVE",
"123 432 CURVE SMOOTH",
"123 0 LINE",
"201 0 LINE",
"201 448 LINE SMOOTH",
"201 481 OFFCURVE",
"197 555 OFFCURVE",
"147 555 CURVE SMOOTH",
"130 555 OFFCURVE",
"104 534 OFFCURVE",
"94 519 CURVE",
"94 547 LINE",
"15 547 LINE",
"15 0 LINE",
"94 0 LINE"
);
},
{
closed = 1;
nodes = (
"34 623 LINE",
"39 630 OFFCURVE",
"62 653 OFFCURVE",
"74 653 CURVE SMOOTH",
"94 653 OFFCURVE",
"105 634 OFFCURVE",
"128 634 CURVE SMOOTH",
"146 634 OFFCURVE",
"160 646 OFFCURVE",
"168 659 CURVE",
"168 742 LINE",
"162 732 OFFCURVE",
"141 713 OFFCURVE",
"128 713 CURVE SMOOTH",
"109 713 OFFCURVE",
"98 730 OFFCURVE",
"75 730 CURVE SMOOTH",
"60 730 OFFCURVE",
"43 722 OFFCURVE",
"34 709 CURVE"
);
}
);
width = 232;
}
);
leftKerningGroup = m;
rightKerningGroup = b;
unicode = 00F1;
},
{
glyphname = o;
lastChange = "2012-08-26 17:21:30 +0000";
layers = (
{
anchors = (
{
name = top;
position = "{112, 547}";
}
);
layerId = "6463F33F-C059-4755-9C76-9F35D70521A0";
name = "Regular Condensed";
paths = (
{
closed = 1;
nodes = (
"195 414 LINE SMOOTH",
"195 491 OFFCURVE",
"184 555 OFFCURVE",
"104 555 CURVE SMOOTH",
"30 555 OFFCURVE",
"10 487 OFFCURVE",
"10 411 CURVE SMOOTH",
"10 136 LINE SMOOTH",
"10 68 OFFCURVE",
"23 -8 OFFCURVE",
"102 -8 CURVE SMOOTH",
"174 -8 OFFCURVE",
"195 49 OFFCURVE",
"195 133 CURVE SMOOTH"
);
},
{
closed = 1;
nodes = (
"120 126 LINE",
"121 117 OFFCURVE",
"118 81 OFFCURVE",
"102 81 CURVE SMOOTH",
"88 81 OFFCURVE",
"84 104 OFFCURVE",
"85 126 CURVE",
"85 421 LINE SMOOTH",
"85 448 OFFCURVE",
"89 467 OFFCURVE",
"103 467 CURVE SMOOTH",
"119 467 OFFCURVE",
"121 446 OFFCURVE",
"120 421 CURVE"
);
}
);
width = 223;
}
);
leftKerningGroup = c;
rightKerningGroup = c;
unicode = 006F;
},
{
glyphname = oacute;
lastChange = "2012-08-26 17:21:30 +0000";
layers = (
{
layerId = "6463F33F-C059-4755-9C76-9F35D70521A0";
name = "Regular Condensed";
paths = (
{
closed = 1;
nodes = (
"98 727 LINE",
"67 637 LINE",
"131 637 LINE",
"178 727 LINE"
);
},
{
closed = 1;
nodes = (
"195 414 LINE SMOOTH",
"195 491 OFFCURVE",
"184 555 OFFCURVE",
"104 555 CURVE SMOOTH",
"30 555 OFFCURVE",
"10 487 OFFCURVE",
"10 411 CURVE SMOOTH",
"10 136 LINE SMOOTH",
"10 68 OFFCURVE",
"23 -8 OFFCURVE",
"102 -8 CURVE SMOOTH",
"174 -8 OFFCURVE",
"195 49 OFFCURVE",
"195 133 CURVE SMOOTH"
);
},
{
closed = 1;
nodes = (
"120 126 LINE",
"121 117 OFFCURVE",
"118 81 OFFCURVE",
"102 81 CURVE SMOOTH",
"88 81 OFFCURVE",
"84 104 OFFCURVE",
"85 126 CURVE",
"85 421 LINE SMOOTH",
"85 448 OFFCURVE",
"89 467 OFFCURVE",
"103 467 CURVE SMOOTH",
"119 467 OFFCURVE",
"121 446 OFFCURVE",
"120 421 CURVE"
);
}
);
width = 223;
}
);
leftKerningGroup = c;
rightKerningGroup = c;
unicode = 00F3;
},
{
glyphname = obreve;
lastChange = "2012-08-26 17:21:30 +0000";
layers = (
{
layerId = "6463F33F-C059-4755-9C76-9F35D70521A0";
name = "Regular Condensed";
paths = (
{
closed = 1;
nodes = (
"195 414 LINE SMOOTH",
"195 491 OFFCURVE",
"184 555 OFFCURVE",
"104 555 CURVE SMOOTH",
"30 555 OFFCURVE",
"10 487 OFFCURVE",
"10 411 CURVE SMOOTH",
"10 136 LINE SMOOTH",
"10 68 OFFCURVE",
"23 -8 OFFCURVE",
"102 -8 CURVE SMOOTH",
"174 -8 OFFCURVE",
"195 49 OFFCURVE",
"195 133 CURVE SMOOTH"
);
},
{
closed = 1;
nodes = (
"120 126 LINE",
"121 117 OFFCURVE",
"118 81 OFFCURVE",
"102 81 CURVE SMOOTH",
"88 81 OFFCURVE",
"84 104 OFFCURVE",
"85 126 CURVE",
"85 421 LINE SMOOTH",
"85 448 OFFCURVE",
"89 467 OFFCURVE",
"103 467 CURVE SMOOTH",
"119 467 OFFCURVE",
"121 446 OFFCURVE",
"120 421 CURVE"
);
},
{
closed = 1;
nodes = (
"132 740 LINE",
"132 740 OFFCURVE",
"113 709 OFFCURVE",
"97 709 CURVE SMOOTH",
"79 709 OFFCURVE",
"64 741 OFFCURVE",
"64 741 CURVE",
"23 684 LINE",
"36 658 OFFCURVE",
"66 636 OFFCURVE",
"97 636 CURVE SMOOTH",
"128 636 OFFCURVE",
"153 656 OFFCURVE",
"171 684 CURVE"
);
}
);
width = 223;
}
);
unicode = 014F;
},
{
glyphname = ocircumflex;
lastChange = "2012-08-26 17:21:30 +0000";
layers = (
{
layerId = "6463F33F-C059-4755-9C76-9F35D70521A0";
name = "Regular Condensed";
paths = (
{
closed = 1;
nodes = (
"195 414 LINE SMOOTH",
"195 491 OFFCURVE",
"184 555 OFFCURVE",
"104 555 CURVE SMOOTH",
"30 555 OFFCURVE",
"10 487 OFFCURVE",
"10 411 CURVE SMOOTH",
"10 136 LINE SMOOTH",
"10 68 OFFCURVE",
"23 -8 OFFCURVE",
"102 -8 CURVE SMOOTH",
"174 -8 OFFCURVE",
"195 49 OFFCURVE",
"195 133 CURVE SMOOTH"
);
},
{
closed = 1;
nodes = (
"120 126 LINE",
"121 117 OFFCURVE",
"118 81 OFFCURVE",
"102 81 CURVE SMOOTH",
"88 81 OFFCURVE",
"84 104 OFFCURVE",
"85 126 CURVE",
"85 421 LINE SMOOTH",
"85 448 OFFCURVE",
"89 467 OFFCURVE",
"103 467 CURVE SMOOTH",
"119 467 OFFCURVE",
"121 446 OFFCURVE",
"120 421 CURVE"
);
},
{
closed = 1;
nodes = (
"62 727 LINE",
"20 637 LINE",
"85 637 LINE",
"102 676 LINE",
"119 637 LINE",
"184 637 LINE",
"143 727 LINE"
);
}
);
width = 223;
}
);
leftKerningGroup = c;
rightKerningGroup = c;
unicode = 00F4;
},
{
glyphname = odieresis;
lastChange = "2012-08-26 17:21:30 +0000";
layers = (
{
layerId = "6463F33F-C059-4755-9C76-9F35D70521A0";
name = "Regular Condensed";
paths = (
{
closed = 1;
nodes = (
"195 414 LINE SMOOTH",
"195 491 OFFCURVE",
"184 555 OFFCURVE",
"104 555 CURVE SMOOTH",
"30 555 OFFCURVE",
"10 487 OFFCURVE",
"10 411 CURVE SMOOTH",
"10 136 LINE SMOOTH",
"10 68 OFFCURVE",
"23 -8 OFFCURVE",
"102 -8 CURVE SMOOTH",
"174 -8 OFFCURVE",
"195 49 OFFCURVE",
"195 133 CURVE SMOOTH"
);
},
{
closed = 1;
nodes = (
"120 126 LINE",
"121 117 OFFCURVE",
"118 81 OFFCURVE",
"102 81 CURVE SMOOTH",
"88 81 OFFCURVE",
"84 104 OFFCURVE",
"85 126 CURVE",
"85 421 LINE SMOOTH",
"85 448 OFFCURVE",
"89 467 OFFCURVE",
"103 467 CURVE SMOOTH",
"119 467 OFFCURVE",
"121 446 OFFCURVE",
"120 421 CURVE"
);
},
{
closed = 1;
nodes = (
"18 637 LINE",
"92 637 LINE",
"92 735 LINE",
"18 735 LINE"
);
},
{
closed = 1;
nodes = (
"115 637 LINE",
"188 637 LINE",
"188 735 LINE",
"115 735 LINE"
);
}
);
width = 223;
}
);
leftKerningGroup = c;
rightKerningGroup = c;
unicode = 00F6;
},
{
glyphname = ograve;
lastChange = "2012-08-26 17:21:30 +0000";
layers = (
{
layerId = "6463F33F-C059-4755-9C76-9F35D70521A0";
name = "Regular Condensed";
paths = (
{
closed = 1;
nodes = (
"21 727 LINE",
"68 637 LINE",
"132 637 LINE",
"101 727 LINE"
);
},
{
closed = 1;
nodes = (
"195 414 LINE SMOOTH",
"195 491 OFFCURVE",
"184 555 OFFCURVE",
"104 555 CURVE SMOOTH",
"30 555 OFFCURVE",
"10 487 OFFCURVE",
"10 411 CURVE SMOOTH",
"10 136 LINE SMOOTH",
"10 68 OFFCURVE",
"23 -8 OFFCURVE",
"102 -8 CURVE SMOOTH",
"174 -8 OFFCURVE",
"195 49 OFFCURVE",
"195 133 CURVE SMOOTH"
);
},
{
closed = 1;
nodes = (
"120 126 LINE",
"121 117 OFFCURVE",
"118 81 OFFCURVE",
"102 81 CURVE SMOOTH",
"88 81 OFFCURVE",
"84 104 OFFCURVE",
"85 126 CURVE",
"85 421 LINE SMOOTH",
"85 448 OFFCURVE",
"89 467 OFFCURVE",
"103 467 CURVE SMOOTH",
"119 467 OFFCURVE",
"121 446 OFFCURVE",
"120 421 CURVE"
);
}
);
width = 223;
}
);
leftKerningGroup = c;
rightKerningGroup = c;
unicode = 00F2;
},
{
glyphname = ohungarumlaut;
lastChange = "2012-08-26 17:21:30 +0000";
layers = (
{
layerId = "6463F33F-C059-4755-9C76-9F35D70521A0";
name = "Regular Condensed";
paths = (
{
closed = 1;
nodes = (
"28 727 LINE",
"-4 637 LINE",
"60 637 LINE",
"108 727 LINE"
);
},
{
closed = 1;
nodes = (
"136 727 LINE",
"105 637 LINE",
"169 637 LINE",
"216 727 LINE"
);
},
{
closed = 1;
nodes = (
"195 414 LINE SMOOTH",
"195 491 OFFCURVE",
"184 555 OFFCURVE",
"104 555 CURVE SMOOTH",
"30 555 OFFCURVE",
"10 487 OFFCURVE",
"10 411 CURVE SMOOTH",
"10 136 LINE SMOOTH",
"10 68 OFFCURVE",
"23 -8 OFFCURVE",
"102 -8 CURVE SMOOTH",
"174 -8 OFFCURVE",
"195 49 OFFCURVE",
"195 133 CURVE SMOOTH"
);
},
{
closed = 1;
nodes = (
"120 126 LINE",
"121 117 OFFCURVE",
"118 81 OFFCURVE",
"102 81 CURVE SMOOTH",
"88 81 OFFCURVE",
"84 104 OFFCURVE",
"85 126 CURVE",
"85 421 LINE SMOOTH",
"85 448 OFFCURVE",
"89 467 OFFCURVE",
"103 467 CURVE SMOOTH",
"119 467 OFFCURVE",
"121 446 OFFCURVE",
"120 421 CURVE"
);
}
);
width = 223;
}
);
unicode = 0151;
},
{
glyphname = omacron;
lastChange = "2012-08-26 17:21:30 +0000";
layers = (
{
layerId = "6463F33F-C059-4755-9C76-9F35D70521A0";
name = "Regular Condensed";
paths = (
{
closed = 1;
nodes = (
"30 642 LINE",
"164 642 LINE",
"164 721 LINE",
"30 721 LINE"
);
},
{
closed = 1;
nodes = (
"195 414 LINE SMOOTH",
"195 491 OFFCURVE",
"184 555 OFFCURVE",
"104 555 CURVE SMOOTH",
"30 555 OFFCURVE",
"10 487 OFFCURVE",
"10 411 CURVE SMOOTH",
"10 136 LINE SMOOTH",
"10 68 OFFCURVE",
"23 -8 OFFCURVE",
"102 -8 CURVE SMOOTH",
"174 -8 OFFCURVE",
"195 49 OFFCURVE",
"195 133 CURVE SMOOTH"
);
},
{
closed = 1;
nodes = (
"120 126 LINE",
"121 117 OFFCURVE",
"118 81 OFFCURVE",
"102 81 CURVE SMOOTH",
"88 81 OFFCURVE",
"84 104 OFFCURVE",
"85 126 CURVE",
"85 421 LINE SMOOTH",
"85 448 OFFCURVE",
"89 467 OFFCURVE",
"103 467 CURVE SMOOTH",
"119 467 OFFCURVE",
"121 446 OFFCURVE",
"120 421 CURVE"
);
}
);
width = 223;
}
);
unicode = 014D;
},
{
glyphname = oslash;
lastChange = "2012-08-26 17:21:30 +0000";
layers = (
{
anchors = (
{
name = top;
position = "{115, 547}";
}
);
layerId = "6463F33F-C059-4755-9C76-9F35D70521A0";
name = "Regular Condensed";
paths = (
{
closed = 1;
nodes = (
"141 550 LINE",
"131 553 OFFCURVE",
"120 555 OFFCURVE",
"107 555 CURVE SMOOTH",
"33 555 OFFCURVE",
"13 487 OFFCURVE",
"13 411 CURVE SMOOTH",
"13 136 LINE SMOOTH",
"13 96 OFFCURVE",
"17 54 OFFCURVE",
"36 26 CURVE",
"24 -37 LINE",
"69 -37 LINE",
"75 -3 LINE",
"84 -6 OFFCURVE",
"94 -8 OFFCURVE",
"105 -8 CURVE SMOOTH",
"177 -8 OFFCURVE",
"198 49 OFFCURVE",
"198 133 CURVE SMOOTH",
"198 414 LINE SMOOTH",
"198 456 OFFCURVE",
"195 495 OFFCURVE",
"178 521 CURVE",
"191 584 LINE",
"148 584 LINE"
);
},
{
closed = 1;
nodes = (
"115 467 OFFCURVE",
"119 461 OFFCURVE",
"121 451 CURVE",
"88 283 LINE",
"88 421 LINE SMOOTH",
"88 448 OFFCURVE",
"92 467 OFFCURVE",
"106 467 CURVE SMOOTH"
);
},
{
closed = 1;
nodes = (
"100 81 OFFCURVE",
"96 84 OFFCURVE",
"93 88 CURVE",
"123 238 LINE",
"123 126 LINE",
"124 117 OFFCURVE",
"121 81 OFFCURVE",
"105 81 CURVE SMOOTH"
);
}
);
width = 229;
}
);
unicode = 00F8;
},
{
glyphname = otilde;
lastChange = "2012-08-26 17:21:30 +0000";
layers = (
{
layerId = "6463F33F-C059-4755-9C76-9F35D70521A0";
name = "Regular Condensed";
paths = (
{
closed = 1;
nodes = (
"195 414 LINE SMOOTH",
"195 491 OFFCURVE",
"184 555 OFFCURVE",
"104 555 CURVE SMOOTH",
"30 555 OFFCURVE",
"10 487 OFFCURVE",
"10 411 CURVE SMOOTH",
"10 136 LINE SMOOTH",
"10 68 OFFCURVE",
"23 -8 OFFCURVE",
"102 -8 CURVE SMOOTH",
"174 -8 OFFCURVE",
"195 49 OFFCURVE",
"195 133 CURVE SMOOTH"
);
},
{
closed = 1;
nodes = (
"120 126 LINE",
"121 117 OFFCURVE",
"118 81 OFFCURVE",
"102 81 CURVE SMOOTH",
"88 81 OFFCURVE",
"84 104 OFFCURVE",
"85 126 CURVE",
"85 421 LINE SMOOTH",
"85 448 OFFCURVE",
"89 467 OFFCURVE",
"103 467 CURVE SMOOTH",
"119 467 OFFCURVE",
"121 446 OFFCURVE",
"120 421 CURVE"
);
},
{
closed = 1;
nodes = (
"29 622 LINE",
"34 629 OFFCURVE",
"57 652 OFFCURVE",
"69 652 CURVE SMOOTH",
"89 652 OFFCURVE",
"100 633 OFFCURVE",
"123 633 CURVE SMOOTH",
"141 633 OFFCURVE",
"155 645 OFFCURVE",
"163 658 CURVE",
"163 741 LINE",
"157 731 OFFCURVE",
"136 712 OFFCURVE",
"123 712 CURVE SMOOTH",
"104 712 OFFCURVE",
"93 729 OFFCURVE",
"70 729 CURVE SMOOTH",
"55 729 OFFCURVE",
"38 721 OFFCURVE",
"29 708 CURVE"
);
}
);
width = 223;
}
);
leftKerningGroup = c;
rightKerningGroup = c;
unicode = 00F5;
},
{
glyphname = oe;
lastChange = "2012-08-26 17:21:30 +0000";
layers = (
{
anchors = (
{
name = top;
position = "{161, 547}";
}
);
layerId = "6463F33F-C059-4755-9C76-9F35D70521A0";
name = "Regular Condensed";
paths = (
{
closed = 1;
nodes = (
"234 196 LINE",
"234 136 LINE SMOOTH",
"234 117 OFFCURVE",
"231 81 OFFCURVE",
"215 81 CURVE SMOOTH",
"204 81 OFFCURVE",
"200 114 OFFCURVE",
"200 136 CURVE SMOOTH",
"200 255 LINE",
"309 255 LINE",
"309 418 LINE SMOOTH",
"309 481 OFFCURVE",
"299 555 OFFCURVE",
"215 555 CURVE SMOOTH",
"194 555 OFFCURVE",
"177 547 OFFCURVE",
"164 535 CURVE",
"150 548 OFFCURVE",
"131 555 OFFCURVE",
"105 555 CURVE SMOOTH",
"31 555 OFFCURVE",
"11 487 OFFCURVE",
"11 411 CURVE SMOOTH",
"11 136 LINE SMOOTH",
"11 68 OFFCURVE",
"24 -8 OFFCURVE",
"103 -8 CURVE SMOOTH",
"127 -8 OFFCURVE",
"146 -1 OFFCURVE",
"160 10 CURVE",
"172 -1 OFFCURVE",
"188 -8 OFFCURVE",
"210 -8 CURVE SMOOTH",
"287 -8 OFFCURVE",
"309 56 OFFCURVE",
"309 127 CURVE SMOOTH",
"309 196 LINE"
);
},
{
closed = 1;
nodes = (
"121 126 LINE",
"122 117 OFFCURVE",
"119 81 OFFCURVE",
"103 81 CURVE SMOOTH",
"89 81 OFFCURVE",
"85 104 OFFCURVE",
"86 126 CURVE",
"86 421 LINE SMOOTH",
"86 448 OFFCURVE",
"90 467 OFFCURVE",
"104 467 CURVE SMOOTH",
"120 467 OFFCURVE",
"122 446 OFFCURVE",
"121 421 CURVE"
);
},
{
closed = 1;
nodes = (
"200 411 LINE SMOOTH",
"200 427 OFFCURVE",
"201 467 OFFCURVE",
"214 467 CURVE SMOOTH",
"231 467 OFFCURVE",
"234 438 OFFCURVE",
"234 411 CURVE SMOOTH",
"234 334 LINE",
"200 334 LINE"
);
}
);
width = 322;
}
);
leftKerningGroup = c;
rightKerningGroup = c;
unicode = 0153;
},
{
glyphname = p;
lastChange = "2012-08-26 17:21:30 +0000";
layers = (
{
layerId = "6463F33F-C059-4755-9C76-9F35D70521A0";
name = "Regular Condensed";
paths = (
{
closed = 1;
nodes = (
"15 -188 LINE",
"94 -188 LINE",
"94 32 LINE",
"104 10 OFFCURVE",
"128 -8 OFFCURVE",
"146 -8 CURVE SMOOTH",
"195 -8 OFFCURVE",
"200 60 OFFCURVE",
"201 99 CURVE SMOOTH",
"201 448 LINE SMOOTH",
"201 483 OFFCURVE",
"197 555 OFFCURVE",
"146 555 CURVE SMOOTH",
"128 555 OFFCURVE",
"102 537 OFFCURVE",
"94 519 CURVE",
"94 547 LINE",
"15 547 LINE"
);
},
{
closed = 1;
nodes = (
"94 430 LINE SMOOTH",
"94 449 OFFCURVE",
"98 467 OFFCURVE",
"109 467 CURVE SMOOTH",
"120 467 OFFCURVE",
"123 449 OFFCURVE",
"123 430 CURVE SMOOTH",
"123 120 LINE SMOOTH",
"123 98 OFFCURVE",
"119 87 OFFCURVE",
"109 87 CURVE SMOOTH",
"99 87 OFFCURVE",
"94 97 OFFCURVE",
"94 120 CURVE SMOOTH"
);
}
);
width = 231;
}
);
leftKerningGroup = m;
rightKerningGroup = b;
unicode = 0070;
},
{
glyphname = thorn;
lastChange = "2012-08-26 17:21:30 +0000";
layers = (
{
layerId = "6463F33F-C059-4755-9C76-9F35D70521A0";
name = "Regular Condensed";
paths = (
{
closed = 1;
nodes = (
"14 -188 LINE",
"93 -188 LINE",
"93 30 LINE",
"98 18 OFFCURVE",
"124 -8 OFFCURVE",
"150 -8 CURVE SMOOTH",
"199 -8 OFFCURVE",
"194 60 OFFCURVE",
"195 99 CURVE SMOOTH",
"195 448 LINE SMOOTH",
"195 493 OFFCURVE",
"185 555 OFFCURVE",
"134 555 CURVE SMOOTH",
"120 555 OFFCURVE",
"96 537 OFFCURVE",
"93 524 CURVE",
"93 735 LINE",
"14 735 LINE"
);
},
{
closed = 1;
nodes = (
"93 431 LINE SMOOTH",
"93 447 OFFCURVE",
"97 467 OFFCURVE",
"107 467 CURVE SMOOTH",
"116 467 OFFCURVE",
"121 450 OFFCURVE",
"121 431 CURVE SMOOTH",
"121 125 LINE SMOOTH",
"121 105 OFFCURVE",
"118 87 OFFCURVE",
"107 87 CURVE SMOOTH",
"97 87 OFFCURVE",
"93 106 OFFCURVE",
"93 125 CURVE SMOOTH"
);
}
);
width = 231;
}
);
rightKerningGroup = b;
unicode = 00FE;
},
{
glyphname = q;
lastChange = "2012-08-26 17:21:30 +0000";
layers = (
{
layerId = "6463F33F-C059-4755-9C76-9F35D70521A0";
name = "Regular Condensed";
paths = (
{
closed = 1;
nodes = (
"201 547 LINE",
"122 547 LINE",
"122 519 LINE",
"114 537 OFFCURVE",
"88 555 OFFCURVE",
"70 555 CURVE SMOOTH",
"19 555 OFFCURVE",
"15 483 OFFCURVE",
"15 448 CURVE SMOOTH",
"15 99 LINE SMOOTH",
"16 60 OFFCURVE",
"21 -8 OFFCURVE",
"70 -8 CURVE SMOOTH",
"88 -8 OFFCURVE",
"112 10 OFFCURVE",
"122 32 CURVE",
"122 -188 LINE",
"201 -188 LINE"
);
},
{
closed = 1;
nodes = (
"122 120 LINE SMOOTH",
"122 97 OFFCURVE",
"117 87 OFFCURVE",
"107 87 CURVE SMOOTH",
"97 87 OFFCURVE",
"93 98 OFFCURVE",
"93 120 CURVE SMOOTH",
"93 430 LINE SMOOTH",
"93 449 OFFCURVE",
"96 467 OFFCURVE",
"107 467 CURVE SMOOTH",
"118 467 OFFCURVE",
"122 449 OFFCURVE",
"122 430 CURVE SMOOTH"
);
}
);
width = 231;
}
);
leftKerningGroup = d;
unicode = 0071;
},
{
glyphname = r;
lastChange = "2012-08-26 17:21:30 +0000";
layers = (
{
anchors = (
{
name = bottom;
position = "{89, 0}";
},
{
name = top;
position = "{89, 547}";
}
);
layerId = "6463F33F-C059-4755-9C76-9F35D70521A0";
name = "Regular Condensed";
paths = (
{
closed = 1;
nodes = (
"159 555 LINE",
"125 555 OFFCURVE",
"103 536 OFFCURVE",
"92 517 CURVE",
"92 547 LINE",
"15 547 LINE",
"15 0 LINE",
"92 0 LINE",
"92 380 LINE SMOOTH",
"92 423 OFFCURVE",
"112 462 OFFCURVE",
"159 435 CURVE"
);
}
);
width = 178;
}
);
leftKerningGroup = m;
unicode = 0072;
},
{
glyphname = racute;
lastChange = "2012-08-26 17:21:30 +0000";
layers = (
{
layerId = "6463F33F-C059-4755-9C76-9F35D70521A0";
name = "Regular Condensed";
paths = (
{
closed = 1;
nodes = (
"50 727 LINE",
"19 637 LINE",
"82 637 LINE",
"130 727 LINE"
);
},
{
closed = 1;
nodes = (
"159 555 LINE",
"125 555 OFFCURVE",
"103 536 OFFCURVE",
"92 517 CURVE",
"92 547 LINE",
"15 547 LINE",
"15 0 LINE",
"92 0 LINE",
"92 380 LINE SMOOTH",
"92 423 OFFCURVE",
"112 462 OFFCURVE",
"159 435 CURVE"
);
}
);
width = 178;
}
);
unicode = 0155;
},
{
glyphname = rcaron;
lastChange = "2012-08-26 17:21:30 +0000";
layers = (
{
layerId = "6463F33F-C059-4755-9C76-9F35D70521A0";
name = "Regular Condensed";
paths = (
{
closed = 1;
nodes = (
"159 555 LINE",
"125 555 OFFCURVE",
"103 536 OFFCURVE",
"92 517 CURVE",
"92 547 LINE",
"15 547 LINE",
"15 0 LINE",
"92 0 LINE",
"92 380 LINE SMOOTH",
"92 423 OFFCURVE",
"112 462 OFFCURVE",
"159 435 CURVE"
);
},
{
closed = 1;
nodes = (
"116 637 LINE",
"157 727 LINE",
"92 727 LINE",
"75 688 LINE",
"58 727 LINE",
"-7 727 LINE",
"35 637 LINE"
);
}
);
width = 178;
}
);
unicode = 0159;
},
{
glyphname = rcommaaccent;
lastChange = "2012-08-26 17:21:30 +0000";
layers = (
{
layerId = "6463F33F-C059-4755-9C76-9F35D70521A0";
name = "Regular Condensed";
paths = (
{
closed = 1;
nodes = (
"89 -48 LINE",
"20 -48 LINE",
"20 -117 LINE",
"39 -117 LINE",
"27 -182 LINE",
"76 -182 LINE",
"89 -117 LINE"
);
},
{
closed = 1;
nodes = (
"159 555 LINE",
"125 555 OFFCURVE",
"103 536 OFFCURVE",
"92 517 CURVE",
"92 547 LINE",
"15 547 LINE",
"15 0 LINE",
"92 0 LINE",
"92 380 LINE SMOOTH",
"92 423 OFFCURVE",
"112 462 OFFCURVE",
"159 435 CURVE"
);
}
);
width = 178;
}
);
unicode = 0157;
},
{
glyphname = s;
lastChange = "2012-08-26 17:21:30 +0000";
layers = (
{
anchors = (
{
name = bottom;
position = "{108, 0}";
},
{
name = top;
position = "{108, 547}";
}
);
layerId = "6463F33F-C059-4755-9C76-9F35D70521A0";
name = "Regular Condensed";
paths = (
{
closed = 1;
nodes = (
"186 407 LINE",
"186 461 OFFCURVE",
"180 555 OFFCURVE",
"98 555 CURVE SMOOTH",
"38 555 OFFCURVE",
"12 495 OFFCURVE",
"12 425 CURVE SMOOTH",
"12 354 OFFCURVE",
"42 312 OFFCURVE",
"68 260 CURVE SMOOTH",
"88 218 OFFCURVE",
"109 177 OFFCURVE",
"109 142 CURVE SMOOTH",
"109 100 OFFCURVE",
"107 76 OFFCURVE",
"93 76 CURVE SMOOTH",
"79 76 OFFCURVE",
"74 124 OFFCURVE",
"74 159 CURVE",
"2 159 LINE",
"2 85 OFFCURVE",
"8 -8 OFFCURVE",
"93 -8 CURVE SMOOTH",
"171 -8 OFFCURVE",
"184 77 OFFCURVE",
"184 124 CURVE SMOOTH",
"184 202 OFFCURVE",
"150 262 OFFCURVE",
"124 305 CURVE",
"109 334 OFFCURVE",
"86 371 OFFCURVE",
"86 414 CURVE SMOOTH",
"86 435 OFFCURVE",
"87 471 OFFCURVE",
"100 471 CURVE SMOOTH",
"115 471 OFFCURVE",
"118 424 OFFCURVE",
"118 407 CURVE"
);
}
);
width = 215;
}
);
leftKerningGroup = s;
unicode = 0073;
},
{
glyphname = sacute;
lastChange = "2012-08-26 17:21:30 +0000";
layers = (
{
layerId = "6463F33F-C059-4755-9C76-9F35D70521A0";
name = "Regular Condensed";
paths = (
{
closed = 1;
nodes = (
"68 727 LINE",
"37 637 LINE",
"101 637 LINE",
"148 727 LINE"
);
},
{
closed = 1;
nodes = (
"186 407 LINE",
"186 461 OFFCURVE",
"180 555 OFFCURVE",
"98 555 CURVE SMOOTH",
"38 555 OFFCURVE",
"12 495 OFFCURVE",
"12 425 CURVE SMOOTH",
"12 354 OFFCURVE",
"42 312 OFFCURVE",
"68 260 CURVE SMOOTH",
"88 218 OFFCURVE",
"109 177 OFFCURVE",
"109 142 CURVE SMOOTH",
"109 100 OFFCURVE",
"107 76 OFFCURVE",
"93 76 CURVE SMOOTH",
"79 76 OFFCURVE",
"74 124 OFFCURVE",
"74 159 CURVE",
"2 159 LINE",
"2 85 OFFCURVE",
"8 -8 OFFCURVE",
"93 -8 CURVE SMOOTH",
"171 -8 OFFCURVE",
"184 77 OFFCURVE",
"184 124 CURVE SMOOTH",
"184 202 OFFCURVE",
"150 262 OFFCURVE",
"124 305 CURVE",
"109 334 OFFCURVE",
"86 371 OFFCURVE",
"86 414 CURVE SMOOTH",
"86 435 OFFCURVE",
"87 471 OFFCURVE",
"100 471 CURVE SMOOTH",
"115 471 OFFCURVE",
"118 424 OFFCURVE",
"118 407 CURVE"
);
}
);
width = 215;
}
);
unicode = 015B;
},
{
glyphname = scaron;
lastChange = "2012-08-26 17:21:30 +0000";
layers = (
{
layerId = "6463F33F-C059-4755-9C76-9F35D70521A0";
name = "Regular Condensed";
paths = (
{
closed = 1;
nodes = (
"186 407 LINE",
"186 461 OFFCURVE",
"180 555 OFFCURVE",
"98 555 CURVE SMOOTH",
"38 555 OFFCURVE",
"12 495 OFFCURVE",
"12 425 CURVE SMOOTH",
"12 354 OFFCURVE",
"42 312 OFFCURVE",
"68 260 CURVE SMOOTH",
"88 218 OFFCURVE",
"109 177 OFFCURVE",
"109 142 CURVE SMOOTH",
"109 100 OFFCURVE",
"107 76 OFFCURVE",
"93 76 CURVE SMOOTH",
"79 76 OFFCURVE",
"74 124 OFFCURVE",
"74 159 CURVE",
"2 159 LINE",
"2 85 OFFCURVE",
"8 -8 OFFCURVE",
"93 -8 CURVE SMOOTH",
"171 -8 OFFCURVE",
"184 77 OFFCURVE",
"184 124 CURVE SMOOTH",
"184 202 OFFCURVE",
"150 262 OFFCURVE",
"124 305 CURVE",
"109 334 OFFCURVE",
"86 371 OFFCURVE",
"86 414 CURVE SMOOTH",
"86 435 OFFCURVE",
"87 471 OFFCURVE",
"100 471 CURVE SMOOTH",
"115 471 OFFCURVE",
"118 424 OFFCURVE",
"118 407 CURVE"
);
},
{
closed = 1;
nodes = (
"132 637 LINE",
"173 727 LINE",
"108 727 LINE",
"91 688 LINE",
"74 727 LINE",
"9 727 LINE",
"51 637 LINE"
);
}
);
width = 215;
}
);
leftKerningGroup = s;
unicode = 0161;
},
{
glyphname = scedilla;
lastChange = "2012-08-26 17:21:30 +0000";
layers = (
{
layerId = "6463F33F-C059-4755-9C76-9F35D70521A0";
name = "Regular Condensed";
paths = (
{
closed = 1;
nodes = (
"127 -54 LINE",
"59 -54 LINE",
"59 -123 LINE",
"77 -123 LINE",
"65 -188 LINE",
"114 -188 LINE",
"127 -123 LINE"
);
},
{
closed = 1;
nodes = (
"186 407 LINE",
"186 461 OFFCURVE",
"180 555 OFFCURVE",
"98 555 CURVE SMOOTH",
"38 555 OFFCURVE",
"12 495 OFFCURVE",
"12 425 CURVE SMOOTH",
"12 354 OFFCURVE",
"42 312 OFFCURVE",
"68 260 CURVE SMOOTH",
"88 218 OFFCURVE",
"109 177 OFFCURVE",
"109 142 CURVE SMOOTH",
"109 100 OFFCURVE",
"107 76 OFFCURVE",
"93 76 CURVE SMOOTH",
"79 76 OFFCURVE",
"74 124 OFFCURVE",
"74 159 CURVE",
"2 159 LINE",
"2 85 OFFCURVE",
"8 -8 OFFCURVE",
"93 -8 CURVE SMOOTH",
"171 -8 OFFCURVE",
"184 77 OFFCURVE",
"184 124 CURVE SMOOTH",
"184 202 OFFCURVE",
"150 262 OFFCURVE",
"124 305 CURVE",
"109 334 OFFCURVE",
"86 371 OFFCURVE",
"86 414 CURVE SMOOTH",
"86 435 OFFCURVE",
"87 471 OFFCURVE",
"100 471 CURVE SMOOTH",
"115 471 OFFCURVE",
"118 424 OFFCURVE",
"118 407 CURVE"
);
}
);
width = 215;
}
);
unicode = 015F;
},
{
glyphname = scircumflex;
lastChange = "2012-08-26 17:21:30 +0000";
layers = (
{
layerId = "6463F33F-C059-4755-9C76-9F35D70521A0";
name = "Regular Condensed";
paths = (
{
closed = 1;
nodes = (
"54 727 LINE",
"12 637 LINE",
"77 637 LINE",
"94 676 LINE",
"111 637 LINE",
"176 637 LINE",
"135 727 LINE"
);
},
{
closed = 1;
nodes = (
"186 407 LINE",
"186 461 OFFCURVE",
"180 555 OFFCURVE",
"98 555 CURVE SMOOTH",
"38 555 OFFCURVE",
"12 495 OFFCURVE",
"12 425 CURVE SMOOTH",
"12 354 OFFCURVE",
"42 312 OFFCURVE",
"68 260 CURVE SMOOTH",
"88 218 OFFCURVE",
"109 177 OFFCURVE",
"109 142 CURVE SMOOTH",
"109 100 OFFCURVE",
"107 76 OFFCURVE",
"93 76 CURVE SMOOTH",
"79 76 OFFCURVE",
"74 124 OFFCURVE",
"74 159 CURVE",
"2 159 LINE",
"2 85 OFFCURVE",
"8 -8 OFFCURVE",
"93 -8 CURVE SMOOTH",
"171 -8 OFFCURVE",
"184 77 OFFCURVE",
"184 124 CURVE SMOOTH",
"184 202 OFFCURVE",
"150 262 OFFCURVE",
"124 305 CURVE",
"109 334 OFFCURVE",
"86 371 OFFCURVE",
"86 414 CURVE SMOOTH",
"86 435 OFFCURVE",
"87 471 OFFCURVE",
"100 471 CURVE SMOOTH",
"115 471 OFFCURVE",
"118 424 OFFCURVE",
"118 407 CURVE"
);
}
);
width = 215;
}
);
unicode = 015D;
},
{
glyphname = germandbls;
lastChange = "2012-08-26 17:21:30 +0000";
layers = (
{
layerId = "6463F33F-C059-4755-9C76-9F35D70521A0";
name = "Regular Condensed";
paths = (
{
closed = 1;
nodes = (
"109 478 LINE",
"121 478 OFFCURVE",
"132 471 OFFCURVE",
"138 443 CURVE SMOOTH",
"144 415 OFFCURVE",
"147 366 OFFCURVE",
"147 281 CURVE SMOOTH",
"147 201 OFFCURVE",
"144 154 OFFCURVE",
"138 127 CURVE SMOOTH",
"132 100 OFFCURVE",
"121 94 OFFCURVE",
"109 94 CURVE",
"109 0 LINE",
"152 0 OFFCURVE",
"183 9 OFFCURVE",
"200 49 CURVE SMOOTH",
"217 89 OFFCURVE",
"225 160 OFFCURVE",
"225 281 CURVE SMOOTH",
"225 354 OFFCURVE",
"221 408 OFFCURVE",
"213 446 CURVE SMOOTH",
"206 478 OFFCURVE",
"193 503 OFFCURVE",
"178 519 CURVE",
"196 541 OFFCURVE",
"207 571 OFFCURVE",
"207 604 CURVE SMOOTH",
"207 667 OFFCURVE",
"186 743 OFFCURVE",
"108 743 CURVE SMOOTH",
"37 743 OFFCURVE",
"7 674 OFFCURVE",
"7 603 CURVE SMOOTH",
"7 0 LINE",
"86 0 LINE",
"86 603 LINE SMOOTH",
"86 633 OFFCURVE",
"93 653 OFFCURVE",
"108 653 CURVE SMOOTH",
"125 653 OFFCURVE",
"135 631 OFFCURVE",
"135 604 CURVE SMOOTH",
"135 569 OFFCURVE",
"123 547 OFFCURVE",
"109 547 CURVE"
);
}
);
width = 251;
}
);
unicode = 00DF;
},
{
glyphname = longs;
lastChange = "2012-08-26 17:21:30 +0000";
layers = (
{
layerId = "6463F33F-C059-4755-9C76-9F35D70521A0";
name = "Regular Condensed";
paths = (
{
closed = 1;
nodes = (
"66 0 LINE",
"66 565 LINE SMOOTH",
"66 628 OFFCURVE",
"74 645 OFFCURVE",
"97 645 CURVE SMOOTH",
"106 645 OFFCURVE",
"116 643 OFFCURVE",
"131 637 CURVE",
"139 717 LINE",
"119 724 OFFCURVE",
"102 727 OFFCURVE",
"87 727 CURVE SMOOTH",
"36 727 OFFCURVE",
"2 694 OFFCURVE",
"2 573 CURVE SMOOTH",
"2 0 LINE"
);
}
);
width = 169;
}
);
unicode = 017F;
},
{
glyphname = t;
lastChange = "2012-08-26 17:21:30 +0000";
layers = (
{
anchors = (
{
name = bottom;
position = "{88, 0}";
},
{
name = center;
position = "{88, 274}";
}
);
layerId = "6463F33F-C059-4755-9C76-9F35D70521A0";
name = "Regular Condensed";
paths = (
{
closed = 1;
nodes = (
"35 682 LINE",
"35 547 LINE",
"2 547 LINE",
"2 456 LINE",
"35 456 LINE",
"35 0 LINE",
"112 0 LINE",
"112 456 LINE",
"154 456 LINE",
"154 547 LINE",
"112 547 LINE",
"112 682 LINE"
);
}
);
width = 175;
}
);
unicode = 0074;
},
{
glyphname = tbar;
lastChange = "2012-08-26 17:21:30 +0000";
layers = (
{
layerId = "6463F33F-C059-4755-9C76-9F35D70521A0";
name = "Regular Condensed";
paths = (
{
closed = 1;
nodes = (
"112 642 LINE",
"142 642 LINE",
"142 721 LINE",
"7 721 LINE",
"7 642 LINE",
"35 642 LINE",
"35 547 LINE",
"2 547 LINE",
"2 456 LINE",
"35 456 LINE",
"35 0 LINE",
"112 0 LINE",
"112 456 LINE",
"154 456 LINE",
"154 547 LINE",
"112 547 LINE",
"112 642 LINE",
"35 642 LINE"
);
}
);
width = 177;
}
);
unicode = 0167;
},
{
glyphname = tcaron;
lastChange = "2012-08-26 17:21:30 +0000";
layers = (
{
layerId = "6463F33F-C059-4755-9C76-9F35D70521A0";
name = "Regular Condensed";
paths = (
{
closed = 1;
nodes = (
"259 735 LINE",
"178 735 LINE",
"178 624 LINE",
"203 624 LINE",
"178 494 LINE",
"226 494 LINE",
"259 624 LINE"
);
},
{
closed = 1;
nodes = (
"35 682 LINE",
"35 547 LINE",
"2 547 LINE",
"2 456 LINE",
"35 456 LINE",
"35 0 LINE",
"112 0 LINE",
"112 456 LINE",
"154 456 LINE",
"154 547 LINE",
"112 547 LINE",
"112 682 LINE"
);
}
);
width = 281;
}
);
unicode = 0165;
},
{
glyphname = uni021B;
lastChange = "2012-08-26 17:21:30 +0000";
layers = (
{
layerId = "6463F33F-C059-4755-9C76-9F35D70521A0";
name = "Regular Condensed";
paths = (
{
closed = 1;
nodes = (
"138 -54 LINE",
"70 -54 LINE",
"70 -123 LINE",
"88 -123 LINE",
"76 -188 LINE",
"125 -188 LINE",
"138 -123 LINE"
);
},
{
closed = 1;
nodes = (
"35 682 LINE",
"35 547 LINE",
"2 547 LINE",
"2 456 LINE",
"35 456 LINE",
"35 0 LINE",
"112 0 LINE",
"112 456 LINE",
"154 456 LINE",
"154 547 LINE",
"112 547 LINE",
"112 682 LINE"
);
}
);
width = 177;
}
);
unicode = 021B;
},
{
glyphname = u;
lastChange = "2012-08-26 17:21:30 +0000";
layers = (
{
anchors = (
{
name = ogonek;
position = "{209, 10}";
},
{
name = top;
position = "{116, 547}";
}
);
layerId = "6463F33F-C059-4755-9C76-9F35D70521A0";
name = "Regular Condensed";
paths = (
{
closed = 1;
nodes = (
"118 116 LINE SMOOTH",
"118 95 OFFCURVE",
"114 80 OFFCURVE",
"104 80 CURVE SMOOTH",
"94 80 OFFCURVE",
"89 94 OFFCURVE",
"89 115 CURVE SMOOTH",
"89 547 LINE",
"11 547 LINE",
"11 99 LINE SMOOTH",
"11 66 OFFCURVE",
"15 -8 OFFCURVE",
"65 -8 CURVE SMOOTH",
"82 -8 OFFCURVE",
"108 13 OFFCURVE",
"118 28 CURVE",
"118 0 LINE",
"197 0 LINE",
"197 547 LINE",
"118 547 LINE"
);
}
);
width = 232;
}
);
rightKerningGroup = u;
unicode = 0075;
},
{
glyphname = uacute;
lastChange = "2012-08-26 17:21:30 +0000";
layers = (
{
layerId = "6463F33F-C059-4755-9C76-9F35D70521A0";
name = "Regular Condensed";
paths = (
{
closed = 1;
nodes = (
"103 727 LINE",
"71 637 LINE",
"135 637 LINE",
"183 727 LINE"
);
},
{
closed = 1;
nodes = (
"118 116 LINE SMOOTH",
"118 95 OFFCURVE",
"114 80 OFFCURVE",
"104 80 CURVE SMOOTH",
"94 80 OFFCURVE",
"89 94 OFFCURVE",
"89 115 CURVE SMOOTH",
"89 547 LINE",
"11 547 LINE",
"11 99 LINE SMOOTH",
"11 66 OFFCURVE",
"15 -8 OFFCURVE",
"65 -8 CURVE SMOOTH",
"82 -8 OFFCURVE",
"108 13 OFFCURVE",
"118 28 CURVE",
"118 0 LINE",
"197 0 LINE",
"197 547 LINE",
"118 547 LINE"
);
}
);
width = 232;
}
);
rightKerningGroup = u;
unicode = 00FA;
},
{
glyphname = ubreve;
lastChange = "2012-08-26 17:21:30 +0000";
layers = (
{
layerId = "6463F33F-C059-4755-9C76-9F35D70521A0";
name = "Regular Condensed";
paths = (
{
closed = 1;
nodes = (
"118 116 LINE SMOOTH",
"118 95 OFFCURVE",
"114 80 OFFCURVE",
"104 80 CURVE SMOOTH",
"94 80 OFFCURVE",
"89 94 OFFCURVE",
"89 115 CURVE SMOOTH",
"89 547 LINE",
"11 547 LINE",
"11 99 LINE SMOOTH",
"11 66 OFFCURVE",
"15 -8 OFFCURVE",
"65 -8 CURVE SMOOTH",
"82 -8 OFFCURVE",
"108 13 OFFCURVE",
"118 28 CURVE",
"118 0 LINE",
"197 0 LINE",
"197 547 LINE",
"118 547 LINE"
);
},
{
closed = 1;
nodes = (
"137 740 LINE",
"137 740 OFFCURVE",
"118 709 OFFCURVE",
"102 709 CURVE SMOOTH",
"84 709 OFFCURVE",
"69 741 OFFCURVE",
"69 741 CURVE",
"28 684 LINE",
"41 658 OFFCURVE",
"71 636 OFFCURVE",
"102 636 CURVE SMOOTH",
"133 636 OFFCURVE",
"158 656 OFFCURVE",
"176 684 CURVE"
);
}
);
width = 232;
}
);
unicode = 016D;
},
{
glyphname = ucircumflex;
lastChange = "2012-08-26 17:21:30 +0000";
layers = (
{
layerId = "6463F33F-C059-4755-9C76-9F35D70521A0";
name = "Regular Condensed";
paths = (
{
closed = 1;
nodes = (
"118 116 LINE SMOOTH",
"118 95 OFFCURVE",
"114 80 OFFCURVE",
"104 80 CURVE SMOOTH",
"94 80 OFFCURVE",
"89 94 OFFCURVE",
"89 115 CURVE SMOOTH",
"89 547 LINE",
"11 547 LINE",
"11 99 LINE SMOOTH",
"11 66 OFFCURVE",
"15 -8 OFFCURVE",
"65 -8 CURVE SMOOTH",
"82 -8 OFFCURVE",
"108 13 OFFCURVE",
"118 28 CURVE",
"118 0 LINE",
"197 0 LINE",
"197 547 LINE",
"118 547 LINE"
);
},
{
closed = 1;
nodes = (
"62 727 LINE",
"20 637 LINE",
"85 637 LINE",
"102 676 LINE",
"119 637 LINE",
"184 637 LINE",
"143 727 LINE"
);
}
);
width = 232;
}
);
rightKerningGroup = u;
unicode = 00FB;
},
{
glyphname = udieresis;
lastChange = "2012-08-26 17:21:30 +0000";
layers = (
{
layerId = "6463F33F-C059-4755-9C76-9F35D70521A0";
name = "Regular Condensed";
paths = (
{
closed = 1;
nodes = (
"118 116 LINE SMOOTH",
"118 95 OFFCURVE",
"114 80 OFFCURVE",
"104 80 CURVE SMOOTH",
"94 80 OFFCURVE",
"89 94 OFFCURVE",
"89 115 CURVE SMOOTH",
"89 547 LINE",
"11 547 LINE",
"11 99 LINE SMOOTH",
"11 66 OFFCURVE",
"15 -8 OFFCURVE",
"65 -8 CURVE SMOOTH",
"82 -8 OFFCURVE",
"108 13 OFFCURVE",
"118 28 CURVE",
"118 0 LINE",
"197 0 LINE",
"197 547 LINE",
"118 547 LINE"
);
},
{
closed = 1;
nodes = (
"17 637 LINE",
"91 637 LINE",
"91 735 LINE",
"17 735 LINE"
);
},
{
closed = 1;
nodes = (
"114 637 LINE",
"187 637 LINE",
"187 735 LINE",
"114 735 LINE"
);
}
);
width = 232;
}
);
rightKerningGroup = u;
unicode = 00FC;
},
{
glyphname = ugrave;
lastChange = "2012-08-26 17:21:30 +0000";
layers = (
{
layerId = "6463F33F-C059-4755-9C76-9F35D70521A0";
name = "Regular Condensed";
paths = (
{
closed = 1;
nodes = (
"25 727 LINE",
"72 637 LINE",
"136 637 LINE",
"105 727 LINE"
);
},
{
closed = 1;
nodes = (
"118 116 LINE SMOOTH",
"118 95 OFFCURVE",
"114 80 OFFCURVE",
"104 80 CURVE SMOOTH",
"94 80 OFFCURVE",
"89 94 OFFCURVE",
"89 115 CURVE SMOOTH",
"89 547 LINE",
"11 547 LINE",
"11 99 LINE SMOOTH",
"11 66 OFFCURVE",
"15 -8 OFFCURVE",
"65 -8 CURVE SMOOTH",
"82 -8 OFFCURVE",
"108 13 OFFCURVE",
"118 28 CURVE",
"118 0 LINE",
"197 0 LINE",
"197 547 LINE",
"118 547 LINE"
);
}
);
width = 232;
}
);
rightKerningGroup = u;
unicode = 00F9;
},
{
glyphname = uhungarumlaut;
lastChange = "2012-08-26 17:21:30 +0000";
layers = (
{
layerId = "6463F33F-C059-4755-9C76-9F35D70521A0";
name = "Regular Condensed";
paths = (
{
closed = 1;
nodes = (
"32 727 LINE",
"1 637 LINE",
"65 637 LINE",
"112 727 LINE"
);
},
{
closed = 1;
nodes = (
"141 727 LINE",
"110 637 LINE",
"174 637 LINE",
"221 727 LINE"
);
},
{
closed = 1;
nodes = (
"118 116 LINE SMOOTH",
"118 95 OFFCURVE",
"114 80 OFFCURVE",
"104 80 CURVE SMOOTH",
"94 80 OFFCURVE",
"89 94 OFFCURVE",
"89 115 CURVE SMOOTH",
"89 547 LINE",
"11 547 LINE",
"11 99 LINE SMOOTH",
"11 66 OFFCURVE",
"15 -8 OFFCURVE",
"65 -8 CURVE SMOOTH",
"82 -8 OFFCURVE",
"108 13 OFFCURVE",
"118 28 CURVE",
"118 0 LINE",
"197 0 LINE",
"197 547 LINE",
"118 547 LINE"
);
}
);
width = 232;
}
);
unicode = 0171;
},
{
glyphname = umacron;
lastChange = "2012-08-26 17:21:30 +0000";
layers = (
{
layerId = "6463F33F-C059-4755-9C76-9F35D70521A0";
name = "Regular Condensed";
paths = (
{
closed = 1;
nodes = (
"35 642 LINE",
"169 642 LINE",
"169 721 LINE",
"35 721 LINE"
);
},
{
closed = 1;
nodes = (
"118 116 LINE SMOOTH",
"118 95 OFFCURVE",
"114 80 OFFCURVE",
"104 80 CURVE SMOOTH",
"94 80 OFFCURVE",
"89 94 OFFCURVE",
"89 115 CURVE SMOOTH",
"89 547 LINE",
"11 547 LINE",
"11 99 LINE SMOOTH",
"11 66 OFFCURVE",
"15 -8 OFFCURVE",
"65 -8 CURVE SMOOTH",
"82 -8 OFFCURVE",
"108 13 OFFCURVE",
"118 28 CURVE",
"118 0 LINE",
"197 0 LINE",
"197 547 LINE",
"118 547 LINE"
);
}
);
width = 232;
}
);
unicode = 016B;
},
{
glyphname = uogonek;
lastChange = "2012-08-26 17:21:30 +0000";
layers = (
{
layerId = "6463F33F-C059-4755-9C76-9F35D70521A0";
name = "Regular Condensed";
paths = (
{
closed = 1;
nodes = (
"118 116 LINE SMOOTH",
"118 95 OFFCURVE",
"114 80 OFFCURVE",
"104 80 CURVE SMOOTH",
"94 80 OFFCURVE",
"89 94 OFFCURVE",
"89 115 CURVE SMOOTH",
"89 547 LINE",
"11 547 LINE",
"11 99 LINE SMOOTH",
"11 66 OFFCURVE",
"15 -8 OFFCURVE",
"65 -8 CURVE SMOOTH",
"82 -8 OFFCURVE",
"108 13 OFFCURVE",
"118 28 CURVE",
"118 0 LINE",
"125 0 LINE",
"116 -11 OFFCURVE",
"109 -22 OFFCURVE",
"105 -28 CURVE",
"105 -29 OFFCURVE",
"104 -30 OFFCURVE",
"103 -31 CURVE",
"93 -50 OFFCURVE",
"82 -80 OFFCURVE",
"82 -103 CURVE SMOOTH",
"82 -148 OFFCURVE",
"107 -188 OFFCURVE",
"152 -188 CURVE SMOOTH",
"166 -188 OFFCURVE",
"176 -185 OFFCURVE",
"192 -176 CURVE",
"197 -101 LINE",
"182 -112 OFFCURVE",
"168 -121 OFFCURVE",
"163 -121 CURVE SMOOTH",
"153 -121 OFFCURVE",
"142 -112 OFFCURVE",
"142 -83 CURVE SMOOTH",
"142 -71 OFFCURVE",
"143 -60 OFFCURVE",
"146 -50 CURVE SMOOTH",
"152 -28 OFFCURVE",
"159 -11 OFFCURVE",
"167 0 CURVE",
"197 0 LINE",
"197 547 LINE",
"118 547 LINE"
);
}
);
width = 232;
}
);
unicode = 0173;
},
{
glyphname = uring;
lastChange = "2012-08-26 17:21:30 +0000";
layers = (
{
layerId = "6463F33F-C059-4755-9C76-9F35D70521A0";
name = "Regular Condensed";
paths = (
{
closed = 1;
nodes = (
"48 653 OFFCURVE",
"72 624 OFFCURVE",
"102 624 CURVE SMOOTH",
"132 624 OFFCURVE",
"155 653 OFFCURVE",
"155 694 CURVE SMOOTH",
"155 735 OFFCURVE",
"132 764 OFFCURVE",
"102 764 CURVE SMOOTH",
"72 764 OFFCURVE",
"48 735 OFFCURVE",
"48 694 CURVE SMOOTH"
);
},
{
closed = 1;
nodes = (
"89 713 OFFCURVE",
"95 729 OFFCURVE",
"102 729 CURVE SMOOTH",
"108 729 OFFCURVE",
"115 713 OFFCURVE",
"115 694 CURVE SMOOTH",
"115 675 OFFCURVE",
"108 659 OFFCURVE",
"102 659 CURVE SMOOTH",
"95 659 OFFCURVE",
"89 675 OFFCURVE",
"89 694 CURVE SMOOTH"
);
},
{
closed = 1;
nodes = (
"118 116 LINE SMOOTH",
"118 95 OFFCURVE",
"114 80 OFFCURVE",
"104 80 CURVE SMOOTH",
"94 80 OFFCURVE",
"89 94 OFFCURVE",
"89 115 CURVE SMOOTH",
"89 547 LINE",
"11 547 LINE",
"11 99 LINE SMOOTH",
"11 66 OFFCURVE",
"15 -8 OFFCURVE",
"65 -8 CURVE SMOOTH",
"82 -8 OFFCURVE",
"108 13 OFFCURVE",
"118 28 CURVE",
"118 0 LINE",
"197 0 LINE",
"197 547 LINE",
"118 547 LINE"
);
}
);
width = 232;
}
);
unicode = 016F;
},
{
glyphname = utilde;
lastChange = "2012-08-26 17:21:30 +0000";
layers = (
{
layerId = "6463F33F-C059-4755-9C76-9F35D70521A0";
name = "Regular Condensed";
paths = (
{
closed = 1;
nodes = (
"118 116 LINE SMOOTH",
"118 95 OFFCURVE",
"114 80 OFFCURVE",
"104 80 CURVE SMOOTH",
"94 80 OFFCURVE",
"89 94 OFFCURVE",
"89 115 CURVE SMOOTH",
"89 547 LINE",
"11 547 LINE",
"11 99 LINE SMOOTH",
"11 66 OFFCURVE",
"15 -8 OFFCURVE",
"65 -8 CURVE SMOOTH",
"82 -8 OFFCURVE",
"108 13 OFFCURVE",
"118 28 CURVE",
"118 0 LINE",
"197 0 LINE",
"197 547 LINE",
"118 547 LINE"
);
},
{
closed = 1;
nodes = (
"33 623 LINE",
"38 630 OFFCURVE",
"61 653 OFFCURVE",
"73 653 CURVE SMOOTH",
"93 653 OFFCURVE",
"104 634 OFFCURVE",
"127 634 CURVE SMOOTH",
"145 634 OFFCURVE",
"159 646 OFFCURVE",
"167 659 CURVE",
"167 742 LINE",
"161 732 OFFCURVE",
"140 713 OFFCURVE",
"127 713 CURVE SMOOTH",
"108 713 OFFCURVE",
"97 730 OFFCURVE",
"74 730 CURVE SMOOTH",
"59 730 OFFCURVE",
"42 722 OFFCURVE",
"33 709 CURVE"
);
}
);
width = 232;
}
);
unicode = 0169;
},
{
glyphname = v;
lastChange = "2012-08-26 17:21:30 +0000";
layers = (
{
layerId = "6463F33F-C059-4755-9C76-9F35D70521A0";
name = "Regular Condensed";
paths = (
{
closed = 1;
nodes = (
"132 0 LINE",
"191 547 LINE",
"117 547 LINE",
"93 226 LINE",
"70 547 LINE",
"-4 547 LINE",
"54 0 LINE"
);
}
);
width = 206;
}
);
leftKerningGroup = v;
rightKerningGroup = v;
unicode = 0076;
},
{
glyphname = w;
lastChange = "2012-08-26 17:21:30 +0000";
layers = (
{
anchors = (
{
name = top;
position = "{148, 547}";
}
);
layerId = "6463F33F-C059-4755-9C76-9F35D70521A0";
name = "Regular Condensed";
paths = (
{
closed = 1;
nodes = (
"220 0 LINE",
"268 547 LINE",
"197 547 LINE",
"178 296 LINE",
"157 547 LINE",
"109 547 LINE",
"87 296 LINE",
"68 547 LINE",
"-3 547 LINE",
"46 0 LINE",
"110 0 LINE",
"132 260 LINE",
"155 0 LINE"
);
}
);
width = 295;
}
);
leftKerningGroup = v;
rightKerningGroup = v;
unicode = 0077;
},
{
glyphname = wcircumflex;
lastChange = "2012-08-26 17:21:30 +0000";
layers = (
{
layerId = "6463F33F-C059-4755-9C76-9F35D70521A0";
name = "Regular Condensed";
paths = (
{
closed = 1;
nodes = (
"91 727 LINE",
"49 637 LINE",
"114 637 LINE",
"131 676 LINE",
"148 637 LINE",
"213 637 LINE",
"172 727 LINE"
);
},
{
closed = 1;
nodes = (
"220 0 LINE",
"268 547 LINE",
"197 547 LINE",
"178 296 LINE",
"157 547 LINE",
"109 547 LINE",
"87 296 LINE",
"68 547 LINE",
"-3 547 LINE",
"46 0 LINE",
"110 0 LINE",
"132 260 LINE",
"155 0 LINE"
);
}
);
width = 295;
}
);
unicode = 0175;
},
{
glyphname = x;
lastChange = "2012-08-26 17:21:30 +0000";
layers = (
{
layerId = "6463F33F-C059-4755-9C76-9F35D70521A0";
name = "Regular Condensed";
paths = (
{
closed = 1;
nodes = (
"6 0 LINE",
"80 0 LINE",
"85 33 OFFCURVE",
"94 115 OFFCURVE",
"100 148 CURVE",
"122 0 LINE",
"195 0 LINE",
"139 282 LINE",
"201 547 LINE",
"127 547 LINE",
"100 410 LINE",
"75 547 LINE",
"1 547 LINE",
"62 282 LINE"
);
}
);
width = 217;
}
);
unicode = 0078;
},
{
glyphname = y;
lastChange = "2012-08-26 17:21:30 +0000";
layers = (
{
anchors = (
{
name = top;
position = "{114, 547}";
}
);
layerId = "6463F33F-C059-4755-9C76-9F35D70521A0";
name = "Regular Condensed";
paths = (
{
closed = 1;
nodes = (
"11 -193 LINE",
"49 -208 OFFCURVE",
"89 -190 OFFCURVE",
"112 -147 CURVE SMOOTH",
"128 -119 OFFCURVE",
"137 -77 OFFCURVE",
"140 -41 CURVE SMOOTH",
"208 547 LINE",
"130 547 LINE",
"125 473 OFFCURVE",
"109 299 OFFCURVE",
"104 224 CURVE",
"75 547 LINE",
"-2 547 LINE",
"64 -16 LINE",
"64 -41 OFFCURVE",
"62 -75 OFFCURVE",
"46 -99 CURVE",
"38 -109 OFFCURVE",
"26 -110 OFFCURVE",
"11 -104 CURVE"
);
}
);
width = 228;
}
);
leftKerningGroup = v;
rightKerningGroup = v;
unicode = 0079;
},
{
glyphname = yacute;
lastChange = "2012-08-26 17:21:30 +0000";
layers = (
{
layerId = "6463F33F-C059-4755-9C76-9F35D70521A0";
name = "Regular Condensed";
paths = (
{
closed = 1;
nodes = (
"95 727 LINE",
"64 637 LINE",
"128 637 LINE",
"175 727 LINE"
);
},
{
closed = 1;
nodes = (
"11 -193 LINE",
"49 -208 OFFCURVE",
"89 -190 OFFCURVE",
"112 -147 CURVE SMOOTH",
"128 -119 OFFCURVE",
"137 -77 OFFCURVE",
"140 -41 CURVE SMOOTH",
"208 547 LINE",
"130 547 LINE",
"125 473 OFFCURVE",
"109 299 OFFCURVE",
"104 224 CURVE",
"75 547 LINE",
"-2 547 LINE",
"64 -16 LINE",
"64 -41 OFFCURVE",
"62 -75 OFFCURVE",
"46 -99 CURVE",
"38 -109 OFFCURVE",
"26 -110 OFFCURVE",
"11 -104 CURVE"
);
}
);
width = 226;
}
);
leftKerningGroup = v;
rightKerningGroup = v;
unicode = 00FD;
},
{
glyphname = ycircumflex;
lastChange = "2012-08-26 17:21:30 +0000";
layers = (
{
layerId = "6463F33F-C059-4755-9C76-9F35D70521A0";
name = "Regular Condensed";
paths = (
{
closed = 1;
nodes = (
"64 727 LINE",
"22 637 LINE",
"87 637 LINE",
"104 676 LINE",
"121 637 LINE",
"186 637 LINE",
"145 727 LINE"
);
},
{
closed = 1;
nodes = (
"11 -193 LINE",
"49 -208 OFFCURVE",
"89 -190 OFFCURVE",
"112 -147 CURVE SMOOTH",
"128 -119 OFFCURVE",
"137 -77 OFFCURVE",
"140 -41 CURVE SMOOTH",
"208 547 LINE",
"130 547 LINE",
"125 473 OFFCURVE",
"109 299 OFFCURVE",
"104 224 CURVE",
"75 547 LINE",
"-2 547 LINE",
"64 -16 LINE",
"64 -41 OFFCURVE",
"62 -75 OFFCURVE",
"46 -99 CURVE",
"38 -109 OFFCURVE",
"26 -110 OFFCURVE",
"11 -104 CURVE"
);
}
);
width = 216;
}
);
unicode = 0177;
},
{
glyphname = ydieresis;
lastChange = "2012-08-26 17:21:30 +0000";
layers = (
{
layerId = "6463F33F-C059-4755-9C76-9F35D70521A0";
name = "Regular Condensed";
paths = (
{
closed = 1;
nodes = (
"17 637 LINE",
"91 637 LINE",
"91 735 LINE",
"17 735 LINE"
);
},
{
closed = 1;
nodes = (
"114 637 LINE",
"187 637 LINE",
"187 735 LINE",
"114 735 LINE"
);
},
{
closed = 1;
nodes = (
"11 -193 LINE",
"49 -208 OFFCURVE",
"89 -190 OFFCURVE",
"112 -147 CURVE SMOOTH",
"128 -119 OFFCURVE",
"137 -77 OFFCURVE",
"140 -41 CURVE SMOOTH",
"208 547 LINE",
"130 547 LINE",
"125 473 OFFCURVE",
"109 299 OFFCURVE",
"104 224 CURVE",
"75 547 LINE",
"-2 547 LINE",
"64 -16 LINE",
"64 -41 OFFCURVE",
"62 -75 OFFCURVE",
"46 -99 CURVE",
"38 -109 OFFCURVE",
"26 -110 OFFCURVE",
"11 -104 CURVE"
);
}
);
width = 216;
}
);
leftKerningGroup = v;
rightKerningGroup = v;
unicode = 00FF;
},
{
glyphname = z;
lastChange = "2012-08-26 17:21:30 +0000";
layers = (
{
anchors = (
{
name = top;
position = "{93, 547}";
}
);
layerId = "6463F33F-C059-4755-9C76-9F35D70521A0";
name = "Regular Condensed";
paths = (
{
closed = 1;
nodes = (
"-5 0 LINE",
"160 0 LINE",
"160 92 LINE",
"77 92 LINE",
"160 465 LINE",
"160 547 LINE",
"8 547 LINE",
"8 455 LINE",
"78 455 LINE",
"-5 82 LINE"
);
}
);
width = 186;
}
);
unicode = 007A;
},
